<svg xmlns="http://www.w3.org/2000/svg" viewBox="0 0 512 512"><title>Analytics</title><g id="Analytics"><g id="Layer_27" data-name="Layer 27"><path d="M122.12,103.78a9,9,0,0,1-8.94-8.94V73.77a8.94,8.94,0,1,1,17.88,0V94.84A9,9,0,0,1,122.12,103.78Zm0-37.28a7.28,7.28,0,0,0-7.27,7.27V94.84a7.27,7.27,0,0,0,14.53,0V73.77A7.27,7.27,0,0,0,122.12,66.5Z" style="fill:#33f2b2"/><path d="M148.75,104.86a.83.83,0,0,1-.84-.84V68.89a11.34,11.34,0,0,1-3.9,3.54.84.84,0,1,1-.78-1.49c3.25-1.69,4.72-5.57,4.73-5.61l1.63-4.39V104A.84.84,0,0,1,148.75,104.86Z" style="fill:#33f2b2"/><path d="M170.25,103.78a9,9,0,0,1-8.95-8.94V73.77a8.95,8.95,0,1,1,17.89,0V94.84A9,9,0,0,1,170.25,103.78Zm0-37.28A7.28,7.28,0,0,0,163,73.77V94.84a7.27,7.27,0,0,0,14.53,0V73.77A7.27,7.27,0,0,0,170.25,66.5Z" style="fill:#33f2b2"/><path d="M196.88,104.86A.83.83,0,0,1,196,104V68.89a11.29,11.29,0,0,1-3.91,3.54.83.83,0,0,1-1.13-.36.84.84,0,0,1,.36-1.13c3.25-1.69,4.72-5.57,4.73-5.61l1.63-4.39V104A.84.84,0,0,1,196.88,104.86Z" style="fill:#33f2b2"/><path d="M94.6,104.86a.84.84,0,0,1-.84-.84V68.89a11.25,11.25,0,0,1-3.9,3.54.82.82,0,0,1-1.13-.36.84.84,0,0,1,.36-1.13c3.25-1.69,4.71-5.57,4.73-5.61l1.62-4.39V104A.83.83,0,0,1,94.6,104.86Z" style="fill:#33f2b2"/><path d="M152.2,151.91a9,9,0,0,1-8.94-8.94V121.9a8.94,8.94,0,1,1,17.88,0V143A9,9,0,0,1,152.2,151.91Zm0-37.28a7.28,7.28,0,0,0-7.27,7.27V143a7.27,7.27,0,0,0,14.53,0V121.9A7.27,7.27,0,0,0,152.2,114.63Z" style="fill:#33f2b2"/><path d="M178.83,153a.85.85,0,0,1-.84-.84V117a11.36,11.36,0,0,1-3.9,3.55.84.84,0,1,1-.78-1.49c3.24-1.69,4.72-5.57,4.73-5.61l1.63-4.35v43A.85.85,0,0,1,178.83,153Z" style="fill:#33f2b2"/><path d="M200.33,151.91a9,9,0,0,1-8.94-8.94V121.9a8.94,8.94,0,1,1,17.88,0V143A9,9,0,0,1,200.33,151.91Zm0-37.28a7.28,7.28,0,0,0-7.27,7.27V143a7.27,7.27,0,0,0,14.53,0V121.9A7.27,7.27,0,0,0,200.33,114.63Z" style="fill:#33f2b2"/><path d="M98.05,151.91A9,9,0,0,1,89.11,143V121.9a8.95,8.95,0,1,1,17.89,0V143A9,9,0,0,1,98.05,151.91Zm0-37.28a7.27,7.27,0,0,0-7.26,7.27V143a7.27,7.27,0,0,0,14.53,0V121.9A7.28,7.28,0,0,0,98.05,114.63Z" style="fill:#33f2b2"/><path d="M124.68,153a.85.85,0,0,1-.84-.84V117a11.27,11.27,0,0,1-3.9,3.55.82.82,0,0,1-1.13-.36.84.84,0,0,1,.36-1.13c3.25-1.7,4.71-5.57,4.73-5.61l1.62-4.39v43.08A.84.84,0,0,1,124.68,153Z" style="fill:#33f2b2"/><path d="M128.14,200a9,9,0,0,1-8.95-8.95V170a8.95,8.95,0,0,1,17.89,0v21.07A9,9,0,0,1,128.14,200Zm0-37.28a7.27,7.27,0,0,0-7.27,7.26v21.07a7.27,7.27,0,1,0,14.53,0V170A7.27,7.27,0,0,0,128.14,162.76Z" style="fill:#33f2b2"/><path d="M154.76,201.12a.84.84,0,0,1-.83-.84V165.14a11.4,11.4,0,0,1-3.91,3.55.84.84,0,0,1-.77-1.49c3.25-1.7,4.71-5.57,4.73-5.61l1.62-4.39v43.08A.84.84,0,0,1,154.76,201.12Z" style="fill:#33f2b2"/><path d="M176.26,200a9,9,0,0,1-8.94-8.95V170a8.95,8.95,0,0,1,17.89,0v21.07A9,9,0,0,1,176.26,200Zm0-37.28A7.27,7.27,0,0,0,169,170v21.07a7.27,7.27,0,1,0,14.53,0V170A7.27,7.27,0,0,0,176.26,162.76Z" style="fill:#33f2b2"/><path d="M202.89,201.12a.85.85,0,0,1-.84-.84V165.14a11.27,11.27,0,0,1-3.9,3.55.84.84,0,0,1-1.13-.36.83.83,0,0,1,.35-1.13c3.26-1.7,4.72-5.57,4.74-5.61l1.62-4.39v43.08A.84.84,0,0,1,202.89,201.12Z" style="fill:#33f2b2"/><path d="M100.62,201.12a.85.85,0,0,1-.84-.84V165.14a11.27,11.27,0,0,1-3.9,3.55.84.84,0,0,1-1.13-.36.83.83,0,0,1,.35-1.13c3.25-1.7,4.72-5.57,4.73-5.61l1.63-4.39v43.08A.85.85,0,0,1,100.62,201.12Z" style="fill:#33f2b2"/><path d="M255.57,234.45v-98h-.8a96.89,96.89,0,1,0,96.87,97.87Z" style="fill:#33f2b2"/><path d="M257.35,367.72A137.74,137.74,0,0,1,143.79,152.51c42.72-62.78,128.54-79.1,191.32-36.38s79.09,128.54,36.38,191.31a136.83,136.83,0,0,1-88.13,57.82A139.05,139.05,0,0,1,257.35,367.72Zm.47-259.42a121.67,121.67,0,1,0,68.29,21A121.69,121.69,0,0,0,257.82,108.3Z" style="fill:#055139"/><path d="M364.19,301.57A128.62,128.62,0,1,0,180.51,332.7L107.38,441.22a6.31,6.31,0,1,0,10.47,7L191,339.76A128.62,128.62,0,0,0,364.19,301.57ZM191.82,330.63l-3.17-2.14a120.35,120.35,0,1,1,3.17,2.14Z" style="fill:#009b76"/><path d="M257.54,345.17a114.48,114.48,0,1,1,49.58-11.38A114.64,114.64,0,0,1,257.54,345.17Zm-.36-226.89A112.42,112.42,0,1,0,358.6,181.82h0A112.59,112.59,0,0,0,257.18,118.28Z" style="fill:#faf7f0"/><path d="M272.77,217.16,400.55,217c0-70.87-57-129.57-127.78-130Z" style="fill:#ff9dea"/><rect x="182.71" y="335.76" width="170.13" height="23.18" transform="translate(615.13 79.58) rotate(90)" style="fill:#fff"/><rect x="236.71" y="353.76" width="134.13" height="23.18" transform="translate(669.13 61.58) rotate(90)" style="fill:#fff"/><rect x="290.71" y="371.76" width="98.13" height="23.18" transform="translate(723.13 43.58) rotate(90)" style="fill:#fff"/><rect x="342.92" y="387.97" width="65.71" height="23.18" transform="translate(775.34 23.79) rotate(90)" style="fill:#fff"/><rect x="393.92" y="402.97" width="35.71" height="23.18" transform="translate(826.34 2.79) rotate(90)" style="fill:#fff"/></g></g></svg>