<svg xmlns="http://www.w3.org/2000/svg" viewBox="0 0 512 512"><title>Cloud_computing</title><g id="Cloud_computing"><path d="M273.14,393.05V357.1A43.16,43.16,0,0,0,230.44,314V291.71h-3.6v49a16.26,16.26,0,1,0,3.6,0V317.59a39.56,39.56,0,0,1,39.1,39.51v36.06a16.24,16.24,0,1,0,3.6-.11ZM241.26,356.9a12.66,12.66,0,1,1-12.65-12.66A12.66,12.66,0,0,1,241.26,356.9Zm30.56,65a12.66,12.66,0,1,1,12.65-12.65A12.67,12.67,0,0,1,271.82,421.89Z" style="fill:#fde1ff"/><path d="M177.07,372.11V287.89h-3.6v84.24a16.24,16.24,0,1,0,3.6,0Zm-1.73,28.82A12.66,12.66,0,1,1,188,388.27,12.67,12.67,0,0,1,175.34,400.93Z" style="fill:#fde1ff"/><path d="M323.81,329.34V245.11h-3.6v84.25a16.24,16.24,0,1,0,3.6,0Zm-1.73,28.81a12.66,12.66,0,1,1,12.66-12.65A12.67,12.67,0,0,1,322.08,358.15Z" style="fill:#fde1ff"/><path d="M379.82,152.62a77.5,77.5,0,0,0-14,1.29,80.19,80.19,0,0,0-79.07-67c-1.54,0-3,.06-4.56.14l-63.43-.17L215.69,130a79.27,79.27,0,0,0-6.56,17c-.55,0-1.11,0-1.67,0-21.84,0-39.55,18.57-39.55,41.48a43.81,43.81,0,0,0,.74,8,53.3,53.3,0,0,0-48.84,53.1c0,.72,0,1.42,0,2.13,1.1,28.11,24.91,50,53,50H394.77A52.68,52.68,0,0,0,427,290.82a77.16,77.16,0,0,0-47.2-138.2Z" style="fill:#33f2b2"/><path d="M108.1,301.71H330a52.66,52.66,0,0,0,32.25-10.89A77.14,77.14,0,0,0,301,153.91,80.18,80.18,0,0,0,144.33,147c-.55,0-1.11,0-1.67,0-21.84,0-39.55,18.57-39.55,41.48a43.81,43.81,0,0,0,.74,8A53.3,53.3,0,0,0,55,249.57c0,.72,0,1.42.05,2.13C56.16,279.81,80,301.71,108.1,301.71Z" style="fill:#543254"/><path d="M434.15,232.79H349.9a16.24,16.24,0,1,0,0,3.6h84.23ZM333.76,247.32a12.66,12.66,0,1,1,12.66-12.66A12.67,12.67,0,0,1,333.76,247.32Z" style="fill:#33f2b2"/><path d="M223.75,135.54v-49h-3.6v22.28a43.17,43.17,0,0,0-42.7,43.11v35.94a16.28,16.28,0,1,0,3.6.11v-36a39.55,39.55,0,0,1,39.1-39.51v23.16a16.26,16.26,0,1,0,3.6,0ZM191.44,204a12.66,12.66,0,1,1-12.66-12.65A12.68,12.68,0,0,1,191.44,204ZM222,164.35a12.66,12.66,0,1,1,12.66-12.65A12.67,12.67,0,0,1,222,164.35Z" style="fill:#33f2b2"/></g></svg>