<svg xmlns="http://www.w3.org/2000/svg" viewBox="0 0 512 512"><title>Coding</title><g id="Coding"><path d="M156.14,97.72H359.53a4.39,4.39,0,0,1,4.39,4.39V243.44a3.48,3.48,0,0,1-3.48,3.48H158.71a3.48,3.48,0,0,1-3.48-3.48V98.63A.91.91,0,0,1,156.14,97.72Z" style="fill:#543254"/><path d="M145.23,84.67H345.14a4.39,4.39,0,0,1,4.39,4.39V230.39a3.48,3.48,0,0,1-3.48,3.48H144.32a3.48,3.48,0,0,1-3.48-3.48V89.06A4.39,4.39,0,0,1,145.23,84.67Z" style="fill:#fde1ff"/><path d="M145.1,84.67H345.27a4.26,4.26,0,0,1,4.26,4.26v19.87a0,0,0,0,1,0,0H140.84a0,0,0,0,1,0,0V88.92A4.26,4.26,0,0,1,145.1,84.67Z" style="fill:#ff9dea"/><rect x="160.58" y="128.96" width="39.12" height="23.7" style="fill:#fff"/><rect x="160.48" y="159.9" width="39.12" height="55.15" style="fill:#fff"/><rect x="208.05" y="127.45" width="120.14" height="86.12" style="fill:#fff"/><path d="M157.78,98.16A4.16,4.16,0,1,1,153.62,94,4.16,4.16,0,0,1,157.78,98.16Z" style="fill:#fff"/><path d="M172,98.16A4.16,4.16,0,1,1,167.8,94,4.16,4.16,0,0,1,172,98.16Z" style="fill:#fff"/><path d="M185.92,98.16A4.16,4.16,0,1,1,181.76,94,4.16,4.16,0,0,1,185.92,98.16Z" style="fill:#fff"/><rect x="166.65" y="166.56" width="27.59" height="1.37" style="fill:#ded1d5"/><rect x="166.65" y="170.67" width="27.59" height="1.37" style="fill:#ded1d5"/><rect x="166.65" y="174.79" width="27.59" height="1.37" style="fill:#ded1d5"/><rect x="166.65" y="178.9" width="27.59" height="1.37" style="fill:#ded1d5"/><rect x="166.65" y="183.02" width="27.59" height="1.37" style="fill:#ded1d5"/><rect x="166.65" y="187.14" width="27.59" height="1.37" style="fill:#ded1d5"/><rect x="166.65" y="191.25" width="27.59" height="1.37" style="fill:#ded1d5"/><rect x="166.65" y="195.37" width="27.59" height="1.37" style="fill:#ded1d5"/><rect x="166.65" y="199.48" width="27.59" height="1.37" style="fill:#ded1d5"/><rect x="166.65" y="203.6" width="27.59" height="1.37" style="fill:#ded1d5"/><rect x="166.65" y="207.71" width="27.59" height="1.37" style="fill:#ded1d5"/><polygon points="287.43 191.9 286.46 190.93 306.2 171.19 286.46 151.45 287.43 150.48 308.14 171.19 287.43 191.9" style="fill:#543254"/><polygon points="248.7 191.9 227.99 171.19 248.7 150.48 249.67 151.45 229.93 171.19 249.67 190.93 248.7 191.9" style="fill:#543254"/><rect x="241.69" y="170.2" width="44.16" height="1.37" transform="translate(2.81 346.02) rotate(-66.8)" style="fill:#543254"/><path d="M156.46,182.52A11.44,11.44,0,0,1,145,171.09V144.15a11.43,11.43,0,1,1,22.86,0v26.94A11.45,11.45,0,0,1,156.46,182.52Zm0-47.66a9.3,9.3,0,0,0-9.29,9.29v26.94a9.29,9.29,0,0,0,18.58,0V144.15A9.3,9.3,0,0,0,156.46,134.86Z" style="fill:#33f2b2"/><path d="M190.51,183.9a1.07,1.07,0,0,1-1.07-1.07V137.9a14.65,14.65,0,0,1-5,4.54A1.07,1.07,0,0,1,183,142a1.06,1.06,0,0,1,.45-1.44c4.16-2.17,6-7.13,6.05-7.18l2.08-5.61v55.08A1.07,1.07,0,0,1,190.51,183.9Z" style="fill:#33f2b2"/><path d="M218,182.52a11.45,11.45,0,0,1-11.44-11.43V144.15a11.44,11.44,0,1,1,22.87,0v26.94A11.45,11.45,0,0,1,218,182.52Zm0-47.66a9.3,9.3,0,0,0-9.29,9.29v26.94a9.29,9.29,0,0,0,18.58,0V144.15A9.3,9.3,0,0,0,218,134.86Z" style="fill:#33f2b2"/><path d="M59.74,183.9a1.07,1.07,0,0,1-1.07-1.07V137.9a14.47,14.47,0,0,1-5,4.54,1.07,1.07,0,0,1-1.45-.46,1.06,1.06,0,0,1,.45-1.44c4.16-2.17,6-7.13,6-7.18l2.08-5.61v55.08A1.07,1.07,0,0,1,59.74,183.9Z" style="fill:#33f2b2"/><path d="M87.23,182.52a11.45,11.45,0,0,1-11.44-11.43V144.15a11.44,11.44,0,1,1,22.87,0v26.94A11.45,11.45,0,0,1,87.23,182.52Zm0-47.66a9.3,9.3,0,0,0-9.29,9.29v26.94a9.29,9.29,0,0,0,18.58,0V144.15A9.3,9.3,0,0,0,87.23,134.86Z" style="fill:#33f2b2"/><path d="M121.28,183.9a1.08,1.08,0,0,1-1.08-1.07V137.9a14.47,14.47,0,0,1-5,4.54,1.07,1.07,0,0,1-1-1.9c4.16-2.17,6-7.13,6-7.18l2.08-5.61v55.08A1.07,1.07,0,0,1,121.28,183.9Z" style="fill:#33f2b2"/><path d="M194.92,244.06a11.45,11.45,0,0,1-11.43-11.44V205.68a11.43,11.43,0,0,1,22.86,0v26.94A11.44,11.44,0,0,1,194.92,244.06Zm0-47.66a9.3,9.3,0,0,0-9.29,9.28v26.94a9.29,9.29,0,0,0,18.58,0V205.68A9.3,9.3,0,0,0,194.92,196.4Z" style="fill:#33f2b2"/><path d="M229,245.44a1.07,1.07,0,0,1-1.07-1.07V199.44a14.56,14.56,0,0,1-5,4.54,1.08,1.08,0,0,1-1-1.91c4.16-2.17,6-7.12,6.05-7.17l2.08-5.61v55.08A1.07,1.07,0,0,1,229,245.44Z" style="fill:#33f2b2"/><path d="M64.15,244.06a11.45,11.45,0,0,1-11.43-11.44V205.68a11.44,11.44,0,0,1,22.87,0v26.94A11.45,11.45,0,0,1,64.15,244.06Zm0-47.66a9.3,9.3,0,0,0-9.29,9.28v26.94a9.29,9.29,0,1,0,18.58,0V205.68A9.3,9.3,0,0,0,64.15,196.4Z" style="fill:#33f2b2"/><path d="M98.2,245.44a1.07,1.07,0,0,1-1.07-1.07V199.44a14.56,14.56,0,0,1-5,4.54,1.08,1.08,0,1,1-1-1.91c4.15-2.17,6-7.12,6-7.17l2.08-5.61v55.08A1.07,1.07,0,0,1,98.2,245.44Z" style="fill:#33f2b2"/><path d="M125.69,244.06a11.45,11.45,0,0,1-11.43-11.44V205.68a11.43,11.43,0,0,1,22.86,0v26.94A11.45,11.45,0,0,1,125.69,244.06Zm0-47.66a9.3,9.3,0,0,0-9.29,9.28v26.94a9.29,9.29,0,0,0,18.58,0V205.68A9.3,9.3,0,0,0,125.69,196.4Z" style="fill:#33f2b2"/><path d="M159.74,245.44a1.07,1.07,0,0,1-1.07-1.07V199.44a14.56,14.56,0,0,1-5,4.54,1.08,1.08,0,0,1-1-1.91c4.16-2.17,6-7.12,6-7.17l2.08-5.61v55.08A1.07,1.07,0,0,1,159.74,245.44Z" style="fill:#33f2b2"/><path d="M164.15,305.6a11.45,11.45,0,0,1-11.43-11.44V267.22a11.44,11.44,0,0,1,22.87,0v26.94A11.45,11.45,0,0,1,164.15,305.6Zm0-47.66a9.3,9.3,0,0,0-9.29,9.28v26.94a9.29,9.29,0,0,0,18.58,0V267.22A9.3,9.3,0,0,0,164.15,257.94Z" style="fill:#33f2b2"/><path d="M198.2,307a1.07,1.07,0,0,1-1.07-1.07V261a14.44,14.44,0,0,1-5,4.53,1.07,1.07,0,0,1-1.45-.45,1.08,1.08,0,0,1,.45-1.45c4.16-2.17,6-7.12,6.05-7.17l2.08-5.61v55.08A1.07,1.07,0,0,1,198.2,307Z" style="fill:#33f2b2"/><path d="M225.69,305.6a11.45,11.45,0,0,1-11.43-11.44V267.22a11.43,11.43,0,1,1,22.86,0v26.94A11.45,11.45,0,0,1,225.69,305.6Zm0-47.66a9.3,9.3,0,0,0-9.29,9.28v26.94a9.29,9.29,0,0,0,18.58,0V267.22A9.3,9.3,0,0,0,225.69,257.94Z" style="fill:#33f2b2"/><path d="M67.43,307a1.07,1.07,0,0,1-1.07-1.07V261a14.44,14.44,0,0,1-5,4.53,1.07,1.07,0,1,1-1-1.9c4.15-2.17,6-7.12,6.05-7.17l2.07-5.61v55.08A1.07,1.07,0,0,1,67.43,307Z" style="fill:#33f2b2"/><path d="M94.92,305.6a11.45,11.45,0,0,1-11.43-11.44V267.22a11.44,11.44,0,0,1,22.87,0v26.94A11.45,11.45,0,0,1,94.92,305.6Zm0-47.66a9.3,9.3,0,0,0-9.29,9.28v26.94a9.29,9.29,0,1,0,18.58,0V267.22A9.3,9.3,0,0,0,94.92,257.94Z" style="fill:#33f2b2"/><path d="M129,307a1.07,1.07,0,0,1-1.07-1.07V261a14.44,14.44,0,0,1-5,4.53,1.07,1.07,0,0,1-1.45-.45,1.08,1.08,0,0,1,.45-1.45c4.14-2.16,6-7.12,6-7.17l2.08-5.56v55A1.07,1.07,0,0,1,129,307Z" style="fill:#33f2b2"/><path d="M348.46,182.52A11.44,11.44,0,0,1,337,171.09V144.15a11.43,11.43,0,1,1,22.86,0v26.94A11.45,11.45,0,0,1,348.46,182.52Zm0-47.66a9.3,9.3,0,0,0-9.29,9.29v26.94a9.29,9.29,0,0,0,18.58,0V144.15A9.3,9.3,0,0,0,348.46,134.86Z" style="fill:#33f2b2"/><path d="M382.51,183.9a1.07,1.07,0,0,1-1.07-1.07V137.91a14.63,14.63,0,0,1-5,4.53A1.07,1.07,0,0,1,375,142a1.06,1.06,0,0,1,.45-1.44c4.16-2.17,6-7.13,6.05-7.18l2.08-5.61v55.08A1.07,1.07,0,0,1,382.51,183.9Z" style="fill:#33f2b2"/><path d="M410,182.52a11.45,11.45,0,0,1-11.44-11.43V144.15a11.44,11.44,0,1,1,22.87,0v26.94A11.45,11.45,0,0,1,410,182.52Zm0-47.66a9.3,9.3,0,0,0-9.29,9.29v26.94a9.29,9.29,0,0,0,18.58,0V144.15A9.3,9.3,0,0,0,410,134.86Z" style="fill:#33f2b2"/><path d="M444.05,183.9a1.07,1.07,0,0,1-1.08-1.07V137.9a14.47,14.47,0,0,1-5,4.54,1.07,1.07,0,0,1-1-1.9c4.16-2.17,6-7.13,6.05-7.18l2.08-5.61v55.08A1.07,1.07,0,0,1,444.05,183.9Z" style="fill:#33f2b2"/><path d="M251.74,183.9a1.07,1.07,0,0,1-1.07-1.07V137.9a14.47,14.47,0,0,1-5,4.54,1.07,1.07,0,0,1-1.45-.46,1.06,1.06,0,0,1,.45-1.44c4.16-2.17,6-7.13,6-7.18l2.08-5.61v55.08A1.07,1.07,0,0,1,251.74,183.9Z" style="fill:#33f2b2"/><path d="M279.23,182.52a11.45,11.45,0,0,1-11.44-11.43V144.15a11.44,11.44,0,1,1,22.87,0v26.94A11.45,11.45,0,0,1,279.23,182.52Zm0-47.66a9.3,9.3,0,0,0-9.29,9.29v26.94a9.29,9.29,0,0,0,18.58,0V144.15A9.3,9.3,0,0,0,279.23,134.86Z" style="fill:#33f2b2"/><path d="M313.28,183.9a1.06,1.06,0,0,1-1.07-1.07V137.91a14.67,14.67,0,0,1-5,4.53,1.07,1.07,0,0,1-1-1.9c4.16-2.17,6-7.13,6-7.18l2.08-5.61v55.08A1.07,1.07,0,0,1,313.28,183.9Z" style="fill:#33f2b2"/><path d="M386.92,244.06a11.45,11.45,0,0,1-11.43-11.44V205.68a11.43,11.43,0,0,1,22.86,0v26.94A11.44,11.44,0,0,1,386.92,244.06Zm0-47.66a9.3,9.3,0,0,0-9.29,9.28v26.94a9.29,9.29,0,1,0,18.58,0V205.68A9.3,9.3,0,0,0,386.92,196.4Z" style="fill:#33f2b2"/><path d="M421,245.44a1.07,1.07,0,0,1-1.07-1.07V199.44a14.47,14.47,0,0,1-5,4.54,1.08,1.08,0,0,1-1-1.91c4.14-2.16,6-7.12,6-7.17l2.08-5.56v55A1.07,1.07,0,0,1,421,245.44Z" style="fill:#33f2b2"/><path d="M448.46,244.06A11.44,11.44,0,0,1,437,232.62V205.68a11.43,11.43,0,0,1,22.86,0v26.94A11.45,11.45,0,0,1,448.46,244.06Zm0-47.66a9.3,9.3,0,0,0-9.29,9.28v26.94a9.29,9.29,0,0,0,18.58,0V205.68A9.3,9.3,0,0,0,448.46,196.4Z" style="fill:#33f2b2"/><path d="M256.15,244.06a11.45,11.45,0,0,1-11.43-11.44V205.68a11.44,11.44,0,0,1,22.87,0v26.94A11.45,11.45,0,0,1,256.15,244.06Zm0-47.66a9.3,9.3,0,0,0-9.29,9.28v26.94a9.29,9.29,0,0,0,18.58,0V205.68A9.3,9.3,0,0,0,256.15,196.4Z" style="fill:#33f2b2"/><path d="M290.2,245.44a1.07,1.07,0,0,1-1.07-1.07V199.44a14.56,14.56,0,0,1-5,4.54,1.08,1.08,0,0,1-1-1.91c4.13-2.16,6-7.12,6.05-7.17l2.07-5.56v55A1.07,1.07,0,0,1,290.2,245.44Z" style="fill:#33f2b2"/><path d="M317.69,244.06a11.45,11.45,0,0,1-11.43-11.44V205.68a11.43,11.43,0,0,1,22.86,0v26.94A11.44,11.44,0,0,1,317.69,244.06Zm0-47.66a9.3,9.3,0,0,0-9.29,9.28v26.94a9.29,9.29,0,0,0,18.58,0V205.68A9.3,9.3,0,0,0,317.69,196.4Z" style="fill:#33f2b2"/><path d="M351.74,245.44a1.07,1.07,0,0,1-1.07-1.07V199.44a14.56,14.56,0,0,1-5,4.54,1.08,1.08,0,0,1-1-1.91c4.16-2.17,6-7.12,6.05-7.17l2.08-5.61v55.08A1.07,1.07,0,0,1,351.74,245.44Z" style="fill:#33f2b2"/><path d="M356.15,305.6a11.45,11.45,0,0,1-11.43-11.44V267.22a11.44,11.44,0,0,1,22.87,0v26.94A11.45,11.45,0,0,1,356.15,305.6Zm0-47.66a9.3,9.3,0,0,0-9.29,9.28v26.94a9.29,9.29,0,1,0,18.58,0V267.22A9.3,9.3,0,0,0,356.15,257.94Z" style="fill:#33f2b2"/><path d="M390.2,307a1.07,1.07,0,0,1-1.07-1.07V261a14.44,14.44,0,0,1-5,4.53,1.07,1.07,0,1,1-1-1.9c4.15-2.17,6-7.12,6.05-7.17l2.07-5.61v55.08A1.07,1.07,0,0,1,390.2,307Z" style="fill:#33f2b2"/><path d="M417.69,305.6a11.45,11.45,0,0,1-11.43-11.44V267.22a11.43,11.43,0,1,1,22.86,0v26.94A11.44,11.44,0,0,1,417.69,305.6Zm0-47.66a9.3,9.3,0,0,0-9.29,9.28v26.94a9.29,9.29,0,0,0,18.58,0V267.22A9.3,9.3,0,0,0,417.69,257.94Z" style="fill:#33f2b2"/><path d="M451.74,307a1.07,1.07,0,0,1-1.07-1.07V261a14.48,14.48,0,0,1-5,4.53,1.06,1.06,0,0,1-1.44-.45,1.07,1.07,0,0,1,.45-1.45c4.16-2.17,6-7.12,6.05-7.17l2.08-5.61v55.08A1.07,1.07,0,0,1,451.74,307Z" style="fill:#33f2b2"/><path d="M259.43,307a1.07,1.07,0,0,1-1.07-1.07V261a14.44,14.44,0,0,1-5,4.53,1.07,1.07,0,1,1-1-1.9c4.15-2.17,6-7.12,6.05-7.17l2.07-5.61v55.08A1.07,1.07,0,0,1,259.43,307Z" style="fill:#33f2b2"/><path d="M286.92,305.6a11.45,11.45,0,0,1-11.43-11.44V267.22a11.43,11.43,0,1,1,22.86,0v26.94A11.44,11.44,0,0,1,286.92,305.6Zm0-47.66a9.3,9.3,0,0,0-9.29,9.28v26.94a9.29,9.29,0,1,0,18.58,0V267.22A9.3,9.3,0,0,0,286.92,257.94Z" style="fill:#33f2b2"/><path d="M321,307a1.07,1.07,0,0,1-1.07-1.07V261a14.44,14.44,0,0,1-5,4.53,1.07,1.07,0,1,1-1-1.9c4.15-2.17,6-7.12,6-7.17l2.08-5.61v55.08A1.07,1.07,0,0,1,321,307Z" style="fill:#33f2b2"/><rect x="62.98" y="289.41" width="384.09" height="137.92" style="fill:#543254"/><rect x="57.68" y="289.41" width="371.39" height="137.92" style="fill:#ff9dea"/><rect x="132.51" y="384.07" width="156.41" height="16.16" style="fill:#fde1ff"/><rect x="86.35" y="383.92" width="16.21" height="16.47" style="fill:#fff"/><rect x="109.15" y="383.92" width="16.21" height="16.47" style="fill:#fff"/><rect x="296.35" y="383.92" width="16.21" height="16.47" style="fill:#fff"/><rect x="87.58" y="316.7" width="224.72" height="57.53" style="fill:#fff"/><rect x="335.01" y="316.95" width="75.47" height="75.28" style="fill:#fff"/><path d="M294.28,310.89H291.8v24.85H275.67V310.89h-2.48v24.85H257.06V310.89h-2.48v24.85H238.45V310.89H236v24.85H219.84V310.89h-2.48v24.85H201.24V310.89h-2.49v24.85H182.63V310.89h-2.48v24.85H164V310.89h-2.48v24.85H145.41V310.89h-2.48v24.85H126.8V310.89h-2.48v24.85H108.19V310.89h-2.48v24.85H82.52v2.48h23.19v16.13H82.52v2.48h23.19V378.7h2.48V356.83h16.13V378.7h2.48V356.83h16.13V378.7h2.48V356.83h16.13V378.7H164V356.83h16.13V378.7h2.48V356.83h16.12V378.7h2.49V356.83h16.12V378.7h2.48V356.83H236V378.7h2.48V356.83h16.13V378.7h2.48V356.83h16.13V378.7h2.48V356.83H291.8V378.7h2.48V356.83h21.08v-2.48H294.28V338.22h21.08v-2.48H294.28ZM108.19,354.35V338.22h16.13v16.13Zm18.61,0V338.22h16.13v16.13Zm18.61,0V338.22h16.13v16.13Zm18.61,0V338.22h16.13v16.13Zm18.61,0V338.22h16.12v16.13Zm18.61,0V338.22h16.12v16.13Zm18.6,0V338.22H236v16.13Zm18.61,0V338.22h16.13v16.13Zm18.61,0V338.22h16.13v16.13Zm34.74,0H275.67V338.22H291.8Z" style="fill:#ff9dea"/><path d="M418.78,338.47V336H392.83V314.74h-2.48V336H374.23V314.74h-2.49V336H355.62V314.74h-2.48V336h-23.2v2.48h23.2V354.6h-23.2v2.48h23.2v15.75h-23.2v2.48h23.2V396h2.48V375.31h16.12V396h2.49V375.31h16.12V396h2.48V375.31h25.95v-2.48H392.83V357.08h25.95V354.6H392.83V338.47Zm-63.16,0h16.12V354.6H355.62Zm0,34.36V357.08h16.12v15.75Zm34.73,0H374.23V357.08h16.12Zm0-18.23H374.23V338.47h16.12Z" style="fill:#ff9dea"/></g></svg>