<svg xmlns="http://www.w3.org/2000/svg" viewBox="0 0 512 512"><title>Data_privacy</title><g id="Data_privacy"><path d="M281.92,257.35l-21.44-29.59H150.17A20.2,20.2,0,0,0,130,248V456.29a20.19,20.19,0,0,0,20.19,20.19H398.81A20.19,20.19,0,0,0,419,456.29V277.54a20.19,20.19,0,0,0-20.19-20.19Z" style="fill:#543254"/><rect x="130.79" y="177.81" width="190.91" height="255.68" style="fill:#33f2b2"/><rect x="155.71" y="201.06" width="139.72" height="2.72" style="fill:#543254"/><rect x="155.71" y="214.66" width="139.72" height="2.72" style="fill:#543254"/><rect x="155.71" y="228.25" width="139.72" height="2.72" style="fill:#543254"/><rect x="155.71" y="241.85" width="139.72" height="2.72" style="fill:#543254"/><rect x="155.71" y="201.06" width="139.72" height="2.72" style="fill:#543254"/><rect x="155.71" y="214.66" width="139.72" height="2.72" style="fill:#543254"/><rect x="155.71" y="255.44" width="139.72" height="2.72" style="fill:#543254"/><rect x="155.71" y="269.04" width="139.72" height="2.72" style="fill:#543254"/><rect x="155.71" y="282.63" width="139.72" height="2.72" style="fill:#543254"/><rect x="155.71" y="296.23" width="139.72" height="2.72" style="fill:#543254"/><rect x="155.71" y="309.82" width="139.72" height="2.72" style="fill:#543254"/><rect x="155.71" y="323.42" width="139.72" height="2.72" style="fill:#543254"/><rect x="155.71" y="282.63" width="139.72" height="2.72" style="fill:#543254"/><rect x="155.71" y="296.23" width="139.72" height="2.72" style="fill:#543254"/><rect x="155.71" y="337.01" width="139.72" height="2.72" style="fill:#543254"/><rect x="155.71" y="350.61" width="139.72" height="2.72" style="fill:#543254"/><rect x="170.55" y="210.74" width="190.91" height="255.68" style="fill:#fde1ff"/><rect x="196.15" y="233.19" width="139.72" height="2.72" style="fill:#d68f99"/><rect x="196.15" y="246.78" width="139.72" height="2.72" style="fill:#d68f99"/><rect x="196.15" y="260.38" width="139.72" height="2.72" style="fill:#d68f99"/><rect x="196.15" y="273.97" width="139.72" height="2.72" style="fill:#d68f99"/><rect x="196.15" y="233.19" width="139.72" height="2.72" style="fill:#d68f99"/><rect x="196.15" y="246.78" width="139.72" height="2.72" style="fill:#d68f99"/><rect x="196.15" y="287.57" width="139.72" height="2.72" style="fill:#d68f99"/><rect x="196.15" y="301.16" width="139.72" height="2.72" style="fill:#d68f99"/><rect x="196.15" y="314.76" width="139.72" height="2.72" style="fill:#d68f99"/><rect x="196.15" y="328.35" width="139.72" height="2.72" style="fill:#d68f99"/><rect x="196.15" y="341.95" width="139.72" height="2.72" style="fill:#d68f99"/><rect x="196.15" y="355.54" width="139.72" height="2.72" style="fill:#d68f99"/><rect x="196.15" y="314.76" width="139.72" height="2.72" style="fill:#d68f99"/><rect x="196.15" y="328.35" width="139.72" height="2.72" style="fill:#d68f99"/><rect x="196.15" y="369.14" width="139.72" height="2.72" style="fill:#d68f99"/><rect x="196.15" y="382.73" width="139.72" height="2.72" style="fill:#d68f99"/><path d="M135.55,386.8H94.88V196.23c0-88.62,72.09-160.71,160.71-160.71S416.3,107.61,416.3,196.23v19.39H375.62V196.23a120,120,0,0,0-240.07,0Z" style="fill:#055139"/><circle cx="395.97" cy="216" r="20.4" style="fill:#33f2b2"/><path d="M245,257.35,223.5,227.76H113.19A20.2,20.2,0,0,0,93,248V456.29a20.19,20.19,0,0,0,20.19,20.19H361.83A20.19,20.19,0,0,0,382,456.29V277.54a20.19,20.19,0,0,0-20.19-20.19Z" style="fill:#ff9dea"/><path d="M266.1,346.21a26.74,26.74,0,1,0-38.59,24L213.7,426.12H265l-13.81-55.95A26.74,26.74,0,0,0,266.1,346.21Z" style="fill:#543254"/></g></svg>