<svg xmlns="http://www.w3.org/2000/svg" viewBox="0 0 512 512"><title>Devices</title><g id="Devices"><path d="M212.49,317.64v57.12a18.2,18.2,0,0,1-2.71,9.45h-33v8.29H197a10.17,10.17,0,0,1-1.11.08v0h90.3c9.33,0,15.67-8.52,15.67-17.84V317.64Z" style="fill:#fde1ff"/><path d="M211.28,317.64v51.91a15.5,15.5,0,0,1-15.39,15.34h83.69a15.5,15.5,0,0,0,15.65-15.35V317.64Z" style="fill:#ff7be6"/><rect x="85.81" y="86.92" width="346.42" height="251.32" rx="16.36" style="fill:#ff7be6"/><rect x="66.73" y="86.92" width="346.42" height="251.32" rx="16.36" style="fill:#fbd4ff"/><path d="M66.73,298.73V102.09A16.36,16.36,0,0,1,83.09,85.72H396.78a16.37,16.37,0,0,1,16.37,16.37V298.73" style="fill:#543254"/><polygon points="214.74 299.17 173.16 299.17 101.11 84.57 142.69 84.57 214.74 299.17" style="fill:#faf7f0"/><polygon points="269.04 299.17 227.46 299.17 155.41 84.57 196.98 84.57 269.04 299.17" style="fill:#faf7f0"/><rect x="353.79" y="232.12" width="127.17" height="195.07" rx="14.32" style="fill:#ff7be6"/><rect x="344.99" y="232.12" width="127.17" height="195.07" rx="14.32" style="fill:#fbd4ff"/><rect x="351.68" y="254.79" width="113.79" height="149.72" style="fill:#543254"/><path d="M410.09,420a5.8,5.8,0,1,1,5.79-5.79A5.8,5.8,0,0,1,410.09,420Zm0-10.75a5,5,0,1,0,5,5A5,5,0,0,0,410.09,409.26Z" style="fill:#543254"/><rect x="403.35" y="243.47" width="12.44" height="0.95" style="fill:#543254"/><polygon points="406.38 404.65 388.59 404.65 365.79 254.57 383.58 254.57 406.38 404.65" style="fill:#faf7f0"/><rect x="37.15" y="290.11" width="70.47" height="137.32" rx="8.94" style="fill:#ff7be6"/><rect x="31.05" y="290.11" width="70.47" height="137.32" rx="8.94" style="fill:#fbd4ff"/><rect x="34.75" y="306.07" width="63.06" height="105.4" style="fill:#543254"/><path d="M66.28,424.66A5.66,5.66,0,1,1,71.94,419,5.67,5.67,0,0,1,66.28,424.66Zm0-10.5A4.84,4.84,0,1,0,71.12,419,4.84,4.84,0,0,0,66.28,414.16Z" style="fill:#665168"/><rect x="60.2" y="298.08" width="12.15" height="0.93" style="fill:#665168"/><polygon points="83.2 412.01 65.41 412.01 42.61 306.06 60.4 306.06 83.2 412.01" style="fill:#faf7f0"/></g></svg>