<svg id="Flowchart" xmlns="http://www.w3.org/2000/svg" viewBox="0 0 512 512"><title>Flowchart</title><rect x="98.43" y="189.9" width="351.69" height="264.87" style="fill:#543254"/><path d="M92.39,416h321.9V149.56H61.88V387.39A30.68,30.68,0,0,0,92.39,416Z" style="fill:#33f2b2"/><polygon points="91.6 393.8 77.81 393.8 77.75 380.01 81.35 379.99 81.39 390.2 91.6 390.2 91.6 393.8" style="fill:#fff"/><path d="M352.23,393.8H326.17v-3.6h26.06Zm-52.13,0H274v-3.6H300.1Zm-52.12,0H221.91v-3.6H248Zm-52.13,0H169.79v-3.6h26.06Zm-52.13,0H117.66v-3.6h26.06Z" style="fill:#fff"/><polygon points="392.09 393.8 378.29 393.8 378.29 390.2 388.49 390.2 388.49 380 392.09 380 392.09 393.8" style="fill:#fff"/><path d="M392.09,358.4h-3.6V336.79h3.6Zm0-43.21h-3.6V293.58h3.6Zm0-43.21h-3.6V250.37h3.6Zm0-43.21h-3.6V207.16h3.6Z" style="fill:#fff"/><polygon points="392.09 185.56 388.49 185.56 388.49 175.36 378.29 175.36 378.29 171.76 392.09 171.76 392.09 185.56" style="fill:#fff"/><path d="M356.17,175.36H334v-3.6h22.13Zm-44.25,0H289.8v-3.6h22.12Zm-44.25,0H245.55v-3.6h22.12Zm-44.25,0H201.3v-3.6h22.12Zm-44.25,0H157.05v-3.6h22.12Zm-44.24,0H112.8v-3.6h22.13Z" style="fill:#fff"/><polygon points="76.93 185.57 76.87 171.76 90.68 171.76 90.68 175.36 80.48 175.36 80.53 185.55 76.93 185.57" style="fill:#fff"/><path d="M77.66,358.4l-.09-21.6,3.6,0,.09,21.61Zm-.19-43.21-.09-21.6,3.6,0,.09,21.61ZM77.29,272l-.09-21.6,3.6,0L80.89,272Zm-.18-43.21L77,207.17l3.6,0,.09,21.61Z" style="fill:#fff"/><rect x="109.28" y="214.02" width="253.51" height="4.8" transform="translate(16.75 449.79) rotate(-89.3)" style="fill:#fff"/><rect x="143.72" y="170.82" width="81.62" height="4.8" style="fill:#fff"/><rect x="256.42" y="260.88" width="81.62" height="4.8" style="fill:#fff"/><polygon points="284.42 288.89 324.01 220.32 363.6 288.89 284.42 288.89" style="fill:#ff9dea"/><rect x="195.46" y="57.23" width="78.06" height="51.35" style="fill:#fcdcff"/><polygon points="263.31 288.6 185.25 288.6 205.66 237.25 283.72 237.25 263.31 288.6" style="fill:#543254"/><polygon points="236.88 133.13 282.86 172.83 236.88 212.53 190.91 172.83 236.88 133.13" style="fill:#ff9dea"/><circle cx="141.48" cy="172.17" r="32.45" style="fill:#fcdcff"/><rect x="195.46" y="311.63" width="78.06" height="51.35" style="fill:#ff9dea"/><rect x="97.88" y="236.6" width="70.1" height="2.27" style="fill:#665168"/><rect x="97.88" y="243.01" width="70.1" height="2.27" style="fill:#665168"/><rect x="97.88" y="250.55" width="70.1" height="2.27" style="fill:#665168"/><rect x="97.88" y="258.1" width="70.1" height="2.27" style="fill:#665168"/><rect x="297.05" y="338.49" width="70.1" height="2.27" style="fill:#665168"/><rect x="297.05" y="344.89" width="70.1" height="2.27" style="fill:#665168"/><rect x="297.05" y="352.44" width="70.1" height="2.27" style="fill:#665168"/><rect x="297.05" y="359.99" width="70.1" height="2.27" style="fill:#665168"/><path d="M92.34,358.07H127V91.48H92.3a30.42,30.42,0,0,0-30.42,30.43V386.82A30.61,30.61,0,0,1,92.34,358.07Z" style="fill:#009b76"/></svg>