<svg xmlns="http://www.w3.org/2000/svg" viewBox="0 0 512 512"><title>Networking</title><g id="Networking"><circle cx="255.99" cy="255.53" r="76.95" transform="translate(-105.71 255.85) rotate(-45)" style="fill:#fff"/><path d="M167.41,414.37a1.11,1.11,0,0,1-.55-.15A181.89,181.89,0,0,1,74,258.76a1.11,1.11,0,0,1,1.09-1.13h0a1.11,1.11,0,0,1,1.12,1.09A179.69,179.69,0,0,0,168,412.28a1.12,1.12,0,0,1-.55,2.09Zm180-1.61a1.14,1.14,0,0,1-1-.55,1.12,1.12,0,0,1,.4-1.53,179.64,179.64,0,0,0,88.94-155.15c0-2.13,0-4.28-.11-6.4a1.12,1.12,0,0,1,2.23-.07c.07,2.14.11,4.32.11,6.47a181.91,181.91,0,0,1-90,157.08A1.15,1.15,0,0,1,347.36,412.76ZM161.86,102.18a1.12,1.12,0,0,1-.59-2.07A181.69,181.69,0,0,1,256,73.55h0a182.22,182.22,0,0,1,86.28,21.72,1.11,1.11,0,1,1-1.06,2A180,180,0,0,0,162.44,102,1.13,1.13,0,0,1,161.86,102.18Z" style="fill:#ff9dea"/><path d="M257.19,443,176.91,302.57,96.77,348.84l53.66-92.6L96.77,162.36l81,46.7L254.94,75.88l0,0L257.19,72v4.15l76.58,133.08,77.55-44.77a1.2,1.2,0,0,1,1.2,2.08L335,211.31l78.5,136.42L257.19,257.62ZM179,301.37,254.79,434V257.61ZM151.8,258.65l-48.45,83.62,72.37-41.78Zm106.57-3.11L406.94,341.2,332.89,212.51Zm-105.18.71,24.61,43,75.77-43.75-74.93-43.2Zm-49.94-87.38,48.57,85,24.74-42.7Zm76.59,41.39,74.95,43.21V80.93ZM257.19,81V253.45l74.5-43Z" style="fill:#ff9dea"/><path d="M256,439.7a1.16,1.16,0,0,1-.59-.16,1.22,1.22,0,0,1-.45-1.64l155.93-273A1.2,1.2,0,0,1,413,166.1L257,439.1A1.22,1.22,0,0,1,256,439.7Z" style="fill:#ff9dea"/><circle cx="255.99" cy="76.47" r="25.13" style="fill:#ff9dea"/><circle cx="256.01" cy="435.53" r="25.13" style="fill:#ff9dea"/><circle cx="410.21" cy="344.47" r="25.13" style="fill:#543254"/><circle cx="100.01" cy="165.62" r="25.13" style="fill:#543254"/><circle cx="411.33" cy="165.34" r="25.13" style="fill:#009b76"/><circle cx="100.45" cy="345.77" r="25.13" style="fill:#009b76"/><circle cx="255.99" cy="255.53" r="64.54" transform="translate(-50.3 447.91) rotate(-77.08)" style="fill:#33f2b2"/><path d="M256.91,191.07l-8.31,10-15,6.6-4.78,9.9a6.73,6.73,0,0,0,1.88,8.18h0a8.14,8.14,0,0,1,2.68,8.89l-1.12,3.48A18,18,0,0,0,243,260.55h0a30.29,30.29,0,0,1,8.86,20.84l0,1.76,6.86,13.46,14.14-13a31.72,31.72,0,0,0,9.87-18.6l.93-6.21a10,10,0,0,1,7.17-8.14h0a6.84,6.84,0,0,1,7.31,2.39l18.52,23.8a64.45,64.45,0,0,0-59.79-85.77Z" style="fill:#055139"/><path d="M225,288.92h0a34.26,34.26,0,0,1-.79-12.19l.81-7-6.35-3.3L191.5,254.17h0a64.27,64.27,0,0,0,23.89,51.4l.69-.07,5.92-5.91A11.23,11.23,0,0,0,225,288.92Z" style="fill:#055139"/><path d="M216.17,220.85h0a15.75,15.75,0,0,0-2.88-13.68h0a64.33,64.33,0,0,0-21.09,38.71l12.2-4.13,2.27-2.65A45.47,45.47,0,0,0,216.17,220.85Z" style="fill:#055139"/></g></svg>