<svg xmlns="http://www.w3.org/2000/svg" viewBox="0 0 512 512"><title>Responsive_design</title><g id="Responsive_design"><rect x="154.15" y="231.17" width="56.61" height="2.4" style="fill:#dedad5"/><rect x="154.15" y="237.17" width="56.61" height="2.4" style="fill:#dedad5"/><rect x="154.15" y="243.17" width="56.61" height="2.4" style="fill:#dedad5"/><rect x="154.15" y="249.17" width="56.61" height="2.4" style="fill:#dedad5"/><rect x="154.15" y="255.17" width="56.61" height="2.4" style="fill:#dedad5"/><rect x="154.15" y="261.17" width="56.61" height="2.4" style="fill:#dedad5"/><rect x="154.15" y="267.17" width="56.61" height="2.4" style="fill:#dedad5"/><rect x="154.15" y="273.17" width="56.61" height="2.4" style="fill:#dedad5"/><rect x="154.15" y="279.17" width="56.61" height="2.4" style="fill:#dedad5"/><rect x="154.15" y="285.17" width="56.61" height="2.4" style="fill:#dedad5"/><rect x="154.15" y="291.17" width="56.61" height="2.4" style="fill:#dedad5"/><rect x="154.15" y="297.17" width="56.61" height="2.4" style="fill:#dedad5"/><rect x="154.15" y="303.17" width="56.61" height="2.4" style="fill:#dedad5"/><rect x="154.15" y="309.17" width="56.61" height="2.4" style="fill:#dedad5"/><rect x="154.15" y="315.17" width="56.61" height="2.4" style="fill:#dedad5"/><rect x="154.15" y="321.17" width="56.61" height="2.4" style="fill:#dedad5"/><rect x="154.15" y="327.17" width="56.61" height="2.4" style="fill:#dedad5"/><rect x="154.15" y="333.17" width="56.61" height="2.4" style="fill:#dedad5"/><rect x="154.15" y="339.17" width="56.61" height="2.4" style="fill:#dedad5"/><rect x="154.15" y="345.17" width="56.61" height="2.4" style="fill:#dedad5"/><rect x="219.51" y="230.7" width="147.65" height="117.71" style="fill:#dedad5"/><path d="M135.49,181.53H408.8a14.92,14.92,0,0,1,14.92,14.92V368.93a0,0,0,0,1,0,0H120.58a0,0,0,0,1,0,0V196.44A14.92,14.92,0,0,1,135.49,181.53Z" style="fill:#543254"/><path d="M123.49,181.53H396.8a14.92,14.92,0,0,1,14.92,14.92V368.93a0,0,0,0,1,0,0H108.58a0,0,0,0,1,0,0V196.44A14.92,14.92,0,0,1,123.49,181.53Z" style="fill:#ff7be6"/><rect x="130.46" y="205.38" width="259.59" height="161.95" style="fill:#fff"/><path d="M78.57,367H423.73a0,0,0,0,1,0,0v1.29a23.85,23.85,0,0,1-23.85,23.85H102.42a23.85,23.85,0,0,1-23.85-23.85V367a0,0,0,0,1,0,0Z" style="fill:#543254"/><path d="M60.57,367H393.73a0,0,0,0,1,0,0v1.29a23.85,23.85,0,0,1-23.85,23.85H84.42a23.85,23.85,0,0,1-23.85-23.85V367A0,0,0,0,1,60.57,367Z" style="fill:#fbd4ff"/><circle cx="256.71" cy="194.33" r="5.07" transform="translate(-21.07 357.13) rotate(-67.5)" style="fill:#543254"/><rect x="364.72" y="186.65" width="28" height="38.14" style="fill:#dedad5"/><rect x="348.56" y="186.65" width="12.59" height="38.14" style="fill:#dedad5"/><rect x="347.99" y="228.04" width="43.41" height="1.2" style="fill:#dedad5"/><rect x="347.99" y="231.64" width="43.41" height="1.2" style="fill:#dedad5"/><rect x="347.99" y="235.24" width="43.41" height="1.2" style="fill:#dedad5"/><rect x="347.99" y="238.84" width="43.41" height="1.2" style="fill:#dedad5"/><rect x="347.99" y="242.44" width="43.41" height="1.2" style="fill:#dedad5"/><rect x="347.99" y="246.04" width="43.41" height="1.2" style="fill:#dedad5"/><rect x="347.99" y="228.04" width="43.41" height="1.2" style="fill:#dedad5"/><rect x="347.99" y="231.64" width="43.41" height="1.2" style="fill:#dedad5"/><rect x="347.99" y="235.24" width="43.41" height="1.2" style="fill:#dedad5"/><rect x="347.99" y="238.84" width="43.41" height="1.2" style="fill:#dedad5"/><rect x="347.99" y="242.44" width="43.41" height="1.2" style="fill:#dedad5"/><rect x="347.99" y="246.04" width="43.41" height="1.2" style="fill:#dedad5"/><rect x="347.99" y="249.64" width="43.41" height="1.2" style="fill:#dedad5"/><rect x="347.99" y="253.24" width="43.41" height="1.2" style="fill:#dedad5"/><rect x="347.99" y="256.84" width="43.41" height="1.2" style="fill:#dedad5"/><rect x="347.99" y="260.44" width="43.41" height="1.2" style="fill:#dedad5"/><rect x="347.99" y="264.04" width="43.41" height="1.2" style="fill:#dedad5"/><rect x="347.99" y="267.64" width="43.41" height="1.2" style="fill:#dedad5"/><rect x="347.99" y="249.64" width="43.41" height="1.2" style="fill:#dedad5"/><rect x="347.99" y="253.24" width="43.41" height="1.2" style="fill:#dedad5"/><rect x="347.99" y="256.84" width="43.41" height="1.2" style="fill:#dedad5"/><rect x="347.99" y="260.44" width="43.41" height="1.2" style="fill:#dedad5"/><rect x="347.99" y="264.04" width="43.41" height="1.2" style="fill:#dedad5"/><rect x="347.99" y="267.64" width="43.41" height="1.2" style="fill:#dedad5"/><rect x="341.09" y="159.17" width="70.47" height="137.32" rx="8.94" style="fill:#543254"/><rect x="334.99" y="159.17" width="70.47" height="137.32" rx="8.94" style="fill:#fbd4ff"/><rect x="338.7" y="175.13" width="63.06" height="105.4" style="fill:#fff"/><path d="M370.23,293.72a5.67,5.67,0,1,1,5.66-5.67A5.67,5.67,0,0,1,370.23,293.72Zm0-10.51a4.85,4.85,0,1,0,4.84,4.84A4.85,4.85,0,0,0,370.23,283.21Z" style="fill:#543254"/><rect x="364.15" y="167.14" width="12.15" height="0.93" style="fill:#543254"/><line x1="165.56" y1="157.12" x2="177.56" y2="157.12" style="fill:none;stroke:#33f2b2;stroke-miterlimit:10;stroke-width:3px"/><line x1="202.43" y1="157.12" x2="388.93" y2="157.12" style="fill:none;stroke:#33f2b2;stroke-miterlimit:10;stroke-width:3px;stroke-dasharray:20.72260093688965,20.72260093688965"/><polyline points="401.37 157.12 413.37 157.12 413.37 169.12" style="fill:none;stroke:#33f2b2;stroke-miterlimit:10;stroke-width:3px"/><line x1="413.37" y1="190.74" x2="413.37" y2="309.68" style="fill:none;stroke:#33f2b2;stroke-miterlimit:10;stroke-width:3px;stroke-dasharray:18.021099090576172,18.021099090576172"/><line x1="413.37" y1="320.49" x2="413.37" y2="332.49" style="fill:none;stroke:#33f2b2;stroke-miterlimit:10;stroke-width:3px"/><line x1="165.56" y1="121.12" x2="177.56" y2="121.12" style="fill:none;stroke:#33f2b2;stroke-miterlimit:10;stroke-width:3px"/><line x1="201.18" y1="121.12" x2="425.56" y2="121.12" style="fill:none;stroke:#33f2b2;stroke-miterlimit:10;stroke-width:3px;stroke-dasharray:19.682100296020508,19.682100296020508"/><polyline points="437.37 121.12 449.37 121.12 449.37 133.12" style="fill:none;stroke:#33f2b2;stroke-miterlimit:10;stroke-width:3px"/><line x1="449.37" y1="159.89" x2="449.37" y2="307.11" style="fill:none;stroke:#33f2b2;stroke-miterlimit:10;stroke-width:3px;stroke-dasharray:22.306800842285156,22.306800842285156"/><line x1="449.37" y1="320.49" x2="449.37" y2="332.49" style="fill:none;stroke:#33f2b2;stroke-miterlimit:10;stroke-width:3px"/><polygon points="111.17 170.53 107.57 170.53 107.57 119.47 158.63 119.47 158.63 123.07 111.17 123.07 111.17 170.53" style="fill:#60edb6"/><polygon points="451.43 392.53 400.37 392.53 400.37 388.93 447.83 388.93 447.83 341.47 451.43 341.47 451.43 392.53" style="fill:#60edb6"/><polygon points="439.43 380.53 412.37 380.53 412.37 376.93 435.83 376.93 435.83 353.47 439.43 353.47 439.43 380.53" style="fill:#60edb6"/><polygon points="123.17 158.53 119.57 158.53 119.57 131.47 146.63 131.47 146.63 135.07 123.17 135.07 123.17 158.53" style="fill:#60edb6"/><rect x="132.18" y="128.63" width="3.6" height="34.37" transform="translate(-63.84 136.89) rotate(-44.84)" style="fill:#60edb6"/><rect x="423.66" y="349.16" width="3.6" height="34.37" transform="translate(-134.54 406.56) rotate(-44.84)" style="fill:#60edb6"/></g></svg>