<svg xmlns="http://www.w3.org/2000/svg" viewBox="0 0 512 512"><title>Server</title><g id="Server"><rect x="183.05" y="96.34" width="243.96" height="319.33" style="fill:#543254"/><rect x="84.99" y="96.34" width="237.43" height="319.33" style="fill:#33f2b2"/><rect x="84.98" y="276.9" width="237.44" height="2.61" style="fill:#009b76"/><rect x="84.98" y="322.66" width="237.44" height="2.61" style="fill:#009b76"/><rect x="84.98" y="368.43" width="237.44" height="2.61" style="fill:#009b76"/><rect x="84.98" y="231.14" width="237.44" height="2.61" style="fill:#009b76"/><rect x="84.98" y="185.38" width="237.44" height="2.61" style="fill:#009b76"/><rect x="84.98" y="139.61" width="237.44" height="2.61" style="fill:#009b76"/><rect x="322.83" y="276.9" width="104.19" height="2.61" style="fill:#ff9dea"/><rect x="322.83" y="322.66" width="104.19" height="2.61" style="fill:#ff9dea"/><rect x="322.83" y="368.43" width="104.19" height="2.61" style="fill:#ff9dea"/><rect x="322.83" y="231.14" width="104.19" height="2.61" style="fill:#ff9dea"/><rect x="322.83" y="185.38" width="104.19" height="2.61" style="fill:#ff9dea"/><rect x="322.83" y="139.61" width="104.19" height="2.61" style="fill:#ff9dea"/><path d="M298.73,119a5.28,5.28,0,1,1-5.28-5.28A5.28,5.28,0,0,1,298.73,119Z" style="fill:#543254"/><path d="M279.12,119a5.29,5.29,0,1,1-5.28-5.28A5.28,5.28,0,0,1,279.12,119Z" style="fill:#543254"/><path d="M259.51,119a5.29,5.29,0,1,1-5.29-5.28A5.29,5.29,0,0,1,259.51,119Z" style="fill:#543254"/><path d="M298.73,164.81a5.28,5.28,0,1,1-5.28-5.29A5.28,5.28,0,0,1,298.73,164.81Z" style="fill:#543254"/><path d="M279.12,164.81a5.29,5.29,0,1,1-5.28-5.29A5.28,5.28,0,0,1,279.12,164.81Z" style="fill:#543254"/><path d="M259.51,164.81a5.29,5.29,0,1,1-5.29-5.29A5.29,5.29,0,0,1,259.51,164.81Z" style="fill:#543254"/><path d="M298.73,210.57a5.28,5.28,0,1,1-5.28-5.29A5.27,5.27,0,0,1,298.73,210.57Z" style="fill:#543254"/><path d="M279.12,210.57a5.29,5.29,0,1,1-5.28-5.29A5.27,5.27,0,0,1,279.12,210.57Z" style="fill:#543254"/><path d="M259.51,210.57a5.29,5.29,0,1,1-5.29-5.29A5.28,5.28,0,0,1,259.51,210.57Z" style="fill:#543254"/><path d="M298.73,256.33a5.28,5.28,0,1,1-5.28-5.28A5.28,5.28,0,0,1,298.73,256.33Z" style="fill:#543254"/><path d="M279.12,256.33a5.29,5.29,0,1,1-5.28-5.28A5.28,5.28,0,0,1,279.12,256.33Z" style="fill:#543254"/><path d="M259.51,256.33a5.29,5.29,0,1,1-5.29-5.28A5.29,5.29,0,0,1,259.51,256.33Z" style="fill:#543254"/><path d="M298.73,302.09a5.28,5.28,0,1,1-5.28-5.28A5.28,5.28,0,0,1,298.73,302.09Z" style="fill:#543254"/><path d="M279.12,302.09a5.29,5.29,0,1,1-5.28-5.28A5.28,5.28,0,0,1,279.12,302.09Z" style="fill:#543254"/><path d="M259.51,302.09a5.29,5.29,0,1,1-5.29-5.28A5.29,5.29,0,0,1,259.51,302.09Z" style="fill:#543254"/><path d="M298.73,347.86a5.28,5.28,0,1,1-5.28-5.29A5.27,5.27,0,0,1,298.73,347.86Z" style="fill:#543254"/><path d="M279.12,347.86a5.29,5.29,0,1,1-5.28-5.29A5.27,5.27,0,0,1,279.12,347.86Z" style="fill:#543254"/><path d="M259.51,347.86a5.29,5.29,0,1,1-5.29-5.29A5.28,5.28,0,0,1,259.51,347.86Z" style="fill:#543254"/><path d="M298.73,393.62a5.28,5.28,0,1,1-5.28-5.28A5.27,5.27,0,0,1,298.73,393.62Z" style="fill:#543254"/><path d="M279.12,393.62a5.29,5.29,0,1,1-5.28-5.28A5.27,5.27,0,0,1,279.12,393.62Z" style="fill:#543254"/><path d="M259.51,393.62a5.29,5.29,0,1,1-5.29-5.28A5.28,5.28,0,0,1,259.51,393.62Z" style="fill:#543254"/><rect x="183.13" y="118.02" width="44.82" height="1.96" style="fill:#543254"/><rect x="183.13" y="163.79" width="44.82" height="1.96" style="fill:#543254"/><rect x="183.13" y="209.55" width="44.82" height="1.96" style="fill:#543254"/><rect x="183.13" y="255.31" width="44.82" height="1.96" style="fill:#543254"/><rect x="183.13" y="301.07" width="44.82" height="1.96" style="fill:#543254"/><rect x="183.13" y="346.84" width="44.82" height="1.96" style="fill:#543254"/><rect x="183.13" y="392.6" width="44.82" height="1.96" style="fill:#543254"/></g></svg>