<svg xmlns="http://www.w3.org/2000/svg" viewBox="0 0 512 512"><title>UIUX_design</title><g id="UIUX_design"><path d="M426.43,194.09a1.2,1.2,0,1,0,0-2.4h-32v-45.6h32a1.2,1.2,0,0,0,0-2.4h-32v-32a1.2,1.2,0,0,0-2.4,0v32h-45.6v-32a1.2,1.2,0,1,0-2.4,0v32h-45.6v-32a1.2,1.2,0,1,0-2.4,0v32h-45.6v-32a1.2,1.2,0,0,0-2.4,0v32h-45.6v-32a1.2,1.2,0,0,0-2.4,0v32h-45.6v-32a1.2,1.2,0,0,0-2.4,0v32H120a1.2,1.2,0,1,0,0,2.4h32v45.6H120a1.2,1.2,0,1,0,0,2.4h32v45.6H120a1.2,1.2,0,1,0,0,2.4h32v45.6H120a1.2,1.2,0,0,0,0,2.4h32v45.6H120a1.2,1.2,0,0,0,0,2.4h32v45.6H120a1.2,1.2,0,0,0,0,2.4h32v32a1.2,1.2,0,0,0,2.4,0v-32H200v32a1.2,1.2,0,0,0,2.4,0v-32H248v32a1.2,1.2,0,0,0,2.4,0v-32H296v32a1.2,1.2,0,1,0,2.4,0v-32H344v32a1.2,1.2,0,1,0,2.4,0v-32H392v32a1.2,1.2,0,1,0,2.4,0v-32h32a1.2,1.2,0,0,0,0-2.4h-32v-45.6h32a1.2,1.2,0,0,0,0-2.4h-32v-45.6h32a1.2,1.2,0,0,0,0-2.4h-32v-45.6h32a1.2,1.2,0,1,0,0-2.4h-32v-45.6Zm-34.4-48v45.6h-45.6v-45.6Zm-48,0v45.6h-45.6v-45.6Zm-93.6,93.6v-45.6H296v45.6Zm45.6,2.4v45.6h-45.6v-45.6Zm-48-2.4h-45.6v-45.6H248Zm0,2.4v45.6h-45.6v-45.6Zm0,48v45.6h-45.6v-45.6Zm2.4,0H296v45.6h-45.6Zm48,0H344v45.6h-45.6Zm0-2.4v-45.6H344v45.6Zm0-48v-45.6H344v45.6Zm-2.4-93.6v45.6h-45.6v-45.6Zm-48,0v45.6h-45.6v-45.6Zm-93.6,0H200v45.6h-45.6Zm0,48H200v45.6h-45.6Zm0,48H200v45.6h-45.6Zm0,48H200v45.6h-45.6Zm0,93.6v-45.6H200v45.6Zm48,0v-45.6H248v45.6Zm48,0v-45.6H296v45.6Zm48,0v-45.6H344v45.6Zm93.6,0h-45.6v-45.6H392Zm0-48h-45.6v-45.6H392Zm0-48h-45.6v-45.6H392Zm0-48h-45.6v-45.6H392Z" style="fill:#33f2b2"/><path d="M407.16,304.27H380V71.19a13.57,13.57,0,0,1,13.57-13.57h0a13.57,13.57,0,0,1,13.57,13.57Z" style="fill:#543254"/><polygon points="407.18 304.33 393.59 365.96 380 304.33 407.18 304.33" style="fill:#fddcff"/><polygon points="388.13 341.21 393.59 365.96 399.05 341.21 388.13 341.21" style="fill:#543254"/><rect x="380.04" y="102.38" width="27.16" height="2.82" style="fill:#fddcff"/><path d="M84.37,276.45V454.38H262.31Zm34.7,80.81,62.6,62.6h-62.6Z" style="fill:#009b76"/><rect x="84.39" y="432.79" width="17.19" height="1.74" style="fill:#ff9dea"/><rect x="84.39" y="424.11" width="12.85" height="1.74" style="fill:#ff9dea"/><rect x="84.39" y="415.44" width="17.19" height="1.74" style="fill:#ff9dea"/><rect x="84.39" y="406.76" width="12.85" height="1.74" style="fill:#ff9dea"/><rect x="84.39" y="398.09" width="17.19" height="1.74" style="fill:#ff9dea"/><rect x="84.39" y="389.41" width="12.85" height="1.74" style="fill:#ff9dea"/><rect x="84.39" y="380.74" width="17.19" height="1.74" style="fill:#ff9dea"/><rect x="84.39" y="372.06" width="12.85" height="1.74" style="fill:#ff9dea"/><rect x="84.39" y="363.39" width="17.19" height="1.74" style="fill:#ff9dea"/><rect x="84.39" y="354.71" width="12.85" height="1.74" style="fill:#ff9dea"/><rect x="84.39" y="346.04" width="17.19" height="1.74" style="fill:#ff9dea"/><rect x="84.39" y="337.36" width="12.85" height="1.74" style="fill:#ff9dea"/><rect x="84.39" y="328.69" width="17.19" height="1.74" style="fill:#ff9dea"/><rect x="84.39" y="320.01" width="12.85" height="1.74" style="fill:#ff9dea"/><rect x="84.39" y="311.34" width="17.19" height="1.74" style="fill:#ff9dea"/><path d="M165.83,145.75H343.75a3.84,3.84,0,0,1,3.84,3.84v234a3,3,0,0,1-3,3H168.08a3,3,0,0,1-3-3V146.54A.79.79,0,0,1,165.83,145.75Z" style="fill:#543254"/><path d="M156.28,134.33H331.16a3.84,3.84,0,0,1,3.84,3.84v234a3,3,0,0,1-3,3H155.49a3,3,0,0,1-3-3v-234A3.84,3.84,0,0,1,156.28,134.33Z" style="fill:#fcdcff"/><path d="M156.17,134.33H331.28a3.72,3.72,0,0,1,3.72,3.72v17.38a0,0,0,0,1,0,0H152.44a0,0,0,0,1,0,0V138.05A3.72,3.72,0,0,1,156.17,134.33Z" style="fill:#ff9dea"/><rect x="282.03" y="228.77" width="34.22" height="20.74" style="fill:#fff"/><rect x="282.03" y="174.23" width="34.22" height="48.24" style="fill:#fff"/><rect x="286.01" y="276.3" width="32.74" height="81.66" style="fill:#fff"/><circle cx="163.63" cy="144.93" r="3.64" style="fill:#faf7f0"/><rect x="170.25" y="173.82" width="105.1" height="75.34" style="fill:#fff"/><rect x="170.25" y="307.3" width="105.1" height="50.54" style="fill:#bababa"/><circle cx="176.03" cy="144.93" r="3.64" style="fill:#faf7f0"/><circle cx="188.24" cy="144.93" r="3.64" style="fill:#faf7f0"/><rect x="168.6" y="260.96" width="150.16" height="2.16" style="fill:#543254"/><rect x="168.6" y="268.14" width="150.17" height="2.16" style="fill:#543254"/><rect x="168.6" y="275.32" width="106.64" height="2.16" style="fill:#543254"/><rect x="168.6" y="281.41" width="106.64" height="2.16" style="fill:#543254"/><rect x="168.6" y="288.59" width="106.65" height="2.16" style="fill:#543254"/><rect x="168.6" y="295.77" width="106.64" height="2.16" style="fill:#543254"/><polygon points="207.48 193.79 239.51 212.32 207.48 230.85 207.48 193.79" style="fill:#bababa"/></g></svg>