<svg xmlns="http://www.w3.org/2000/svg" viewBox="0 0 512 512"><title>Web_development</title><g id="Web_development"><path d="M231.21,383.79v71.84a22.83,22.83,0,0,1-3.42,11.89H186.35V478h25.38c-.46,0-.93.09-1.4.1v0H323.9c11.72,0,19.7-10.71,19.7-22.44V383.79Z" style="fill:#fde1ff"/><path d="M229.68,383.79v65.3a19.47,19.47,0,0,1-19.35,19.28v0H315.58a19.5,19.5,0,0,0,19.69-19.3v-65.3Z" style="fill:#ff9dea"/><rect x="71.89" y="93.63" width="435.68" height="316.07" rx="20.58" style="fill:#ff9dea"/><rect x="47.89" y="93.63" width="435.68" height="316.07" rx="20.58" style="fill:#fde1ff"/><path d="M47.89,361.53V114.22A20.58,20.58,0,0,1,68.47,93.63H463a20.59,20.59,0,0,1,20.58,20.59V361.53" style="fill:#543254"/><polygon points="264.26 361.52 212.32 361.52 122.32 93.45 174.26 93.45 264.26 361.52" style="fill:#faf7f0"/><polygon points="332.08 361.52 280.14 361.52 190.14 93.45 242.08 93.45 332.08 361.52" style="fill:#faf7f0"/><path d="M123.32,292.73a1.13,1.13,0,0,1-1.13-1.12V49.34a1.13,1.13,0,1,1,2.25,0V291.61A1.12,1.12,0,0,1,123.32,292.73Z" style="fill:#33f2b2"/><path d="M78.31,292.73a1.12,1.12,0,0,1-1.12-1.12V49.34a1.13,1.13,0,1,1,2.25,0V291.61A1.13,1.13,0,0,1,78.31,292.73Z" style="fill:#33f2b2"/><path d="M33.31,292.73a1.13,1.13,0,0,1-1.13-1.12V49.34a1.13,1.13,0,1,1,2.25,0V291.61A1.12,1.12,0,0,1,33.31,292.73Z" style="fill:#33f2b2"/><path d="M168.32,292.73a1.12,1.12,0,0,1-1.12-1.12V49.34a1.13,1.13,0,1,1,2.25,0V291.61A1.13,1.13,0,0,1,168.32,292.73Z" style="fill:#33f2b2"/><path d="M213.33,292.73a1.13,1.13,0,0,1-1.13-1.12V49.34a1.13,1.13,0,1,1,2.25,0V291.61A1.12,1.12,0,0,1,213.33,292.73Z" style="fill:#33f2b2"/><path d="M258.33,292.73a1.12,1.12,0,0,1-1.12-1.12V49.34a1.13,1.13,0,1,1,2.25,0V291.61A1.13,1.13,0,0,1,258.33,292.73Z" style="fill:#33f2b2"/><path d="M289.46,171.6H5.56a1.13,1.13,0,1,1,0-2.25h283.9a1.13,1.13,0,0,1,0,2.25Z" style="fill:#33f2b2"/><path d="M289.46,216.6H5.56a1.13,1.13,0,1,1,0-2.25h283.9a1.13,1.13,0,0,1,0,2.25Z" style="fill:#33f2b2"/><path d="M289.46,261.61H5.56a1.13,1.13,0,1,1,0-2.25h283.9a1.13,1.13,0,0,1,0,2.25Z" style="fill:#33f2b2"/><path d="M289.46,126.59H5.56a1.13,1.13,0,1,1,0-2.25h283.9a1.13,1.13,0,0,1,0,2.25Z" style="fill:#33f2b2"/><path d="M289.46,81.59H5.56a1.13,1.13,0,1,1,0-2.25h283.9a1.13,1.13,0,0,1,0,2.25Z" style="fill:#33f2b2"/><path d="M241.82,180.54H445.21a4.39,4.39,0,0,1,4.39,4.39V326.27a3.48,3.48,0,0,1-3.48,3.48H244.39a3.48,3.48,0,0,1-3.48-3.48V181.45A.91.91,0,0,1,241.82,180.54Z" style="fill:#009b76"/><path d="M230.91,167.49H430.81a4.39,4.39,0,0,1,4.39,4.39V313.22a3.48,3.48,0,0,1-3.48,3.48H230a3.48,3.48,0,0,1-3.48-3.48V171.88A4.39,4.39,0,0,1,230.91,167.49Z" style="fill:#fde1ff"/><path d="M230.77,167.49H430.95a4.26,4.26,0,0,1,4.26,4.26v19.87a0,0,0,0,1,0,0H226.52a0,0,0,0,1,0,0V171.75A4.26,4.26,0,0,1,230.77,167.49Z" style="fill:#ff9dea"/><rect x="246.25" y="211.78" width="39.12" height="23.7" style="fill:#fff"/><rect x="246.16" y="242.73" width="39.12" height="55.15" style="fill:#fff"/><rect x="293.73" y="210.27" width="120.14" height="86.12" style="fill:#fff"/><path d="M243.46,181a4.16,4.16,0,1,1-4.16-4.15A4.16,4.16,0,0,1,243.46,181Z" style="fill:#fff"/><circle cx="253.48" cy="180.98" r="4.16" style="fill:#fff"/><path d="M271.59,181a4.16,4.16,0,1,1-4.15-4.15A4.15,4.15,0,0,1,271.59,181Z" style="fill:#fff"/><polygon points="373.11 274.73 372.14 273.76 391.88 254.01 372.14 234.27 373.11 233.3 393.82 254.01 373.11 274.73" style="fill:#543254"/><polygon points="334.38 274.73 313.67 254.01 334.38 233.3 335.35 234.27 315.61 254.01 335.35 273.76 334.38 274.73" style="fill:#543254"/><rect x="327.36" y="253.02" width="44.16" height="1.37" transform="translate(-21.37 475) rotate(-66.81)" style="fill:#543254"/><rect x="252.33" y="249.38" width="27.59" height="1.37" style="fill:#bababa"/><rect x="252.33" y="253.5" width="27.59" height="1.37" style="fill:#bababa"/><rect x="252.33" y="257.61" width="27.59" height="1.37" style="fill:#bababa"/><rect x="252.33" y="261.73" width="27.59" height="1.37" style="fill:#bababa"/><rect x="252.33" y="265.84" width="27.59" height="1.37" style="fill:#bababa"/><rect x="252.33" y="269.96" width="27.59" height="1.37" style="fill:#bababa"/><rect x="252.33" y="274.07" width="27.59" height="1.37" style="fill:#bababa"/><rect x="252.33" y="278.19" width="27.59" height="1.37" style="fill:#bababa"/><rect x="252.33" y="282.3" width="27.59" height="1.37" style="fill:#bababa"/><rect x="252.33" y="286.42" width="27.59" height="1.37" style="fill:#bababa"/><rect x="252.33" y="290.53" width="27.59" height="1.37" style="fill:#bababa"/><path d="M449.94,91.5a11.06,11.06,0,0,1,10.05-11A60,60,0,0,0,450,58a11.06,11.06,0,0,1-15.72-15.09,60.08,60.08,0,0,0-22.41-9,11.06,11.06,0,0,1-21.6,0,60.2,60.2,0,0,0-22.42,9A11.05,11.05,0,0,1,352.12,58a60,60,0,0,0-10,22.47,11.06,11.06,0,0,1-.65,22.06,60,60,0,0,0,9.15,23.78c.08-.09.15-.18.23-.26a11.07,11.07,0,0,1,15.65,15.65l-.61.55A60.07,60.07,0,0,0,390,152.58a10.51,10.51,0,0,1-.06-1.12,11.07,11.07,0,1,1,22.13,0c0,.37,0,.75-.05,1.12a60,60,0,0,0,24.16-10.31c-.2-.18-.41-.36-.6-.55a11.07,11.07,0,1,1,15.65-15.65c.08.08.15.17.23.26a60,60,0,0,0,9.15-23.78A11.06,11.06,0,0,1,449.94,91.5Zm-48.89,29.27A26.65,26.65,0,1,1,427.7,94.12,26.65,26.65,0,0,1,401.05,120.77Z" style="fill:#33f2b2"/><path d="M344.32,109.09A5.27,5.27,0,0,1,344,102,28.52,28.52,0,0,0,333,97.79a5.27,5.27,0,0,1-10.38.21,28.5,28.5,0,0,0-10.59,4.53,5.27,5.27,0,0,1-7.28,7.28,28.48,28.48,0,0,0-4.52,10.59,5.27,5.27,0,0,1-.22,10.38,28.58,28.58,0,0,0,4.2,10.95,5.27,5.27,0,0,1,7.22,7.66,28.51,28.51,0,0,0,11.1,4.93s0-.11,0-.16a5.28,5.28,0,1,1,10.55,0c0,.13,0,.26,0,.39a28.74,28.74,0,0,0,11.63-4.67c-.14-.12-.27-.23-.4-.36a5.28,5.28,0,1,1,7.46-7.46,4.38,4.38,0,0,1,.36.39,28.64,28.64,0,0,0,4.67-11.62l-.39,0a5.28,5.28,0,0,1,0-10.55h.16a28.41,28.41,0,0,0-4.93-11.11A5.26,5.26,0,0,1,344.32,109.09Zm-6.62,26.35a12.7,12.7,0,1,1,0-18A12.7,12.7,0,0,1,337.7,135.44Z" style="fill:#009b76"/><path d="M109.46,210.12h27.15V420.4A13.57,13.57,0,0,1,123,434h0a13.57,13.57,0,0,1-13.58-13.57Z" style="fill:#055139"/><polygon points="109.45 210.07 123.04 148.44 136.63 210.07 109.45 210.07" style="fill:#fde1ff"/><polygon points="128.5 173.19 123.04 148.44 117.58 173.19 128.5 173.19" style="fill:#055139"/><rect x="109.43" y="386.39" width="27.16" height="2.82" style="fill:#ff9dea"/></g></svg>