<svg xmlns="http://www.w3.org/2000/svg" viewBox="0 0 512 512"><title>Web_browser</title><g id="Web_browser"><path d="M165.56,95.14H411.83a5.31,5.31,0,0,1,5.31,5.31V271.59a4.21,4.21,0,0,1-4.21,4.21H168.68a4.21,4.21,0,0,1-4.21-4.21V96.24A1.1,1.1,0,0,1,165.56,95.14Z" style="fill:#009b76"/><path d="M152.35,79.34H394.4a5.31,5.31,0,0,1,5.31,5.31V255.79A4.21,4.21,0,0,1,395.5,260H151.25a4.21,4.21,0,0,1-4.21-4.21V84.65A5.31,5.31,0,0,1,152.35,79.34Z" style="fill:#fbd7ff"/><path d="M152.19,79.34H394.56a5.15,5.15,0,0,1,5.15,5.15v24.05a0,0,0,0,1,0,0H147a0,0,0,0,1,0,0V84.49A5.15,5.15,0,0,1,152.19,79.34Z" style="fill:#543254"/><rect x="170.93" y="132.97" width="47.37" height="28.7" style="fill:#fff"/><rect x="170.82" y="170.44" width="47.37" height="66.77" style="fill:#fff"/><rect x="228.42" y="131.14" width="145.47" height="104.28" style="fill:#fff"/><path d="M167.55,95.67a5,5,0,1,1-5-5A5,5,0,0,1,167.55,95.67Z" style="fill:#fff"/><path d="M184.71,95.67a5,5,0,1,1-5-5A5,5,0,0,1,184.71,95.67Z" style="fill:#fff"/><path d="M201.62,95.67a5,5,0,1,1-5-5A5,5,0,0,1,201.62,95.67Z" style="fill:#fff"/><path d="M109.25,142.83H485.31a20.52,20.52,0,0,1,20.52,20.52V400.69a0,0,0,0,1,0,0H88.73a0,0,0,0,1,0,0V163.35A20.52,20.52,0,0,1,109.25,142.83Z" style="fill:#543254"/><path d="M92.74,142.83H468.8a20.52,20.52,0,0,1,20.52,20.52V400.69a0,0,0,0,1,0,0H72.22a0,0,0,0,1,0,0V163.35A20.52,20.52,0,0,1,92.74,142.83Z" style="fill:#ff7be6"/><rect x="102.32" y="175.65" width="357.18" height="222.84" style="fill:#fff"/><path d="M30.92,398.07H505.84a0,0,0,0,1,0,0v1.78A32.82,32.82,0,0,1,473,432.66H63.74a32.82,32.82,0,0,1-32.82-32.82v-1.78a0,0,0,0,1,0,0Z" style="fill:#543254"/><path d="M6.16,398.07H464.57a0,0,0,0,1,0,0v1.78a32.82,32.82,0,0,1-32.82,32.82H39A32.82,32.82,0,0,1,6.16,399.84v-1.78A0,0,0,0,1,6.16,398.07Z" style="fill:#ff9dea"/><rect x="134.92" y="211.13" width="77.9" height="3.3" style="fill:#dedad5"/><rect x="134.92" y="219.38" width="77.9" height="3.3" style="fill:#dedad5"/><rect x="134.92" y="227.64" width="77.9" height="3.3" style="fill:#dedad5"/><rect x="134.92" y="235.9" width="77.9" height="3.3" style="fill:#dedad5"/><rect x="134.92" y="244.15" width="77.9" height="3.3" style="fill:#dedad5"/><rect x="134.92" y="252.41" width="77.9" height="3.3" style="fill:#dedad5"/><rect x="134.92" y="260.66" width="77.9" height="3.3" style="fill:#dedad5"/><rect x="134.92" y="268.92" width="77.9" height="3.3" style="fill:#dedad5"/><rect x="134.92" y="277.17" width="77.9" height="3.3" style="fill:#dedad5"/><rect x="134.92" y="285.43" width="77.9" height="3.3" style="fill:#dedad5"/><rect x="134.92" y="293.69" width="77.9" height="3.3" style="fill:#dedad5"/><rect x="134.92" y="301.94" width="77.9" height="3.3" style="fill:#dedad5"/><rect x="134.92" y="310.2" width="77.9" height="3.3" style="fill:#dedad5"/><rect x="134.92" y="318.45" width="77.9" height="3.3" style="fill:#dedad5"/><rect x="134.92" y="326.71" width="77.9" height="3.3" style="fill:#dedad5"/><rect x="134.92" y="334.96" width="77.9" height="3.3" style="fill:#dedad5"/><rect x="134.92" y="343.22" width="77.9" height="3.3" style="fill:#dedad5"/><rect x="134.92" y="351.48" width="77.9" height="3.3" style="fill:#dedad5"/><rect x="134.92" y="359.73" width="77.9" height="3.3" style="fill:#dedad5"/><rect x="134.92" y="367.99" width="77.9" height="3.3" style="fill:#dedad5"/><rect x="224.85" y="210.49" width="203.17" height="161.97" style="fill:#dedad5"/><rect x="269.15" y="255.67" width="162.6" height="121.16" style="fill:#fff"/><rect x="283.33" y="272.59" width="144.26" height="100.06" style="fill:#dedad5"/><circle cx="279.7" cy="267.7" r="89.23" transform="translate(-107.37 276.18) rotate(-45)" style="fill:#33f2b2"/><path d="M281.21,178.59l-11.49,13.88L249,201.6l-6.6,13.67A9.28,9.28,0,0,0,245,226.58h0a11.3,11.3,0,0,1,3.72,12.3l-1.56,4.8A24.92,24.92,0,0,0,262,274.63h0a41.88,41.88,0,0,1,12.24,28.82l0,2.43,9.49,18.61,19.54-18A43.74,43.74,0,0,0,317,280.8l1.29-8.59a13.86,13.86,0,0,1,9.9-11.26h0a9.51,9.51,0,0,1,10.12,3.3l25.6,32.92a89.11,89.11,0,0,0-82.66-118.58Z" style="fill:#055139"/><path d="M236.8,313.85h0A47,47,0,0,1,235.7,297l1.12-9.74-8.77-4.56-37.5-16.89h0a88.85,88.85,0,0,0,33,71.06l1-.1,8.17-8.17A15.55,15.55,0,0,0,236.8,313.85Z" style="fill:#055139"/><path d="M224.66,219.76h0a21.81,21.81,0,0,0-4-18.91h0a89,89,0,0,0-29.17,53.5l16.87-5.7,3.14-3.66A62.86,62.86,0,0,0,224.66,219.76Z" style="fill:#055139"/><path d="M176.51,380.09l-.16-.12L149,358.72V291a7,7,0,0,0-6.95-7H14.26a7,7,0,0,0-6.94,7v75a14,14,0,0,0,14,14Z" style="fill:#543254"/><rect x="48.12" y="305.55" width="81.83" height="3.85" style="fill:#fff"/><rect x="24.12" y="305.55" width="19.43" height="3.85" style="fill:#fff"/><rect x="24.12" y="313.8" width="105.83" height="3.85" style="fill:#fff"/><rect x="24.12" y="322.06" width="105.83" height="3.85" style="fill:#fff"/><rect x="24.12" y="330.31" width="105.83" height="3.85" style="fill:#fff"/><rect x="24.12" y="338.57" width="105.83" height="3.85" style="fill:#fff"/><rect x="24.12" y="346.83" width="105.83" height="3.85" style="fill:#fff"/><rect x="94.92" y="355.08" width="35.03" height="3.85" style="fill:#fff"/><rect x="24.12" y="355.08" width="66.23" height="3.85" style="fill:#fff"/><rect x="7.23" y="198.21" width="102.23" height="75.27" rx="15.79" style="fill:#055139"/><polygon points="43.84 218.4 76.94 236.6 43.84 254.81 43.84 218.4" style="fill:#faf7f0"/></g></svg>