<svg xmlns="http://www.w3.org/2000/svg" viewBox="0 0 512 512"><title>WWW</title><g id="WWW"><path d="M226.18,229.58H466a16.48,16.48,0,0,1,16.48,16.48V457.11a0,0,0,0,1,0,0H226.18a0,0,0,0,1,0,0V229.58A0,0,0,0,1,226.18,229.58Z" style="fill:#33f2b2"/><rect x="321.8" y="318.18" width="138.91" height="117.15" style="fill:#fff"/><rect x="331.68" y="326.78" width="120.42" height="31.91" style="fill:#dedad5"/><rect x="331.62" y="363.31" width="65" height="64.19" style="fill:#dedad5"/><path d="M226.18,229.58H466a16.48,16.48,0,0,1,16.48,16.48v13.51a0,0,0,0,1,0,0H226.18a0,0,0,0,1,0,0v-30A0,0,0,0,1,226.18,229.58Z" style="fill:#009b76"/><rect x="249.03" y="389.32" width="56.61" height="2.4" style="fill:#dedad5"/><rect x="249.03" y="395.32" width="56.61" height="2.4" style="fill:#dedad5"/><rect x="249.03" y="401.32" width="56.61" height="2.4" style="fill:#dedad5"/><rect x="249.03" y="407.32" width="56.61" height="2.4" style="fill:#dedad5"/><rect x="249.03" y="413.32" width="56.61" height="2.4" style="fill:#dedad5"/><rect x="249.03" y="419.32" width="56.61" height="2.4" style="fill:#dedad5"/><rect x="249.03" y="425.32" width="56.61" height="2.4" style="fill:#dedad5"/><rect x="249.03" y="431.32" width="56.61" height="2.4" style="fill:#dedad5"/><rect x="348.36" y="275.7" width="113.01" height="2.4" style="fill:#dedad5"/><rect x="348.36" y="281.7" width="113.01" height="2.4" style="fill:#dedad5"/><rect x="348.36" y="287.7" width="113.01" height="2.4" style="fill:#dedad5"/><rect x="348.36" y="293.7" width="113.01" height="2.4" style="fill:#dedad5"/><rect x="348.36" y="299.7" width="113.01" height="2.4" style="fill:#dedad5"/><rect x="348.36" y="305.7" width="113.01" height="2.4" style="fill:#dedad5"/><rect x="402.74" y="382.68" width="48.21" height="2.4" style="fill:#dedad5"/><rect x="402.74" y="388.68" width="48.21" height="2.4" style="fill:#dedad5"/><rect x="402.74" y="394.68" width="48.21" height="2.4" style="fill:#dedad5"/><rect x="402.74" y="400.68" width="48.21" height="2.4" style="fill:#dedad5"/><rect x="402.74" y="406.68" width="48.21" height="2.4" style="fill:#dedad5"/><rect x="402.74" y="412.68" width="48.21" height="2.4" style="fill:#dedad5"/><rect x="402.74" y="418.68" width="48.21" height="2.4" style="fill:#dedad5"/><rect x="402.74" y="424.68" width="48.21" height="2.4" style="fill:#dedad5"/><path d="M359,229.36a155.9,155.9,0,0,0-8.4-51.59H191.86a40.14,40.14,0,0,0-40.14,40.14V375.72a155.77,155.77,0,0,0,51.88,8.64C288.78,384.06,358.49,314.54,359,229.36Z" style="fill:#33f2b2"/><path d="M323.62,327a155.62,155.62,0,0,0,27-149.27H191.86a40.14,40.14,0,0,0-40.14,40.14V327Z" style="fill:#009b76"/><path d="M216.2,284.63l10.33-46.77h.37l-10.55,47.8h-.3l-10.33-46.84L195.4,285.66h-.23l-10.55-47.8H185l10.26,46.77,10.33-46.77h.29Z" style="fill:none;stroke:#543254;stroke-miterlimit:10"/><path d="M263.34,284.63l10.32-46.77H274l-10.55,47.8h-.29l-10.33-46.84-10.33,46.84h-.22l-10.55-47.8h.37l10.25,46.77,10.33-46.77h.3Z" style="fill:none;stroke:#543254;stroke-miterlimit:10"/><path d="M310.47,284.63l10.33-46.77h.37l-10.55,47.8h-.3L300,238.82l-10.32,46.84h-.22l-10.55-47.8h.36l10.26,46.77,10.33-46.77h.29Z" style="fill:none;stroke:#543254;stroke-miterlimit:10"/><path d="M203,401.87c-95.67,0-173.49-77.83-173.49-173.49S107.37,54.89,203,54.89s173.49,77.83,173.49,173.49S298.7,401.87,203,401.87Zm0-312C126.68,89.9,64.55,152,64.55,228.38S126.68,366.86,203,366.86s138.48-62.12,138.48-138.48S279.4,89.9,203,89.9Z" style="fill:#543254"/><path d="M203,90.39a138,138,0,1,1-97.57,40.42A137.1,137.1,0,0,1,203,90.39m0-18a156,156,0,1,0,156,156,156,156,0,0,0-156-156Z" style="fill:#805082"/><path d="M203.44,361.55c-72.33,0-131.17-58.85-131.17-131.17A131.32,131.32,0,0,1,203.44,99.21c72.32,0,131.17,58.84,131.17,131.17S275.76,361.55,203.44,361.55Zm0-260a128.81,128.81,0,1,0,128.8,128.81A129,129,0,0,0,203.44,101.57Z" style="fill:#faf7f0"/><path d="M85.45,231.56a1.18,1.18,0,0,1-1.18-1.18A119.31,119.31,0,0,1,203.44,111.21a1.18,1.18,0,0,1,0,2.36A116.94,116.94,0,0,0,86.63,230.38,1.18,1.18,0,0,1,85.45,231.56Z" style="fill:#faf7f0"/></g></svg>