<svg xmlns="http://www.w3.org/2000/svg" xmlns:xlink="http://www.w3.org/1999/xlink" viewBox="0 0 512 512"><defs><linearGradient id="linear-gradient" x1="249.68" y1="294.97" x2="249.68" y2="440.98" gradientUnits="userSpaceOnUse"><stop offset="0" stop-color="#ff9dea"/><stop offset="0.22" stop-color="#ffa5ed"/><stop offset="0.57" stop-color="#febcf4"/><stop offset="1" stop-color="#fde1ff"/></linearGradient><linearGradient id="linear-gradient-2" x1="167.97" y1="290.8" x2="167.97" y2="418.1" xlink:href="#linear-gradient"/><linearGradient id="linear-gradient-3" x1="328.12" y1="244.12" x2="328.12" y2="371.42" xlink:href="#linear-gradient"/><linearGradient id="linear-gradient-4" x1="107.37" y1="188.67" x2="475.35" y2="188.67" gradientUnits="userSpaceOnUse"><stop offset="0" stop-color="#9de7db"/><stop offset="0.02" stop-color="#afe7da"/><stop offset="1" stop-color="#33f2b2"/></linearGradient><linearGradient id="linear-gradient-5" x1="36.65" y1="188.69" x2="404.63" y2="188.69" gradientUnits="userSpaceOnUse"><stop offset="0" stop-color="#7b78ab"/><stop offset="0.03" stop-color="#7672a2"/><stop offset="0.13" stop-color="#655f83"/><stop offset="0.24" stop-color="#574e6a"/><stop offset="0.36" stop-color="#4c4256"/><stop offset="0.51" stop-color="#453948"/><stop offset="0.68" stop-color="#403440"/><stop offset="1" stop-color="#3f323e"/></linearGradient></defs><title>Cloud_Computing</title><g id="Cloud_Computing"><path d="M274.71,405.57V366.34a47.1,47.1,0,0,0-46.6-47V295h-3.93v53.52a17.74,17.74,0,1,0,3.93,0V323.22a43.17,43.17,0,0,1,42.67,43.12v39.35a17.72,17.72,0,1,0,3.93-.12Zm-34.8-39.45a13.81,13.81,0,1,1-13.81-13.81A13.82,13.82,0,0,1,239.91,366.12Zm33.35,70.93a13.81,13.81,0,1,1,13.81-13.81A13.83,13.83,0,0,1,273.26,437.05Z" style="fill:url(#linear-gradient)"/><path d="M169.86,382.72V290.8h-3.93v91.94a17.73,17.73,0,1,0,3.93,0ZM168,414.17a13.81,13.81,0,1,1,13.81-13.81A13.82,13.82,0,0,1,168,414.17Z" style="fill:url(#linear-gradient-2)"/><path d="M330,336V244.12h-3.93v91.94a17.73,17.73,0,1,0,3.93,0Zm-1.89,31.45a13.82,13.82,0,1,1,13.81-13.81A13.83,13.83,0,0,1,328.12,367.49Z" style="fill:url(#linear-gradient-3)"/><path d="M391.13,143.18a85.33,85.33,0,0,0-15.26,1.4,87.51,87.51,0,0,0-86.29-73.09c-1.67,0-3.33.06-5,.16l-69.22-.19L212,118.51a87.07,87.07,0,0,0-7.16,18.58c-.6,0-1.2-.05-1.81-.05-23.84,0-43.17,20.27-43.17,45.27a48.1,48.1,0,0,0,.81,8.72,58.17,58.17,0,0,0-53.3,58c0,.77,0,1.55,0,2.32,1.21,30.68,27.19,54.58,57.9,54.58H407.45A57.44,57.44,0,0,0,442.65,294a84.2,84.2,0,0,0-51.52-150.82Z" style="fill:url(#linear-gradient-4)"/><path d="M94.59,305.89H336.73A57.44,57.44,0,0,0,371.93,294a84.2,84.2,0,0,0-51.52-150.82,85.25,85.25,0,0,0-15.26,1.4,87.51,87.51,0,0,0-171-7.49c-.6,0-1.2-.05-1.81-.05-23.84,0-43.17,20.27-43.17,45.27A47.22,47.22,0,0,0,90,191a58.17,58.17,0,0,0-53.3,58c0,.77,0,1.55,0,2.32C37.9,282,63.88,305.89,94.59,305.89Z" style="fill:url(#linear-gradient-5)"/><path d="M405.9,230.67H358.48a17.68,17.68,0,1,0,0,3.93H405.9Zm-65,15.85a13.81,13.81,0,1,1,13.81-13.81A13.82,13.82,0,0,1,340.87,246.52Z" style="fill:#33f2b2"/><path d="M220.81,124.53V71h-3.93V95.34a47.1,47.1,0,0,0-46.61,47v39.24a17.77,17.77,0,1,0,3.93.12V142.38a43.17,43.17,0,0,1,42.68-43.11v25.27a17.74,17.74,0,1,0,3.93,0Zm-35.27,74.75a13.82,13.82,0,1,1-13.82-13.81A13.84,13.84,0,0,1,185.54,199.28ZM218.88,156a13.82,13.82,0,1,1,13.82-13.82A13.83,13.83,0,0,1,218.88,156Z" style="fill:#33f2b2"/></g></svg>