<svg xmlns="http://www.w3.org/2000/svg" xmlns:xlink="http://www.w3.org/1999/xlink" viewBox="0 0 512 512"><defs><linearGradient id="linear-gradient" x1="155.23" y1="172.32" x2="363.92" y2="172.32" gradientUnits="userSpaceOnUse"><stop offset="0" stop-color="#7b78ab"/><stop offset="0.21" stop-color="#666086"/><stop offset="0.42" stop-color="#554c67"/><stop offset="0.63" stop-color="#493e50"/><stop offset="0.82" stop-color="#423543"/><stop offset="1" stop-color="#3f323e"/></linearGradient><linearGradient id="linear-gradient-2" x1="140.84" y1="159.27" x2="349.53" y2="159.27" gradientUnits="userSpaceOnUse"><stop offset="0" stop-color="#fda1e8"/><stop offset="1" stop-color="#fde1ff"/></linearGradient><linearGradient id="linear-gradient-3" x1="140.84" y1="96.73" x2="349.53" y2="96.73" gradientUnits="userSpaceOnUse"><stop offset="0" stop-color="#ff9dea"/><stop offset="1" stop-color="#e46f8b"/></linearGradient><linearGradient id="linear-gradient-4" x1="199.7" y1="140.81" x2="160.58" y2="140.81" gradientUnits="userSpaceOnUse"><stop offset="0" stop-color="#fff" stop-opacity="0"/><stop offset="0.04" stop-color="#fff" stop-opacity="0.13"/><stop offset="0.1" stop-color="#fff" stop-opacity="0.31"/><stop offset="0.16" stop-color="#fff" stop-opacity="0.48"/><stop offset="0.24" stop-color="#fff" stop-opacity="0.62"/><stop offset="0.31" stop-color="#fff" stop-opacity="0.74"/><stop offset="0.39" stop-color="#fff" stop-opacity="0.83"/><stop offset="0.49" stop-color="#fff" stop-opacity="0.91"/><stop offset="0.59" stop-color="#fff" stop-opacity="0.96"/><stop offset="0.73" stop-color="#fff" stop-opacity="0.99"/><stop offset="1" stop-color="#fff"/></linearGradient><linearGradient id="linear-gradient-5" x1="199.6" y1="187.48" x2="160.48" y2="187.48" xlink:href="#linear-gradient-4"/><linearGradient id="linear-gradient-6" x1="328.2" y1="170.51" x2="208.05" y2="170.51" xlink:href="#linear-gradient-4"/><linearGradient id="linear-gradient-7" x1="194.24" y1="167.25" x2="166.65" y2="167.25" gradientUnits="userSpaceOnUse"><stop offset="0" stop-color="#fff" stop-opacity="0"/><stop offset="0.02" stop-color="#fafafa" stop-opacity="0.07"/><stop offset="0.09" stop-color="#ebebeb" stop-opacity="0.28"/><stop offset="0.17" stop-color="#dedede" stop-opacity="0.48"/><stop offset="0.25" stop-color="#d3d3d3" stop-opacity="0.64"/><stop offset="0.34" stop-color="#cacaca" stop-opacity="0.77"/><stop offset="0.44" stop-color="#c3c3c3" stop-opacity="0.87"/><stop offset="0.56" stop-color="#bebebe" stop-opacity="0.95"/><stop offset="0.71" stop-color="#bbb" stop-opacity="0.99"/><stop offset="1" stop-color="#bababa"/></linearGradient><linearGradient id="linear-gradient-8" x1="194.24" y1="171.36" x2="166.65" y2="171.36" xlink:href="#linear-gradient-7"/><linearGradient id="linear-gradient-9" x1="194.24" y1="175.48" x2="166.65" y2="175.48" xlink:href="#linear-gradient-7"/><linearGradient id="linear-gradient-10" x1="194.24" y1="179.59" x2="166.65" y2="179.59" xlink:href="#linear-gradient-7"/><linearGradient id="linear-gradient-11" x1="194.24" y1="183.71" x2="166.65" y2="183.71" xlink:href="#linear-gradient-7"/><linearGradient id="linear-gradient-12" x1="194.24" y1="187.82" x2="166.65" y2="187.82" xlink:href="#linear-gradient-7"/><linearGradient id="linear-gradient-13" x1="194.24" y1="191.94" x2="166.65" y2="191.94" xlink:href="#linear-gradient-7"/><linearGradient id="linear-gradient-14" x1="194.24" y1="196.05" x2="166.65" y2="196.05" xlink:href="#linear-gradient-7"/><linearGradient id="linear-gradient-15" x1="194.24" y1="200.17" x2="166.65" y2="200.17" xlink:href="#linear-gradient-7"/><linearGradient id="linear-gradient-16" x1="194.24" y1="204.28" x2="166.65" y2="204.28" xlink:href="#linear-gradient-7"/><linearGradient id="linear-gradient-17" x1="194.24" y1="208.4" x2="166.65" y2="208.4" xlink:href="#linear-gradient-7"/><linearGradient id="linear-gradient-18" x1="156.46" y1="182.52" x2="156.46" y2="132.71" gradientUnits="userSpaceOnUse"><stop offset="0" stop-color="#c8e7db"/><stop offset="0.1" stop-color="#a0ead0"/><stop offset="0.21" stop-color="#7fecc7"/><stop offset="0.33" stop-color="#63eebf"/><stop offset="0.46" stop-color="#4ef0b9"/><stop offset="0.59" stop-color="#3ff1b5"/><stop offset="0.76" stop-color="#36f2b3"/><stop offset="1" stop-color="#33f2b2"/></linearGradient><linearGradient id="linear-gradient-19" x1="187.23" y1="183.9" x2="187.23" y2="127.75" xlink:href="#linear-gradient-18"/><linearGradient id="linear-gradient-20" x1="218" y1="182.52" x2="218" y2="132.71" xlink:href="#linear-gradient-18"/><linearGradient id="linear-gradient-21" x1="56.46" y1="183.9" x2="56.46" y2="127.75" xlink:href="#linear-gradient-18"/><linearGradient id="linear-gradient-22" x1="87.23" y1="182.52" x2="87.23" y2="132.71" xlink:href="#linear-gradient-18"/><linearGradient id="linear-gradient-23" x1="118" y1="183.9" x2="118" y2="127.75" xlink:href="#linear-gradient-18"/><linearGradient id="linear-gradient-24" x1="194.92" y1="244.06" x2="194.92" y2="194.25" xlink:href="#linear-gradient-18"/><linearGradient id="linear-gradient-25" x1="225.69" y1="245.44" x2="225.69" y2="189.29" xlink:href="#linear-gradient-18"/><linearGradient id="linear-gradient-26" x1="64.15" y1="244.06" x2="64.15" y2="194.25" xlink:href="#linear-gradient-18"/><linearGradient id="linear-gradient-27" x1="94.92" y1="245.44" x2="94.92" y2="189.29" xlink:href="#linear-gradient-18"/><linearGradient id="linear-gradient-28" x1="125.69" y1="244.06" x2="125.69" y2="194.25" xlink:href="#linear-gradient-18"/><linearGradient id="linear-gradient-29" x1="156.46" y1="245.44" x2="156.46" y2="189.29" xlink:href="#linear-gradient-18"/><linearGradient id="linear-gradient-30" x1="164.15" y1="305.6" x2="164.15" y2="255.79" xlink:href="#linear-gradient-18"/><linearGradient id="linear-gradient-31" x1="194.92" y1="306.98" x2="194.92" y2="250.83" xlink:href="#linear-gradient-18"/><linearGradient id="linear-gradient-32" x1="225.69" y1="305.6" x2="225.69" y2="255.79" xlink:href="#linear-gradient-18"/><linearGradient id="linear-gradient-33" x1="64.15" y1="306.98" x2="64.15" y2="250.83" xlink:href="#linear-gradient-18"/><linearGradient id="linear-gradient-34" x1="94.92" y1="305.6" x2="94.92" y2="255.79" xlink:href="#linear-gradient-18"/><linearGradient id="linear-gradient-35" x1="125.69" y1="306.98" x2="125.69" y2="250.88" xlink:href="#linear-gradient-18"/><linearGradient id="linear-gradient-36" x1="348.46" y1="182.52" x2="348.46" y2="132.71" xlink:href="#linear-gradient-18"/><linearGradient id="linear-gradient-37" x1="379.23" y1="183.9" x2="379.23" y2="127.75" xlink:href="#linear-gradient-18"/><linearGradient id="linear-gradient-38" x1="410" y1="182.52" x2="410" y2="132.71" xlink:href="#linear-gradient-18"/><linearGradient id="linear-gradient-39" x1="440.77" y1="183.9" x2="440.77" y2="127.75" xlink:href="#linear-gradient-18"/><linearGradient id="linear-gradient-40" x1="248.46" y1="183.9" x2="248.46" y2="127.75" xlink:href="#linear-gradient-18"/><linearGradient id="linear-gradient-41" x1="279.23" y1="182.52" x2="279.23" y2="132.71" xlink:href="#linear-gradient-18"/><linearGradient id="linear-gradient-42" x1="310" y1="183.9" x2="310" y2="127.75" xlink:href="#linear-gradient-18"/><linearGradient id="linear-gradient-43" x1="386.92" y1="244.06" x2="386.92" y2="194.25" xlink:href="#linear-gradient-18"/><linearGradient id="linear-gradient-44" x1="417.69" y1="245.44" x2="417.69" y2="189.34" xlink:href="#linear-gradient-18"/><linearGradient id="linear-gradient-45" x1="448.46" y1="244.06" x2="448.46" y2="194.25" xlink:href="#linear-gradient-18"/><linearGradient id="linear-gradient-46" x1="256.15" y1="244.06" x2="256.15" y2="194.25" xlink:href="#linear-gradient-18"/><linearGradient id="linear-gradient-47" x1="286.92" y1="245.44" x2="286.92" y2="189.34" xlink:href="#linear-gradient-18"/><linearGradient id="linear-gradient-48" x1="317.69" y1="244.06" x2="317.69" y2="194.25" xlink:href="#linear-gradient-18"/><linearGradient id="linear-gradient-49" x1="348.46" y1="245.44" x2="348.46" y2="189.29" xlink:href="#linear-gradient-18"/><linearGradient id="linear-gradient-50" x1="356.15" y1="305.6" x2="356.15" y2="255.79" xlink:href="#linear-gradient-18"/><linearGradient id="linear-gradient-51" x1="386.92" y1="306.98" x2="386.92" y2="250.83" xlink:href="#linear-gradient-18"/><linearGradient id="linear-gradient-52" x1="417.69" y1="305.6" x2="417.69" y2="255.79" xlink:href="#linear-gradient-18"/><linearGradient id="linear-gradient-53" x1="448.46" y1="306.98" x2="448.46" y2="250.83" xlink:href="#linear-gradient-18"/><linearGradient id="linear-gradient-54" x1="256.15" y1="306.98" x2="256.15" y2="250.83" xlink:href="#linear-gradient-18"/><linearGradient id="linear-gradient-55" x1="286.92" y1="305.6" x2="286.92" y2="255.79" xlink:href="#linear-gradient-18"/><linearGradient id="linear-gradient-56" x1="317.69" y1="306.98" x2="317.69" y2="250.83" xlink:href="#linear-gradient-18"/><linearGradient id="New_Gradient_Swatch_6" x1="255.03" y1="289.41" x2="255.03" y2="427.33" gradientUnits="userSpaceOnUse"><stop offset="0" stop-color="#bf77b7"/><stop offset="0.02" stop-color="#bc75b4"/><stop offset="0.22" stop-color="#975d92"/><stop offset="0.42" stop-color="#794a77"/><stop offset="0.62" stop-color="#653d63"/><stop offset="0.81" stop-color="#583558"/><stop offset="1" stop-color="#543254"/></linearGradient><linearGradient id="linear-gradient-57" x1="243.38" y1="289.41" x2="243.38" y2="427.33" gradientUnits="userSpaceOnUse"><stop offset="0" stop-color="#fda1e8"/><stop offset="0.23" stop-color="#fda6ea"/><stop offset="0.51" stop-color="#fdb6ef"/><stop offset="0.82" stop-color="#fdcff9"/><stop offset="1" stop-color="#fde1ff"/></linearGradient></defs><title>Coding</title><g id="Coding"><path d="M156.14,97.72H359.53a4.39,4.39,0,0,1,4.39,4.39V243.44a3.48,3.48,0,0,1-3.48,3.48H158.71a3.48,3.48,0,0,1-3.48-3.48V98.63A.91.91,0,0,1,156.14,97.72Z" style="fill:url(#linear-gradient)"/><path d="M145.23,84.67H345.14a4.39,4.39,0,0,1,4.39,4.39V230.39a3.48,3.48,0,0,1-3.48,3.48H144.32a3.48,3.48,0,0,1-3.48-3.48V89.06A4.39,4.39,0,0,1,145.23,84.67Z" style="fill:url(#linear-gradient-2)"/><path d="M145.1,84.67H345.27a4.26,4.26,0,0,1,4.26,4.26v19.86a0,0,0,0,1,0,0H140.84a0,0,0,0,1,0,0V88.92a4.26,4.26,0,0,1,4.26-4.26Z" style="fill:url(#linear-gradient-3)"/><rect x="160.58" y="128.96" width="39.12" height="23.7" style="fill:url(#linear-gradient-4)"/><rect x="160.48" y="159.9" width="39.12" height="55.15" style="fill:url(#linear-gradient-5)"/><rect x="208.05" y="127.45" width="120.14" height="86.12" style="fill:url(#linear-gradient-6)"/><path d="M157.78,98.16A4.16,4.16,0,1,1,153.62,94,4.16,4.16,0,0,1,157.78,98.16Z" style="fill:#fff"/><path d="M172,98.16A4.16,4.16,0,1,1,167.8,94,4.16,4.16,0,0,1,172,98.16Z" style="fill:#fff"/><path d="M185.92,98.16A4.16,4.16,0,1,1,181.76,94,4.16,4.16,0,0,1,185.92,98.16Z" style="fill:#fff"/><rect x="166.65" y="166.56" width="27.59" height="1.37" style="fill:url(#linear-gradient-7)"/><rect x="166.65" y="170.67" width="27.59" height="1.37" style="fill:url(#linear-gradient-8)"/><rect x="166.65" y="174.79" width="27.59" height="1.37" style="fill:url(#linear-gradient-9)"/><rect x="166.65" y="178.9" width="27.59" height="1.37" style="fill:url(#linear-gradient-10)"/><rect x="166.65" y="183.02" width="27.59" height="1.37" style="fill:url(#linear-gradient-11)"/><rect x="166.65" y="187.14" width="27.59" height="1.37" style="fill:url(#linear-gradient-12)"/><rect x="166.65" y="191.25" width="27.59" height="1.37" style="fill:url(#linear-gradient-13)"/><rect x="166.65" y="195.37" width="27.59" height="1.37" style="fill:url(#linear-gradient-14)"/><rect x="166.65" y="199.48" width="27.59" height="1.37" style="fill:url(#linear-gradient-15)"/><rect x="166.65" y="203.6" width="27.59" height="1.37" style="fill:url(#linear-gradient-16)"/><rect x="166.65" y="207.71" width="27.59" height="1.37" style="fill:url(#linear-gradient-17)"/><polygon points="287.43 191.9 286.46 190.93 306.2 171.19 286.46 151.45 287.43 150.48 308.14 171.19 287.43 191.9" style="fill:#543254"/><polygon points="248.7 191.9 227.99 171.19 248.7 150.48 249.67 151.45 229.93 171.19 249.67 190.93 248.7 191.9" style="fill:#543254"/><rect x="241.69" y="170.2" width="44.16" height="1.37" transform="translate(2.83 346.05) rotate(-66.81)" style="fill:#543254"/><path d="M156.46,182.52A11.44,11.44,0,0,1,145,171.09V144.15a11.43,11.43,0,1,1,22.86,0v26.94A11.45,11.45,0,0,1,156.46,182.52Zm0-47.66a9.3,9.3,0,0,0-9.29,9.29v26.94a9.29,9.29,0,0,0,18.58,0V144.15A9.3,9.3,0,0,0,156.46,134.86Z" style="fill:url(#linear-gradient-18)"/><path d="M190.51,183.9a1.07,1.07,0,0,1-1.07-1.07V137.9a14.65,14.65,0,0,1-5,4.54A1.07,1.07,0,0,1,183,142a1.06,1.06,0,0,1,.45-1.44c4.16-2.17,6-7.13,6.05-7.18l2.08-5.61v55.08A1.07,1.07,0,0,1,190.51,183.9Z" style="fill:url(#linear-gradient-19)"/><path d="M218,182.52a11.45,11.45,0,0,1-11.44-11.43V144.15a11.44,11.44,0,1,1,22.87,0v26.94A11.45,11.45,0,0,1,218,182.52Zm0-47.66a9.3,9.3,0,0,0-9.29,9.29v26.94a9.29,9.29,0,0,0,18.58,0V144.15A9.3,9.3,0,0,0,218,134.86Z" style="fill:url(#linear-gradient-20)"/><path d="M59.74,183.9a1.07,1.07,0,0,1-1.07-1.07V137.9a14.47,14.47,0,0,1-5,4.54,1.07,1.07,0,0,1-1.45-.46,1.06,1.06,0,0,1,.45-1.44c4.16-2.17,6-7.13,6-7.18l2.08-5.61v55.08A1.07,1.07,0,0,1,59.74,183.9Z" style="fill:url(#linear-gradient-21)"/><path d="M87.23,182.52a11.45,11.45,0,0,1-11.44-11.43V144.15a11.44,11.44,0,1,1,22.87,0v26.94A11.45,11.45,0,0,1,87.23,182.52Zm0-47.66a9.3,9.3,0,0,0-9.29,9.29v26.94a9.29,9.29,0,0,0,18.58,0V144.15A9.3,9.3,0,0,0,87.23,134.86Z" style="fill:url(#linear-gradient-22)"/><path d="M121.28,183.9a1.08,1.08,0,0,1-1.08-1.07V137.9a14.47,14.47,0,0,1-5,4.54,1.07,1.07,0,0,1-1-1.9c4.16-2.17,6-7.13,6-7.18l2.08-5.61v55.08A1.07,1.07,0,0,1,121.28,183.9Z" style="fill:url(#linear-gradient-23)"/><path d="M194.92,244.06a11.45,11.45,0,0,1-11.43-11.44V205.68a11.43,11.43,0,0,1,22.86,0v26.94A11.44,11.44,0,0,1,194.92,244.06Zm0-47.66a9.3,9.3,0,0,0-9.29,9.28v26.94a9.29,9.29,0,0,0,18.58,0V205.68A9.3,9.3,0,0,0,194.92,196.4Z" style="fill:url(#linear-gradient-24)"/><path d="M229,245.44a1.07,1.07,0,0,1-1.07-1.07V199.44a14.56,14.56,0,0,1-5,4.54,1.08,1.08,0,0,1-1-1.91c4.16-2.17,6-7.12,6.05-7.17l2.08-5.61v55.08A1.07,1.07,0,0,1,229,245.44Z" style="fill:url(#linear-gradient-25)"/><path d="M64.15,244.06a11.45,11.45,0,0,1-11.43-11.44V205.68a11.44,11.44,0,0,1,22.87,0v26.94A11.45,11.45,0,0,1,64.15,244.06Zm0-47.66a9.3,9.3,0,0,0-9.29,9.28v26.94a9.29,9.29,0,1,0,18.58,0V205.68A9.3,9.3,0,0,0,64.15,196.4Z" style="fill:url(#linear-gradient-26)"/><path d="M98.2,245.44a1.07,1.07,0,0,1-1.07-1.07V199.44a14.56,14.56,0,0,1-5,4.54,1.08,1.08,0,1,1-1-1.91c4.15-2.17,6-7.12,6-7.17l2.08-5.61v55.08A1.07,1.07,0,0,1,98.2,245.44Z" style="fill:url(#linear-gradient-27)"/><path d="M125.69,244.06a11.45,11.45,0,0,1-11.43-11.44V205.68a11.43,11.43,0,0,1,22.86,0v26.94A11.44,11.44,0,0,1,125.69,244.06Zm0-47.66a9.3,9.3,0,0,0-9.29,9.28v26.94a9.29,9.29,0,0,0,18.58,0V205.68A9.3,9.3,0,0,0,125.69,196.4Z" style="fill:url(#linear-gradient-28)"/><path d="M159.74,245.44a1.07,1.07,0,0,1-1.07-1.07V199.44a14.56,14.56,0,0,1-5,4.54,1.08,1.08,0,0,1-1-1.91c4.16-2.17,6-7.12,6-7.17l2.08-5.61v55.08A1.07,1.07,0,0,1,159.74,245.44Z" style="fill:url(#linear-gradient-29)"/><path d="M164.15,305.6a11.45,11.45,0,0,1-11.43-11.44V267.22a11.44,11.44,0,0,1,22.87,0v26.94A11.45,11.45,0,0,1,164.15,305.6Zm0-47.66a9.3,9.3,0,0,0-9.29,9.28v26.94a9.29,9.29,0,0,0,18.58,0V267.22A9.3,9.3,0,0,0,164.15,257.94Z" style="fill:url(#linear-gradient-30)"/><path d="M198.2,307a1.07,1.07,0,0,1-1.07-1.07V261a14.44,14.44,0,0,1-5,4.53,1.07,1.07,0,0,1-1.45-.45,1.08,1.08,0,0,1,.45-1.45c4.16-2.17,6-7.12,6.05-7.17l2.08-5.61v55.08A1.07,1.07,0,0,1,198.2,307Z" style="fill:url(#linear-gradient-31)"/><path d="M225.69,305.6a11.45,11.45,0,0,1-11.43-11.44V267.22a11.43,11.43,0,1,1,22.86,0v26.94A11.45,11.45,0,0,1,225.69,305.6Zm0-47.66a9.3,9.3,0,0,0-9.29,9.28v26.94a9.29,9.29,0,0,0,18.58,0V267.22A9.3,9.3,0,0,0,225.69,257.94Z" style="fill:url(#linear-gradient-32)"/><path d="M67.43,307a1.07,1.07,0,0,1-1.07-1.07V261a14.44,14.44,0,0,1-5,4.53,1.07,1.07,0,1,1-1-1.9c4.15-2.17,6-7.12,6.05-7.17l2.07-5.61v55.08A1.07,1.07,0,0,1,67.43,307Z" style="fill:url(#linear-gradient-33)"/><path d="M94.92,305.6a11.45,11.45,0,0,1-11.43-11.44V267.22a11.44,11.44,0,0,1,22.87,0v26.94A11.45,11.45,0,0,1,94.92,305.6Zm0-47.66a9.3,9.3,0,0,0-9.29,9.28v26.94a9.29,9.29,0,1,0,18.58,0V267.22A9.3,9.3,0,0,0,94.92,257.94Z" style="fill:url(#linear-gradient-34)"/><path d="M129,307a1.07,1.07,0,0,1-1.07-1.07V261a14.44,14.44,0,0,1-5,4.53,1.07,1.07,0,0,1-1.45-.45,1.08,1.08,0,0,1,.45-1.45c4.14-2.16,6-7.12,6-7.17l2.08-5.56v55A1.07,1.07,0,0,1,129,307Z" style="fill:url(#linear-gradient-35)"/><path d="M348.46,182.52A11.44,11.44,0,0,1,337,171.09V144.15a11.43,11.43,0,1,1,22.86,0v26.94A11.45,11.45,0,0,1,348.46,182.52Zm0-47.66a9.3,9.3,0,0,0-9.29,9.29v26.94a9.29,9.29,0,0,0,18.58,0V144.15A9.3,9.3,0,0,0,348.46,134.86Z" style="fill:url(#linear-gradient-36)"/><path d="M382.51,183.9a1.07,1.07,0,0,1-1.07-1.07V137.91a14.63,14.63,0,0,1-5,4.53A1.07,1.07,0,0,1,375,142a1.06,1.06,0,0,1,.45-1.44c4.16-2.17,6-7.13,6.05-7.18l2.08-5.61v55.08A1.07,1.07,0,0,1,382.51,183.9Z" style="fill:url(#linear-gradient-37)"/><path d="M410,182.52a11.45,11.45,0,0,1-11.44-11.43V144.15a11.44,11.44,0,1,1,22.87,0v26.94A11.45,11.45,0,0,1,410,182.52Zm0-47.66a9.3,9.3,0,0,0-9.29,9.29v26.94a9.29,9.29,0,0,0,18.58,0V144.15A9.3,9.3,0,0,0,410,134.86Z" style="fill:url(#linear-gradient-38)"/><path d="M444.05,183.9a1.07,1.07,0,0,1-1.08-1.07V137.9a14.47,14.47,0,0,1-5,4.54,1.07,1.07,0,0,1-1.44-.46,1.05,1.05,0,0,1,.45-1.44c4.16-2.17,6-7.13,6.05-7.18l2.08-5.61v55.08A1.07,1.07,0,0,1,444.05,183.9Z" style="fill:url(#linear-gradient-39)"/><path d="M251.74,183.9a1.07,1.07,0,0,1-1.07-1.07V137.9a14.47,14.47,0,0,1-5,4.54,1.07,1.07,0,0,1-1.45-.46,1.06,1.06,0,0,1,.45-1.44c4.16-2.17,6-7.13,6-7.18l2.08-5.61v55.08A1.07,1.07,0,0,1,251.74,183.9Z" style="fill:url(#linear-gradient-40)"/><path d="M279.23,182.52a11.45,11.45,0,0,1-11.44-11.43V144.15a11.44,11.44,0,1,1,22.87,0v26.94A11.45,11.45,0,0,1,279.23,182.52Zm0-47.66a9.3,9.3,0,0,0-9.29,9.29v26.94a9.29,9.29,0,0,0,18.58,0V144.15A9.3,9.3,0,0,0,279.23,134.86Z" style="fill:url(#linear-gradient-41)"/><path d="M313.28,183.9a1.06,1.06,0,0,1-1.07-1.07V137.91a14.67,14.67,0,0,1-5,4.53,1.07,1.07,0,0,1-1-1.9c4.16-2.17,6-7.13,6-7.18l2.08-5.61v55.08A1.07,1.07,0,0,1,313.28,183.9Z" style="fill:url(#linear-gradient-42)"/><path d="M386.92,244.06a11.45,11.45,0,0,1-11.43-11.44V205.68a11.43,11.43,0,0,1,22.86,0v26.94A11.45,11.45,0,0,1,386.92,244.06Zm0-47.66a9.3,9.3,0,0,0-9.29,9.28v26.94a9.29,9.29,0,1,0,18.58,0V205.68A9.3,9.3,0,0,0,386.92,196.4Z" style="fill:url(#linear-gradient-43)"/><path d="M421,245.44a1.07,1.07,0,0,1-1.07-1.07V199.44a14.47,14.47,0,0,1-5,4.54,1.08,1.08,0,0,1-1-1.91c4.14-2.16,6-7.12,6-7.17l2.08-5.56v55A1.07,1.07,0,0,1,421,245.44Z" style="fill:url(#linear-gradient-44)"/><path d="M448.46,244.06A11.44,11.44,0,0,1,437,232.62V205.68a11.43,11.43,0,0,1,22.86,0v26.94A11.45,11.45,0,0,1,448.46,244.06Zm0-47.66a9.3,9.3,0,0,0-9.29,9.28v26.94a9.29,9.29,0,0,0,18.58,0V205.68A9.3,9.3,0,0,0,448.46,196.4Z" style="fill:url(#linear-gradient-45)"/><path d="M256.15,244.06a11.45,11.45,0,0,1-11.43-11.44V205.68a11.44,11.44,0,0,1,22.87,0v26.94A11.45,11.45,0,0,1,256.15,244.06Zm0-47.66a9.3,9.3,0,0,0-9.29,9.28v26.94a9.29,9.29,0,0,0,18.58,0V205.68A9.3,9.3,0,0,0,256.15,196.4Z" style="fill:url(#linear-gradient-46)"/><path d="M290.2,245.44a1.07,1.07,0,0,1-1.07-1.07V199.44a14.56,14.56,0,0,1-5,4.54,1.08,1.08,0,0,1-1-1.91c4.13-2.16,6-7.12,6.05-7.17l2.07-5.56v55A1.07,1.07,0,0,1,290.2,245.44Z" style="fill:url(#linear-gradient-47)"/><path d="M317.69,244.06a11.45,11.45,0,0,1-11.43-11.44V205.68a11.43,11.43,0,0,1,22.86,0v26.94A11.44,11.44,0,0,1,317.69,244.06Zm0-47.66a9.3,9.3,0,0,0-9.29,9.28v26.94a9.29,9.29,0,0,0,18.58,0V205.68A9.3,9.3,0,0,0,317.69,196.4Z" style="fill:url(#linear-gradient-48)"/><path d="M351.74,245.44a1.07,1.07,0,0,1-1.07-1.07V199.44a14.6,14.6,0,0,1-5,4.54,1.07,1.07,0,0,1-1.44-.46,1.09,1.09,0,0,1,.45-1.45c4.16-2.17,6-7.12,6.05-7.17l2.08-5.61v55.08A1.07,1.07,0,0,1,351.74,245.44Z" style="fill:url(#linear-gradient-49)"/><path d="M356.15,305.6a11.45,11.45,0,0,1-11.43-11.44V267.22a11.44,11.44,0,0,1,22.87,0v26.94A11.45,11.45,0,0,1,356.15,305.6Zm0-47.66a9.3,9.3,0,0,0-9.29,9.28v26.94a9.29,9.29,0,1,0,18.58,0V267.22A9.3,9.3,0,0,0,356.15,257.94Z" style="fill:url(#linear-gradient-50)"/><path d="M390.2,307a1.07,1.07,0,0,1-1.07-1.07V261a14.44,14.44,0,0,1-5,4.53,1.07,1.07,0,1,1-1-1.9c4.15-2.17,6-7.12,6.05-7.17l2.07-5.61v55.08A1.07,1.07,0,0,1,390.2,307Z" style="fill:url(#linear-gradient-51)"/><path d="M417.69,305.6a11.45,11.45,0,0,1-11.43-11.44V267.22a11.43,11.43,0,1,1,22.86,0v26.94A11.44,11.44,0,0,1,417.69,305.6Zm0-47.66a9.3,9.3,0,0,0-9.29,9.28v26.94a9.29,9.29,0,0,0,18.58,0V267.22A9.3,9.3,0,0,0,417.69,257.94Z" style="fill:url(#linear-gradient-52)"/><path d="M451.74,307a1.07,1.07,0,0,1-1.07-1.07V261a14.48,14.48,0,0,1-5,4.53,1.06,1.06,0,0,1-1.44-.45,1.07,1.07,0,0,1,.45-1.45c4.16-2.17,6-7.12,6.05-7.17l2.08-5.61v55.08A1.07,1.07,0,0,1,451.74,307Z" style="fill:url(#linear-gradient-53)"/><path d="M259.43,307a1.07,1.07,0,0,1-1.07-1.07V261a14.44,14.44,0,0,1-5,4.53,1.07,1.07,0,1,1-1-1.9c4.15-2.17,6-7.12,6.05-7.17l2.07-5.61v55.08A1.07,1.07,0,0,1,259.43,307Z" style="fill:url(#linear-gradient-54)"/><path d="M286.92,305.6a11.45,11.45,0,0,1-11.43-11.44V267.22a11.43,11.43,0,1,1,22.86,0v26.94A11.44,11.44,0,0,1,286.92,305.6Zm0-47.66a9.3,9.3,0,0,0-9.29,9.28v26.94a9.29,9.29,0,1,0,18.58,0V267.22A9.3,9.3,0,0,0,286.92,257.94Z" style="fill:url(#linear-gradient-55)"/><path d="M321,307a1.07,1.07,0,0,1-1.07-1.07V261a14.44,14.44,0,0,1-5,4.53,1.07,1.07,0,1,1-1-1.9c4.15-2.17,6-7.12,6-7.17l2.08-5.61v55.08A1.07,1.07,0,0,1,321,307Z" style="fill:url(#linear-gradient-56)"/><rect x="62.98" y="289.41" width="384.09" height="137.92" style="fill:url(#New_Gradient_Swatch_6)"/><rect x="57.68" y="289.41" width="371.39" height="137.92" style="fill:url(#linear-gradient-57)"/><rect x="132.51" y="384.07" width="156.41" height="16.16" style="fill:#fff"/><rect x="86.35" y="383.92" width="16.21" height="16.47" style="fill:#fff"/><rect x="109.15" y="383.92" width="16.21" height="16.47" style="fill:#fff"/><rect x="296.35" y="383.92" width="16.21" height="16.47" style="fill:#fff"/><rect x="182.63" y="316.7" width="16.13" height="19.04" style="fill:#fff"/><rect x="219.84" y="338.22" width="16.13" height="16.13" style="fill:#fff"/><rect x="182.63" y="338.22" width="16.13" height="16.13" style="fill:#fff"/><rect x="201.24" y="316.7" width="16.13" height="19.04" style="fill:#fff"/><rect x="201.24" y="338.22" width="16.13" height="16.13" style="fill:#fff"/><rect x="126.8" y="316.7" width="16.13" height="19.04" style="fill:#fff"/><rect x="164.02" y="338.22" width="16.13" height="16.13" style="fill:#fff"/><rect x="164.02" y="316.7" width="16.13" height="19.04" style="fill:#fff"/><rect x="145.41" y="338.22" width="16.13" height="16.13" style="fill:#fff"/><rect x="87.58" y="338.22" width="18.13" height="16.13" style="fill:#fff"/><rect x="275.67" y="338.22" width="16.13" height="16.13" style="fill:#fff"/><rect x="219.84" y="316.7" width="16.13" height="19.04" style="fill:#fff"/><rect x="257.06" y="316.7" width="16.13" height="19.04" style="fill:#fff"/><rect x="294.28" y="316.7" width="18.02" height="19.04" style="fill:#fff"/><rect x="238.45" y="338.22" width="16.13" height="16.13" style="fill:#fff"/><rect x="238.45" y="316.7" width="16.13" height="19.04" style="fill:#fff"/><rect x="257.06" y="338.22" width="16.13" height="16.13" style="fill:#fff"/><rect x="145.41" y="316.7" width="16.13" height="19.04" style="fill:#fff"/><rect x="275.67" y="316.7" width="16.13" height="19.04" style="fill:#fff"/><rect x="275.67" y="356.83" width="16.13" height="17.41" style="fill:#fff"/><rect x="257.06" y="356.83" width="16.13" height="17.41" style="fill:#fff"/><rect x="238.45" y="356.83" width="16.13" height="17.41" style="fill:#fff"/><rect x="294.28" y="356.83" width="18.02" height="17.41" style="fill:#fff"/><rect x="87.58" y="356.83" width="18.13" height="17.41" style="fill:#fff"/><rect x="294.28" y="338.22" width="18.02" height="16.13" style="fill:#fff"/><rect x="219.84" y="356.83" width="16.13" height="17.41" style="fill:#fff"/><rect x="87.58" y="316.7" width="18.13" height="19.04" style="fill:#fff"/><rect x="108.19" y="338.22" width="16.13" height="16.13" style="fill:#fff"/><rect x="126.8" y="356.83" width="16.13" height="17.41" style="fill:#fff"/><rect x="201.24" y="356.83" width="16.13" height="17.41" style="fill:#fff"/><rect x="126.8" y="338.22" width="16.13" height="16.13" style="fill:#fff"/><rect x="108.19" y="316.7" width="16.13" height="19.04" style="fill:#fff"/><rect x="108.19" y="356.83" width="16.13" height="17.41" style="fill:#fff"/><rect x="182.63" y="356.83" width="16.13" height="17.41" style="fill:#fff"/><rect x="145.41" y="356.83" width="16.13" height="17.41" style="fill:#fff"/><rect x="164.02" y="356.83" width="16.13" height="17.41" style="fill:#fff"/><rect x="355.62" y="338.47" width="16.13" height="16.13" style="fill:#fff"/><rect x="374.23" y="357.08" width="16.13" height="15.75" style="fill:#fff"/><rect x="355.62" y="357.08" width="16.13" height="15.75" style="fill:#fff"/><rect x="392.83" y="316.95" width="17.64" height="19.04" style="fill:#fff"/><rect x="355.62" y="316.95" width="16.13" height="19.04" style="fill:#fff"/><rect x="335.01" y="338.47" width="18.13" height="16.13" style="fill:#fff"/><rect x="374.23" y="338.47" width="16.13" height="16.13" style="fill:#fff"/><rect x="335.01" y="357.08" width="18.13" height="15.75" style="fill:#fff"/><rect x="335.01" y="316.95" width="18.13" height="19.04" style="fill:#fff"/><rect x="335.01" y="375.31" width="18.13" height="16.93" style="fill:#fff"/><rect x="392.83" y="338.47" width="17.64" height="16.13" style="fill:#fff"/><rect x="392.83" y="375.31" width="17.64" height="16.93" style="fill:#fff"/><rect x="374.23" y="316.95" width="16.13" height="19.04" style="fill:#fff"/><rect x="374.23" y="375.31" width="16.13" height="16.93" style="fill:#fff"/><rect x="392.83" y="357.08" width="17.64" height="15.75" style="fill:#fff"/><rect x="355.62" y="375.31" width="16.13" height="16.93" style="fill:#fff"/></g></svg>