<svg xmlns="http://www.w3.org/2000/svg" xmlns:xlink="http://www.w3.org/1999/xlink" viewBox="0 0 512 512"><defs><linearGradient id="linear-gradient" x1="274.49" y1="476.48" x2="274.49" y2="227.76" gradientUnits="userSpaceOnUse"><stop offset="0" stop-color="#7b56ab"/><stop offset="0.03" stop-color="#7653a2"/><stop offset="0.13" stop-color="#654983"/><stop offset="0.24" stop-color="#57416a"/><stop offset="0.36" stop-color="#4c3a56"/><stop offset="0.51" stop-color="#453548"/><stop offset="0.68" stop-color="#403340"/><stop offset="1" stop-color="#3f323e"/></linearGradient><linearGradient id="linear-gradient-2" x1="130.79" y1="305.65" x2="321.7" y2="305.65" gradientUnits="userSpaceOnUse"><stop offset="0" stop-color="#c7e7db"/><stop offset="0.13" stop-color="#c0e8d9"/><stop offset="0.32" stop-color="#abe9d3"/><stop offset="0.55" stop-color="#89ecca"/><stop offset="0.81" stop-color="#5befbd"/><stop offset="1" stop-color="#33f2b2"/></linearGradient><linearGradient id="linear-gradient-3" x1="170.55" y1="338.58" x2="361.46" y2="338.58" gradientUnits="userSpaceOnUse"><stop offset="0" stop-color="#ff9dea"/><stop offset="0.3" stop-color="#fe9ce7"/><stop offset="0.49" stop-color="#fc98df"/><stop offset="0.65" stop-color="#f891d0"/><stop offset="0.79" stop-color="#f287bc"/><stop offset="0.91" stop-color="#ea7aa2"/><stop offset="1" stop-color="#e46f8b"/></linearGradient><linearGradient id="linear-gradient-4" x1="196.15" y1="234.55" x2="335.86" y2="234.55" gradientUnits="userSpaceOnUse"><stop offset="0" stop-color="#fff" stop-opacity="0"/><stop offset="0.14" stop-color="#fff" stop-opacity="0.16"/><stop offset="0.46" stop-color="#fff" stop-opacity="0.52"/><stop offset="0.72" stop-color="#fff" stop-opacity="0.78"/><stop offset="0.9" stop-color="#fff" stop-opacity="0.94"/><stop offset="1" stop-color="#fff"/></linearGradient><linearGradient id="linear-gradient-5" x1="196.15" y1="248.14" x2="335.86" y2="248.14" xlink:href="#linear-gradient-4"/><linearGradient id="linear-gradient-6" x1="94.88" y1="211.16" x2="416.3" y2="211.16" gradientUnits="userSpaceOnUse"><stop offset="0" stop-color="#006e76"/><stop offset="0.28" stop-color="#007376"/><stop offset="0.62" stop-color="#008276"/><stop offset="0.98" stop-color="#009a76"/><stop offset="1" stop-color="#009b76"/></linearGradient><linearGradient id="linear-gradient-7" x1="375.57" y1="216" x2="416.38" y2="216" gradientUnits="userSpaceOnUse"><stop offset="0" stop-color="#c8e7db"/><stop offset="0.19" stop-color="#a7e9d2"/><stop offset="0.57" stop-color="#69eec1"/><stop offset="0.85" stop-color="#42f1b6"/><stop offset="1" stop-color="#33f2b2"/></linearGradient><linearGradient id="linear-gradient-8" x1="237.51" y1="476.48" x2="237.51" y2="227.76" gradientUnits="userSpaceOnUse"><stop offset="0" stop-color="#fda1e8"/><stop offset="0.23" stop-color="#fda6ea"/><stop offset="0.5" stop-color="#fdb3ef"/><stop offset="0.78" stop-color="#fdcaf7"/><stop offset="1" stop-color="#fde1ff"/></linearGradient><linearGradient id="linear-gradient-9" x1="239.36" y1="426.12" x2="239.36" y2="319.47" gradientUnits="userSpaceOnUse"><stop offset="0" stop-color="#543254"/><stop offset="0.53" stop-color="#3e2754"/><stop offset="1" stop-color="#2e2054"/></linearGradient></defs><title>Data_privacy</title><g id="Data_privacy"><path d="M281.92,257.35l-21.44-29.59H150.17A20.2,20.2,0,0,0,130,248V456.29a20.19,20.19,0,0,0,20.19,20.19H398.81A20.19,20.19,0,0,0,419,456.29V277.54a20.19,20.19,0,0,0-20.19-20.19Z" style="fill:url(#linear-gradient)"/><rect x="130.79" y="177.81" width="190.91" height="255.68" style="fill:url(#linear-gradient-2)"/><rect x="155.71" y="201.06" width="139.72" height="2.72" style="fill:#543254"/><rect x="155.71" y="214.66" width="139.72" height="2.72" style="fill:#543254"/><rect x="155.71" y="228.25" width="139.72" height="2.72" style="fill:#543254"/><rect x="155.71" y="241.85" width="139.72" height="2.72" style="fill:#543254"/><rect x="155.71" y="201.06" width="139.72" height="2.72" style="fill:#543254"/><rect x="155.71" y="214.66" width="139.72" height="2.72" style="fill:#543254"/><rect x="155.71" y="255.44" width="139.72" height="2.72" style="fill:#543254"/><rect x="155.71" y="269.04" width="139.72" height="2.72" style="fill:#543254"/><rect x="155.71" y="282.63" width="139.72" height="2.72" style="fill:#543254"/><rect x="155.71" y="296.23" width="139.72" height="2.72" style="fill:#543254"/><rect x="155.71" y="309.82" width="139.72" height="2.72" style="fill:#543254"/><rect x="155.71" y="323.42" width="139.72" height="2.72" style="fill:#543254"/><rect x="155.71" y="282.63" width="139.72" height="2.72" style="fill:#543254"/><rect x="155.71" y="296.23" width="139.72" height="2.72" style="fill:#543254"/><rect x="155.71" y="337.01" width="139.72" height="2.72" style="fill:#543254"/><rect x="155.71" y="350.61" width="139.72" height="2.72" style="fill:#543254"/><rect x="170.55" y="210.74" width="190.91" height="255.68" style="fill:url(#linear-gradient-3)"/><rect x="196.15" y="260.38" width="139.72" height="2.72" style="fill:#d68f99"/><rect x="196.15" y="273.97" width="139.72" height="2.72" style="fill:#d68f99"/><polyline points="196.15 235.91 196.15 233.19 335.86 233.19 335.86 235.91" style="fill:url(#linear-gradient-4)"/><polyline points="196.15 249.5 196.15 246.78 335.86 246.78 335.86 249.5" style="fill:url(#linear-gradient-5)"/><rect x="196.15" y="287.57" width="139.72" height="2.72" style="fill:#d68f99"/><rect x="196.15" y="301.16" width="139.72" height="2.72" style="fill:#d68f99"/><rect x="196.15" y="314.76" width="139.72" height="2.72" style="fill:#d68f99"/><path d="M135.55,386.8H94.88V196.23c0-88.62,72.09-160.71,160.71-160.71S416.3,107.61,416.3,196.23v19.39H375.62V196.23a120,120,0,0,0-240.07,0Z" style="fill:url(#linear-gradient-6)"/><path d="M416.38,216A20.41,20.41,0,1,1,396,195.59,20.41,20.41,0,0,1,416.38,216Z" style="fill:url(#linear-gradient-7)"/><path d="M245,257.35,223.5,227.76H113.19A20.2,20.2,0,0,0,93,248V456.29a20.19,20.19,0,0,0,20.19,20.19H361.83A20.19,20.19,0,0,0,382,456.29V277.54a20.19,20.19,0,0,0-20.19-20.19Z" style="fill:url(#linear-gradient-8)"/><path d="M266.1,346.21a26.74,26.74,0,1,0-38.59,24L213.7,426.12H265l-13.81-55.95A26.74,26.74,0,0,0,266.1,346.21Z" style="fill:url(#linear-gradient-9)"/></g></svg>