<svg xmlns="http://www.w3.org/2000/svg" xmlns:xlink="http://www.w3.org/1999/xlink" viewBox="0 0 512 512"><defs><linearGradient id="linear-gradient" x1="245.56" y1="384.33" x2="245.56" y2="317.06" gradientUnits="userSpaceOnUse"><stop offset="0" stop-color="#fd72b7"/><stop offset="0.16" stop-color="#fd78bb"/><stop offset="0.37" stop-color="#fd8ac6"/><stop offset="0.62" stop-color="#fda6d9"/><stop offset="0.89" stop-color="#fdcef3"/><stop offset="1" stop-color="#fde1ff"/></linearGradient><linearGradient id="linear-gradient-2" x1="259.02" y1="337.67" x2="259.02" y2="86.35" gradientUnits="userSpaceOnUse"><stop offset="0" stop-color="#fd72b7"/><stop offset="0.16" stop-color="#fd7cbe"/><stop offset="0.44" stop-color="#fd98d0"/><stop offset="0.8" stop-color="#fdc5ed"/><stop offset="1" stop-color="#fde1ff"/></linearGradient><linearGradient id="linear-gradient-3" x1="66.73" y1="212.01" x2="413.15" y2="212.01" gradientUnits="userSpaceOnUse"><stop offset="0" stop-color="#fdc9e8"/><stop offset="0.12" stop-color="#fdcceb"/><stop offset="1" stop-color="#fde1ff"/></linearGradient><linearGradient id="linear-gradient-4" x1="413.15" y1="191.65" x2="66.73" y2="191.65" gradientUnits="userSpaceOnUse"><stop offset="0" stop-color="#7b78ab"/><stop offset="0.21" stop-color="#666086"/><stop offset="0.42" stop-color="#554c67"/><stop offset="0.63" stop-color="#493e50"/><stop offset="0.82" stop-color="#423543"/><stop offset="1" stop-color="#3f323e"/></linearGradient><linearGradient id="linear-gradient-5" x1="157.92" y1="298.6" x2="157.92" y2="85.2" gradientUnits="userSpaceOnUse"><stop offset="0" stop-color="#fff" stop-opacity="0"/><stop offset="0.14" stop-color="#fff" stop-opacity="0.02"/><stop offset="0.28" stop-color="#fff" stop-opacity="0.06"/><stop offset="0.42" stop-color="#fff" stop-opacity="0.14"/><stop offset="0.56" stop-color="#fff" stop-opacity="0.25"/><stop offset="0.7" stop-color="#fff" stop-opacity="0.4"/><stop offset="0.84" stop-color="#fff" stop-opacity="0.57"/><stop offset="0.98" stop-color="#fff" stop-opacity="0.77"/><stop offset="1" stop-color="#fff" stop-opacity="0.8"/></linearGradient><linearGradient id="linear-gradient-6" x1="212.22" y1="298.6" x2="212.22" y2="85.2" xlink:href="#linear-gradient-5"/><linearGradient id="linear-gradient-7" x1="417.37" y1="426.61" x2="417.37" y2="231.54" xlink:href="#linear-gradient"/><linearGradient id="linear-gradient-8" x1="465.47" y1="329.07" x2="351.68" y2="329.07" xlink:href="#linear-gradient-4"/><linearGradient id="linear-gradient-9" x1="386.09" y1="404.07" x2="386.09" y2="254" xlink:href="#linear-gradient-5"/><linearGradient id="linear-gradient-10" x1="72.38" y1="426.85" x2="72.38" y2="289.54" xlink:href="#linear-gradient"/><linearGradient id="linear-gradient-11" x1="97.81" y1="358.19" x2="34.75" y2="358.19" xlink:href="#linear-gradient-4"/><linearGradient id="linear-gradient-12" x1="62.91" y1="411.44" x2="62.91" y2="305.49" xlink:href="#linear-gradient-5"/></defs><title>Devices</title><g id="Devices"><path d="M212.49,317.06v57.12a18.23,18.23,0,0,1-2.71,9.46h-33v8.29H197c-.37,0-.73.07-1.11.08h90.3c9.33,0,15.67-8.51,15.67-17.84V317.06Z" style="fill:#fde1ff"/><path d="M211.28,317.06V369a15.49,15.49,0,0,1-15.39,15.33v0h83.69A15.5,15.5,0,0,0,295.23,369V317.06Z" style="fill:url(#linear-gradient)"/><rect x="85.81" y="86.35" width="346.42" height="251.32" rx="16.36" style="fill:url(#linear-gradient-2)"/><rect x="66.73" y="86.35" width="346.42" height="251.32" rx="16.36" style="fill:url(#linear-gradient-3)"/><path d="M66.73,298.16V101.51A16.35,16.35,0,0,1,83.09,85.15H396.78a16.36,16.36,0,0,1,16.37,16.36V298.16" style="fill:url(#linear-gradient-4)"/><polygon points="214.74 298.6 173.16 298.6 101.11 85.2 142.69 85.2 214.74 298.6" style="fill:url(#linear-gradient-5)"/><polygon points="269.04 298.6 227.46 298.6 155.41 85.2 196.98 85.2 269.04 298.6" style="fill:url(#linear-gradient-6)"/><rect x="353.79" y="231.54" width="127.17" height="195.07" rx="14.32" style="fill:url(#linear-gradient-7)"/><rect x="344.99" y="231.54" width="127.17" height="195.07" rx="14.32" style="fill:#fbd4ff"/><rect x="351.68" y="254.21" width="113.79" height="149.72" style="fill:url(#linear-gradient-8)"/><path d="M410.09,419.44a5.8,5.8,0,1,1,5.79-5.8A5.8,5.8,0,0,1,410.09,419.44Zm0-10.76a5,5,0,1,0,5,5A5,5,0,0,0,410.09,408.68Z" style="fill:#543254"/><rect x="403.35" y="242.9" width="12.44" height="0.95" style="fill:#543254"/><polygon points="406.38 404.07 388.59 404.07 365.79 254 383.58 254 406.38 404.07" style="fill:url(#linear-gradient-9)"/><rect x="37.15" y="289.54" width="70.47" height="137.32" rx="8.94" style="fill:url(#linear-gradient-10)"/><rect x="31.05" y="289.54" width="70.47" height="137.32" rx="8.94" style="fill:#fbd4ff"/><rect x="34.75" y="305.5" width="63.06" height="105.4" style="fill:url(#linear-gradient-11)"/><path d="M66.28,424.09a5.67,5.67,0,1,1,5.66-5.67A5.67,5.67,0,0,1,66.28,424.09Zm0-10.51a4.85,4.85,0,1,0,4.84,4.84A4.84,4.84,0,0,0,66.28,413.58Z" style="fill:#665168"/><rect x="60.2" y="297.5" width="12.15" height="0.93" style="fill:#665168"/><polygon points="83.2 411.44 65.41 411.44 42.61 305.49 60.4 305.49 83.2 411.44" style="fill:url(#linear-gradient-12)"/></g></svg>