<svg id="Flowchart" xmlns="http://www.w3.org/2000/svg" xmlns:xlink="http://www.w3.org/1999/xlink" viewBox="0 0 512 512"><defs><linearGradient id="linear-gradient" x1="98.43" y1="322.33" x2="450.12" y2="322.33" gradientUnits="userSpaceOnUse"><stop offset="0" stop-color="#7b78ab"/><stop offset="0.21" stop-color="#666086"/><stop offset="0.42" stop-color="#554c67"/><stop offset="0.63" stop-color="#493e50"/><stop offset="0.82" stop-color="#423543"/><stop offset="1" stop-color="#3f323e"/></linearGradient><linearGradient id="New_Gradient_Swatch_3" x1="414.29" y1="282.78" x2="61.88" y2="282.78" gradientUnits="userSpaceOnUse"><stop offset="0" stop-color="#9de7db"/><stop offset="1" stop-color="#33f2b2"/></linearGradient><linearGradient id="linear-gradient-2" x1="284.42" y1="254.61" x2="363.6" y2="254.61" gradientUnits="userSpaceOnUse"><stop offset="0" stop-color="#ff9dea"/><stop offset="1" stop-color="#e46f8b"/></linearGradient><linearGradient id="linear-gradient-3" x1="273.51" y1="82.91" x2="195.46" y2="82.91" gradientUnits="userSpaceOnUse"><stop offset="0" stop-color="#fda1e8"/><stop offset="1" stop-color="#fde1ff"/></linearGradient><linearGradient id="linear-gradient-4" x1="185.25" y1="262.92" x2="283.72" y2="262.92" gradientUnits="userSpaceOnUse"><stop offset="0" stop-color="#784fab"/><stop offset="1" stop-color="#5b3282"/></linearGradient><linearGradient id="linear-gradient-5" x1="190.91" y1="172.83" x2="282.86" y2="172.83" xlink:href="#linear-gradient-2"/><linearGradient id="linear-gradient-6" x1="173.93" y1="172.17" x2="109.02" y2="172.17" xlink:href="#linear-gradient-3"/><linearGradient id="linear-gradient-7" x1="195.46" y1="337.31" x2="273.51" y2="337.31" xlink:href="#linear-gradient-2"/><linearGradient id="linear-gradient-8" x1="167.98" y1="237.74" x2="97.88" y2="237.74" xlink:href="#linear-gradient"/><linearGradient id="linear-gradient-9" x1="167.98" y1="244.14" x2="97.88" y2="244.14" xlink:href="#linear-gradient"/><linearGradient id="linear-gradient-10" x1="167.99" y1="251.69" x2="97.88" y2="251.69" xlink:href="#linear-gradient"/><linearGradient id="linear-gradient-11" x1="167.98" y1="259.24" x2="97.88" y2="259.24" xlink:href="#linear-gradient"/><linearGradient id="linear-gradient-12" x1="297.05" y1="339.63" x2="367.15" y2="339.63" xlink:href="#linear-gradient"/><linearGradient id="linear-gradient-13" x1="297.05" y1="346.03" x2="367.15" y2="346.03" xlink:href="#linear-gradient"/><linearGradient id="linear-gradient-14" x1="297.05" y1="353.58" x2="367.15" y2="353.58" xlink:href="#linear-gradient"/><linearGradient id="linear-gradient-15" x1="297.05" y1="361.13" x2="367.15" y2="361.13" xlink:href="#linear-gradient"/><linearGradient id="linear-gradient-16" x1="94.44" y1="386.82" x2="94.44" y2="91.48" gradientUnits="userSpaceOnUse"><stop offset="0" stop-color="#006e76"/><stop offset="1" stop-color="#009b76"/></linearGradient></defs><title>Flowchart</title><rect x="98.43" y="189.9" width="351.69" height="264.87" style="fill:url(#linear-gradient)"/><path d="M92.39,416h321.9V149.56H61.88V387.39A30.68,30.68,0,0,0,92.39,416Z" style="fill:url(#New_Gradient_Swatch_3)"/><polygon points="91.6 393.8 77.81 393.8 77.75 380.01 81.35 379.99 81.39 390.2 91.6 390.2 91.6 393.8" style="fill:#fff"/><path d="M352.23,393.8H326.17v-3.6h26.06Zm-52.13,0H274v-3.6H300.1Zm-52.12,0H221.91v-3.6H248Zm-52.13,0H169.79v-3.6h26.06Zm-52.13,0H117.66v-3.6h26.06Z" style="fill:#fff"/><polygon points="392.09 393.8 378.29 393.8 378.29 390.2 388.49 390.2 388.49 380 392.09 380 392.09 393.8" style="fill:#fff"/><path d="M392.09,358.4h-3.6V336.79h3.6Zm0-43.21h-3.6V293.58h3.6Zm0-43.21h-3.6V250.37h3.6Zm0-43.21h-3.6V207.16h3.6Z" style="fill:#fff"/><polygon points="392.09 185.56 388.49 185.56 388.49 175.36 378.29 175.36 378.29 171.76 392.09 171.76 392.09 185.56" style="fill:#fff"/><path d="M356.17,175.36H334v-3.6h22.13Zm-44.25,0H289.8v-3.6h22.12Zm-44.25,0H245.55v-3.6h22.12Zm-44.25,0H201.3v-3.6h22.12Zm-44.25,0H157.05v-3.6h22.12Zm-44.24,0H112.8v-3.6h22.13Z" style="fill:#fff"/><polygon points="76.93 185.57 76.87 171.76 90.68 171.76 90.68 175.36 80.48 175.36 80.53 185.55 76.93 185.57" style="fill:#fff"/><path d="M77.66,358.4l-.09-21.6,3.59,0,.1,21.61Zm-.19-43.21-.09-21.6,3.6,0,.09,21.61ZM77.29,272l-.09-21.6,3.6,0L80.89,272Zm-.18-43.21L77,207.17l3.6,0,.09,21.61Z" style="fill:#fff"/><rect x="109.28" y="214.02" width="253.51" height="4.8" transform="translate(16.75 449.79) rotate(-89.3)" style="fill:#fff"/><rect x="143.72" y="170.82" width="81.62" height="4.8" style="fill:#fff"/><rect x="256.42" y="260.88" width="81.62" height="4.8" style="fill:#fff"/><polygon points="284.42 288.89 324.01 220.32 363.6 288.89 284.42 288.89" style="fill:url(#linear-gradient-2)"/><rect x="195.46" y="57.23" width="78.06" height="51.35" style="fill:url(#linear-gradient-3)"/><polygon points="263.31 288.6 185.25 288.6 205.66 237.25 283.72 237.25 263.31 288.6" style="fill:url(#linear-gradient-4)"/><polygon points="236.88 133.13 282.86 172.83 236.88 212.53 190.91 172.83 236.88 133.13" style="fill:url(#linear-gradient-5)"/><path d="M173.93,172.17a32.46,32.46,0,1,1-32.45-32.45A32.45,32.45,0,0,1,173.93,172.17Z" style="fill:url(#linear-gradient-6)"/><rect x="195.46" y="311.63" width="78.06" height="51.35" style="fill:url(#linear-gradient-7)"/><rect x="97.88" y="236.6" width="70.1" height="2.27" style="fill:url(#linear-gradient-8)"/><rect x="97.88" y="243.01" width="70.1" height="2.27" style="fill:url(#linear-gradient-9)"/><rect x="97.88" y="250.55" width="70.1" height="2.27" style="fill:url(#linear-gradient-10)"/><rect x="97.88" y="258.1" width="70.1" height="2.27" style="fill:url(#linear-gradient-11)"/><rect x="297.05" y="338.49" width="70.1" height="2.27" style="fill:url(#linear-gradient-12)"/><rect x="297.05" y="344.89" width="70.1" height="2.27" style="fill:url(#linear-gradient-13)"/><rect x="297.05" y="352.44" width="70.1" height="2.27" style="fill:url(#linear-gradient-14)"/><rect x="297.05" y="359.99" width="70.1" height="2.27" style="fill:url(#linear-gradient-15)"/><path d="M92.34,358.07H127V91.48H92.3a30.42,30.42,0,0,0-30.42,30.43V386.82A30.61,30.61,0,0,1,92.34,358.07Z" style="fill:url(#linear-gradient-16)"/></svg>