<svg xmlns="http://www.w3.org/2000/svg" xmlns:xlink="http://www.w3.org/1999/xlink" viewBox="0 0 512 512"><defs><linearGradient id="linear-gradient" x1="230.86" y1="76.47" x2="281.11" y2="76.47" gradientUnits="userSpaceOnUse"><stop offset="0" stop-color="#fda1e8"/><stop offset="1" stop-color="#fde1ff"/></linearGradient><linearGradient id="linear-gradient-2" x1="230.88" y1="435.53" x2="281.13" y2="435.53" xlink:href="#linear-gradient"/><linearGradient id="linear-gradient-3" x1="435.33" y1="344.47" x2="385.08" y2="344.47" gradientUnits="userSpaceOnUse"><stop offset="0" stop-color="#7b78ab"/><stop offset="0.29" stop-color="#655e82"/><stop offset="0.59" stop-color="#50465d"/><stop offset="0.84" stop-color="#443746"/><stop offset="1" stop-color="#3f323e"/></linearGradient><linearGradient id="linear-gradient-4" x1="125.14" y1="165.62" x2="74.88" y2="165.62" xlink:href="#linear-gradient-3"/><linearGradient id="linear-gradient-5" x1="386.2" y1="165.34" x2="436.45" y2="165.34" gradientUnits="userSpaceOnUse"><stop offset="0" stop-color="#006e76"/><stop offset="1" stop-color="#009b76"/></linearGradient><linearGradient id="linear-gradient-6" x1="75.32" y1="345.77" x2="125.57" y2="345.77" xlink:href="#linear-gradient-5"/><linearGradient id="New_Gradient_Swatch_3" x1="191.44" y1="255.53" x2="320.53" y2="255.53" gradientTransform="translate(503.91 -7.83) rotate(88.32)" gradientUnits="userSpaceOnUse"><stop offset="0" stop-color="#9de7db"/><stop offset="1" stop-color="#33f2b2"/></linearGradient><linearGradient id="linear-gradient-7" x1="228.17" y1="243.84" x2="320.33" y2="243.84" xlink:href="#linear-gradient-5"/><linearGradient id="linear-gradient-8" x1="191.48" y1="279.87" x2="225.29" y2="279.87" xlink:href="#linear-gradient-5"/><linearGradient id="linear-gradient-9" x1="192.2" y1="226.52" x2="216.67" y2="226.52" xlink:href="#linear-gradient-5"/></defs><title>Networking</title><g id="Networking"><circle cx="255.99" cy="255.53" r="76.95" transform="translate(-40.03 463.37) rotate(-80.02)" style="fill:#fff"/><path d="M167.41,414.37a1.11,1.11,0,0,1-.55-.15A181.89,181.89,0,0,1,74,258.76a1.11,1.11,0,0,1,1.09-1.13h0a1.11,1.11,0,0,1,1.12,1.09A179.69,179.69,0,0,0,168,412.28a1.12,1.12,0,0,1-.55,2.09Zm180-1.61a1.14,1.14,0,0,1-1-.55,1.12,1.12,0,0,1,.4-1.53,179.64,179.64,0,0,0,88.94-155.15c0-2.13,0-4.28-.11-6.4a1.12,1.12,0,0,1,2.23-.07c.07,2.14.11,4.32.11,6.47a181.91,181.91,0,0,1-90,157.08A1.12,1.12,0,0,1,347.36,412.76ZM161.86,102.18a1.12,1.12,0,0,1-.59-2.07A181.69,181.69,0,0,1,256,73.55h0a182.22,182.22,0,0,1,86.28,21.72,1.11,1.11,0,1,1-1.06,2A180,180,0,0,0,162.44,102,1.13,1.13,0,0,1,161.86,102.18Z" style="fill:#ff9dea"/><path d="M257.19,443,176.91,302.57,96.77,348.84l53.66-92.6L96.77,162.36l81,46.7L254.94,75.88l0,0L257.19,72v4.15l76.58,133.08,77.55-44.77a1.2,1.2,0,0,1,1.2,2.08L335,211.31l78.5,136.42-156.28-90.1ZM179,301.37,254.79,434V257.61ZM151.8,258.65l-48.45,83.62,72.37-41.78Zm106.57-3.11L406.94,341.2,332.89,212.51Zm-105.18.71,24.6,43,75.78-43.75-74.93-43.2Zm-49.94-87.38,48.57,85,24.74-42.7Zm76.59,41.39,74.95,43.21V80.93ZM257.19,81V253.45l74.5-43Z" style="fill:#ff9dea"/><path d="M256,439.7a1.16,1.16,0,0,1-.59-.16,1.22,1.22,0,0,1-.45-1.64l155.93-273A1.2,1.2,0,0,1,413,166.1L257,439.09A1.2,1.2,0,0,1,256,439.7Z" style="fill:#ff9dea"/><path d="M230.86,76.47A25.13,25.13,0,1,1,256,101.59,25.13,25.13,0,0,1,230.86,76.47Z" style="fill:url(#linear-gradient)"/><path d="M230.88,435.53A25.13,25.13,0,1,1,256,460.66,25.13,25.13,0,0,1,230.88,435.53Z" style="fill:url(#linear-gradient-2)"/><path d="M392.44,362.23a25.13,25.13,0,1,1,35.54,0A25.13,25.13,0,0,1,392.44,362.23Z" style="fill:url(#linear-gradient-3)"/><path d="M82.24,183.38a25.13,25.13,0,1,1,35.54,0A25.13,25.13,0,0,1,82.24,183.38Z" style="fill:url(#linear-gradient-4)"/><path d="M411.33,190.47a25.13,25.13,0,1,1,25.12-25.13A25.13,25.13,0,0,1,411.33,190.47Z" style="fill:url(#linear-gradient-5)"/><path d="M100.45,370.89a25.13,25.13,0,1,1,25.12-25.12A25.12,25.12,0,0,1,100.45,370.89Z" style="fill:url(#linear-gradient-6)"/><circle cx="255.99" cy="255.53" r="64.54" transform="translate(-6.92 503.93) rotate(-88.32)" style="fill:url(#New_Gradient_Swatch_3)"/><path d="M256.91,191.07l-8.31,10-15,6.6-4.78,9.9a6.73,6.73,0,0,0,1.88,8.18h0a8.16,8.16,0,0,1,2.69,8.89l-1.13,3.48A18,18,0,0,0,243,260.54h0a30.33,30.33,0,0,1,8.86,20.85l0,1.76,6.86,13.46,14.14-13a31.72,31.72,0,0,0,9.87-18.6l.93-6.21a10,10,0,0,1,7.17-8.14h0a6.84,6.84,0,0,1,7.31,2.39l18.52,23.8a64.45,64.45,0,0,0-59.79-85.77Z" style="fill:url(#linear-gradient-7)"/><path d="M225,288.92h0a34.26,34.26,0,0,1-.79-12.19l.81-7-6.35-3.3L191.5,254.17h0a64.27,64.27,0,0,0,23.89,51.4l.69-.07,5.92-5.91A11.23,11.23,0,0,0,225,288.92Z" style="fill:url(#linear-gradient-8)"/><path d="M216.17,220.85h0a15.75,15.75,0,0,0-2.88-13.68h0a64.33,64.33,0,0,0-21.09,38.71l12.2-4.13,2.27-2.65A45.47,45.47,0,0,0,216.17,220.85Z" style="fill:url(#linear-gradient-9)"/></g></svg>