<svg xmlns="http://www.w3.org/2000/svg" xmlns:xlink="http://www.w3.org/1999/xlink" viewBox="0 0 512 512"><defs><linearGradient id="linear-gradient" x1="251.15" y1="392.25" x2="251.15" y2="181.61" gradientUnits="userSpaceOnUse"><stop offset="0" stop-color="#7b78ab"/><stop offset="0.12" stop-color="#6a658d"/><stop offset="0.25" stop-color="#5b5270"/><stop offset="0.4" stop-color="#4e445a"/><stop offset="0.56" stop-color="#463a4a"/><stop offset="0.75" stop-color="#413441"/><stop offset="1" stop-color="#3f323e"/></linearGradient><linearGradient id="linear-gradient-2" x1="260.15" y1="369.01" x2="260.15" y2="181.61" gradientUnits="userSpaceOnUse"><stop offset="0" stop-color="#fd72b7"/><stop offset="0.16" stop-color="#fd78bb"/><stop offset="0.37" stop-color="#fd8ac6"/><stop offset="0.62" stop-color="#fda6d9"/><stop offset="0.89" stop-color="#fdcef3"/><stop offset="1" stop-color="#fde1ff"/></linearGradient><linearGradient id="linear-gradient-3" x1="130.46" y1="286.43" x2="390.05" y2="286.43" gradientUnits="userSpaceOnUse"><stop offset="0" stop-color="#fff"/><stop offset="0.14" stop-color="#fff"/><stop offset="1" stop-color="#fff"/></linearGradient><linearGradient id="linear-gradient-4" x1="393.73" y1="379.67" x2="60.57" y2="379.67" gradientUnits="userSpaceOnUse"><stop offset="0" stop-color="#fda1e8"/><stop offset="0.23" stop-color="#fda6ea"/><stop offset="0.5" stop-color="#fdb3ef"/><stop offset="0.78" stop-color="#fdcaf7"/><stop offset="1" stop-color="#fde1ff"/></linearGradient><linearGradient id="linear-gradient-5" x1="210.77" y1="232.44" x2="154.15" y2="232.44" gradientUnits="userSpaceOnUse"><stop offset="0" stop-color="#fff"/><stop offset="0.34" stop-color="#e3e3e3"/><stop offset="0.76" stop-color="#c5c5c5"/><stop offset="1" stop-color="#bababa"/></linearGradient><linearGradient id="linear-gradient-6" x1="210.77" y1="238.44" x2="154.15" y2="238.44" xlink:href="#linear-gradient-5"/><linearGradient id="linear-gradient-7" x1="210.77" y1="244.44" x2="154.15" y2="244.44" xlink:href="#linear-gradient-5"/><linearGradient id="linear-gradient-8" x1="210.77" y1="250.44" x2="154.15" y2="250.44" xlink:href="#linear-gradient-5"/><linearGradient id="linear-gradient-9" x1="210.77" y1="256.44" x2="154.15" y2="256.44" xlink:href="#linear-gradient-5"/><linearGradient id="linear-gradient-10" x1="210.77" y1="262.44" x2="154.15" y2="262.44" xlink:href="#linear-gradient-5"/><linearGradient id="linear-gradient-11" x1="210.77" y1="268.44" x2="154.15" y2="268.44" xlink:href="#linear-gradient-5"/><linearGradient id="linear-gradient-12" x1="210.77" y1="274.44" x2="154.15" y2="274.44" xlink:href="#linear-gradient-5"/><linearGradient id="linear-gradient-13" x1="210.77" y1="280.44" x2="154.15" y2="280.44" xlink:href="#linear-gradient-5"/><linearGradient id="linear-gradient-14" x1="210.77" y1="286.44" x2="154.15" y2="286.44" xlink:href="#linear-gradient-5"/><linearGradient id="linear-gradient-15" x1="210.77" y1="292.44" x2="154.15" y2="292.44" xlink:href="#linear-gradient-5"/><linearGradient id="linear-gradient-16" x1="210.77" y1="298.44" x2="154.15" y2="298.44" xlink:href="#linear-gradient-5"/><linearGradient id="linear-gradient-17" x1="210.77" y1="304.44" x2="154.15" y2="304.44" xlink:href="#linear-gradient-5"/><linearGradient id="linear-gradient-18" x1="210.77" y1="310.44" x2="154.15" y2="310.44" xlink:href="#linear-gradient-5"/><linearGradient id="linear-gradient-19" x1="210.77" y1="316.44" x2="154.15" y2="316.44" xlink:href="#linear-gradient-5"/><linearGradient id="linear-gradient-20" x1="210.77" y1="322.44" x2="154.15" y2="322.44" xlink:href="#linear-gradient-5"/><linearGradient id="linear-gradient-21" x1="210.77" y1="328.44" x2="154.15" y2="328.44" xlink:href="#linear-gradient-5"/><linearGradient id="linear-gradient-22" x1="210.77" y1="334.44" x2="154.15" y2="334.44" xlink:href="#linear-gradient-5"/><linearGradient id="linear-gradient-23" x1="210.77" y1="340.44" x2="154.15" y2="340.44" xlink:href="#linear-gradient-5"/><linearGradient id="linear-gradient-24" x1="210.77" y1="346.44" x2="154.15" y2="346.44" xlink:href="#linear-gradient-5"/><linearGradient id="linear-gradient-25" x1="367.17" y1="289.63" x2="219.51" y2="289.63" xlink:href="#linear-gradient-5"/><linearGradient id="linear-gradient-26" x1="369.12" y1="165.24" x2="369.12" y2="302.56" gradientUnits="userSpaceOnUse"><stop offset="0" stop-color="#7b78ab"/><stop offset="0.21" stop-color="#666086"/><stop offset="0.42" stop-color="#554c67"/><stop offset="0.63" stop-color="#493e50"/><stop offset="0.82" stop-color="#423543"/><stop offset="1" stop-color="#3f323e"/></linearGradient><linearGradient id="linear-gradient-27" x1="363.02" y1="302.56" x2="363.02" y2="165.24" xlink:href="#linear-gradient-2"/><linearGradient id="linear-gradient-28" x1="357.77" y1="211.79" x2="341.36" y2="211.79" xlink:href="#linear-gradient-5"/><linearGradient id="linear-gradient-29" x1="385.52" y1="211.79" x2="357.52" y2="211.79" xlink:href="#linear-gradient-5"/><linearGradient id="linear-gradient-30" x1="384.2" y1="234.72" x2="340.79" y2="234.72" xlink:href="#linear-gradient-5"/><linearGradient id="linear-gradient-31" x1="384.2" y1="238.32" x2="340.79" y2="238.32" xlink:href="#linear-gradient-5"/><linearGradient id="linear-gradient-32" x1="384.2" y1="241.92" x2="340.79" y2="241.92" xlink:href="#linear-gradient-5"/><linearGradient id="linear-gradient-33" x1="384.2" y1="245.52" x2="340.79" y2="245.52" xlink:href="#linear-gradient-5"/><linearGradient id="linear-gradient-34" x1="384.2" y1="249.12" x2="340.79" y2="249.12" xlink:href="#linear-gradient-5"/><linearGradient id="linear-gradient-35" x1="384.2" y1="252.72" x2="340.79" y2="252.72" xlink:href="#linear-gradient-5"/><linearGradient id="linear-gradient-36" x1="384.2" y1="256.32" x2="340.79" y2="256.32" xlink:href="#linear-gradient-5"/><linearGradient id="linear-gradient-37" x1="384.2" y1="259.92" x2="340.79" y2="259.92" xlink:href="#linear-gradient-5"/><linearGradient id="linear-gradient-38" x1="384.2" y1="263.52" x2="340.79" y2="263.52" xlink:href="#linear-gradient-5"/><linearGradient id="linear-gradient-39" x1="384.2" y1="267.12" x2="340.79" y2="267.12" xlink:href="#linear-gradient-5"/><linearGradient id="linear-gradient-40" x1="384.2" y1="270.72" x2="340.79" y2="270.72" xlink:href="#linear-gradient-5"/><linearGradient id="linear-gradient-41" x1="384.2" y1="274.32" x2="340.79" y2="274.32" xlink:href="#linear-gradient-5"/><linearGradient id="New_Gradient_Swatch_3" x1="165.56" y1="157.19" x2="177.56" y2="157.19" gradientUnits="userSpaceOnUse"><stop offset="0" stop-color="#9de7db"/><stop offset="1" stop-color="#33f2b2"/></linearGradient><linearGradient id="New_Gradient_Swatch_3-2" x1="202.43" y1="157.19" x2="376.5" y2="157.19" xlink:href="#New_Gradient_Swatch_3"/><linearGradient id="New_Gradient_Swatch_3-3" x1="401.37" y1="162.29" x2="415.17" y2="162.29" xlink:href="#New_Gradient_Swatch_3"/><linearGradient id="New_Gradient_Swatch_3-4" x1="411.57" y1="244.88" x2="415.17" y2="244.88" xlink:href="#New_Gradient_Swatch_3"/><linearGradient id="New_Gradient_Swatch_3-5" x1="411.57" y1="326.57" x2="415.17" y2="326.57" xlink:href="#New_Gradient_Swatch_3"/><linearGradient id="New_Gradient_Swatch_3-6" x1="165.56" y1="121.19" x2="177.56" y2="121.19" xlink:href="#New_Gradient_Swatch_3"/><linearGradient id="New_Gradient_Swatch_3-7" x1="201.18" y1="121.19" x2="413.75" y2="121.19" xlink:href="#New_Gradient_Swatch_3"/><linearGradient id="New_Gradient_Swatch_3-8" x1="437.37" y1="126.29" x2="451.17" y2="126.29" xlink:href="#New_Gradient_Swatch_3"/><linearGradient id="New_Gradient_Swatch_3-9" x1="447.57" y1="226.88" x2="451.17" y2="226.88" xlink:href="#New_Gradient_Swatch_3"/><linearGradient id="New_Gradient_Swatch_3-10" x1="447.57" y1="326.57" x2="451.17" y2="326.57" xlink:href="#New_Gradient_Swatch_3"/><linearGradient id="New_Gradient_Swatch_3-11" x1="107.57" y1="145.08" x2="158.63" y2="145.08" xlink:href="#New_Gradient_Swatch_3"/><linearGradient id="New_Gradient_Swatch_3-12" x1="400.37" y1="367.08" x2="451.43" y2="367.08" xlink:href="#New_Gradient_Swatch_3"/><linearGradient id="New_Gradient_Swatch_3-13" x1="412.37" y1="367.08" x2="439.43" y2="367.08" xlink:href="#New_Gradient_Swatch_3"/><linearGradient id="New_Gradient_Swatch_3-14" x1="119.57" y1="145.08" x2="146.63" y2="145.08" xlink:href="#New_Gradient_Swatch_3"/><linearGradient id="New_Gradient_Swatch_3-15" x1="120.59" y1="145.89" x2="147.38" y2="145.89" gradientTransform="translate(141.84 -52.03) rotate(44.84)" xlink:href="#New_Gradient_Swatch_3"/><linearGradient id="New_Gradient_Swatch_3-16" x1="412.07" y1="366.42" x2="438.86" y2="366.42" gradientTransform="translate(382.12 -193.41) rotate(44.84)" xlink:href="#New_Gradient_Swatch_3"/></defs><title>Responsive_design</title><g id="Responsive_design"><path d="M423.73,367.1h0V196.52a14.91,14.91,0,0,0-14.92-14.91H135.5a14.91,14.91,0,0,0-14.92,14.91V367.1h-42v1.3a23.85,23.85,0,0,0,23.85,23.85H399.88A23.84,23.84,0,0,0,423.7,369h0v-.41c0-.07,0-.13,0-.2Z" style="fill:url(#linear-gradient)"/><path d="M123.5,181.61H396.8a14.92,14.92,0,0,1,14.92,14.92V369a0,0,0,0,1,0,0H108.58a0,0,0,0,1,0,0V196.52A14.92,14.92,0,0,1,123.5,181.61Z" style="fill:url(#linear-gradient-2)"/><rect x="130.46" y="205.46" width="259.59" height="161.95" style="fill:url(#linear-gradient-3)"/><path d="M60.57,367.1H393.73a0,0,0,0,1,0,0v1.29a23.85,23.85,0,0,1-23.85,23.85H84.42A23.85,23.85,0,0,1,60.57,368.4V367.1A0,0,0,0,1,60.57,367.1Z" style="fill:url(#linear-gradient-4)"/><path d="M261.78,194.41a5.07,5.07,0,1,1-5.07-5.08A5.07,5.07,0,0,1,261.78,194.41Z" style="fill:#543254"/><rect x="154.15" y="231.24" width="56.61" height="2.4" style="fill:url(#linear-gradient-5)"/><rect x="154.15" y="237.24" width="56.61" height="2.4" style="fill:url(#linear-gradient-6)"/><rect x="154.15" y="243.24" width="56.61" height="2.4" style="fill:url(#linear-gradient-7)"/><rect x="154.15" y="249.24" width="56.61" height="2.4" style="fill:url(#linear-gradient-8)"/><rect x="154.15" y="255.24" width="56.61" height="2.4" style="fill:url(#linear-gradient-9)"/><rect x="154.15" y="261.24" width="56.61" height="2.4" style="fill:url(#linear-gradient-10)"/><rect x="154.15" y="267.24" width="56.61" height="2.4" style="fill:url(#linear-gradient-11)"/><rect x="154.15" y="273.24" width="56.61" height="2.4" style="fill:url(#linear-gradient-12)"/><rect x="154.15" y="279.24" width="56.61" height="2.4" style="fill:url(#linear-gradient-13)"/><rect x="154.15" y="285.24" width="56.61" height="2.4" style="fill:url(#linear-gradient-14)"/><rect x="154.15" y="291.24" width="56.61" height="2.4" style="fill:url(#linear-gradient-15)"/><rect x="154.15" y="297.24" width="56.61" height="2.4" style="fill:url(#linear-gradient-16)"/><rect x="154.15" y="303.24" width="56.61" height="2.4" style="fill:url(#linear-gradient-17)"/><rect x="154.15" y="309.24" width="56.61" height="2.4" style="fill:url(#linear-gradient-18)"/><rect x="154.15" y="315.24" width="56.61" height="2.4" style="fill:url(#linear-gradient-19)"/><rect x="154.15" y="321.24" width="56.61" height="2.4" style="fill:url(#linear-gradient-20)"/><rect x="154.15" y="327.24" width="56.61" height="2.4" style="fill:url(#linear-gradient-21)"/><rect x="154.15" y="333.24" width="56.61" height="2.4" style="fill:url(#linear-gradient-22)"/><rect x="154.15" y="339.24" width="56.61" height="2.4" style="fill:url(#linear-gradient-23)"/><rect x="154.15" y="345.24" width="56.61" height="2.4" style="fill:url(#linear-gradient-24)"/><rect x="219.51" y="230.78" width="147.66" height="117.71" style="fill:url(#linear-gradient-25)"/><rect x="333.89" y="165.24" width="70.47" height="137.32" rx="8.94" style="fill:url(#linear-gradient-26)"/><rect x="327.79" y="165.24" width="70.47" height="137.32" rx="8.94" style="fill:url(#linear-gradient-27)"/><rect x="331.5" y="181.2" width="63.06" height="105.4" style="fill:#fff"/><path d="M363,299.79a5.66,5.66,0,1,1,5.66-5.66A5.67,5.67,0,0,1,363,299.79Zm0-10.5a4.84,4.84,0,1,0,4.84,4.84A4.85,4.85,0,0,0,363,289.29Z" style="fill:#543254"/><rect x="356.95" y="173.21" width="12.16" height="0.93" style="fill:#543254"/><rect x="341.36" y="192.72" width="16.42" height="38.14" style="fill:url(#linear-gradient-28)"/><rect x="357.52" y="192.72" width="28" height="38.14" style="fill:url(#linear-gradient-29)"/><rect x="340.79" y="234.12" width="43.42" height="1.2" style="fill:#dedad5"/><rect x="340.79" y="237.72" width="43.42" height="1.2" style="fill:#dedad5"/><rect x="340.79" y="241.32" width="43.42" height="1.2" style="fill:#dedad5"/><rect x="340.79" y="244.92" width="43.42" height="1.2" style="fill:#dedad5"/><rect x="340.79" y="248.52" width="43.42" height="1.2" style="fill:#dedad5"/><rect x="340.79" y="252.12" width="43.42" height="1.2" style="fill:#dedad5"/><rect x="340.79" y="234.12" width="43.42" height="1.2" style="fill:url(#linear-gradient-30)"/><rect x="340.79" y="237.72" width="43.42" height="1.2" style="fill:url(#linear-gradient-31)"/><rect x="340.79" y="241.32" width="43.42" height="1.2" style="fill:url(#linear-gradient-32)"/><rect x="340.79" y="244.92" width="43.42" height="1.2" style="fill:url(#linear-gradient-33)"/><rect x="340.79" y="248.52" width="43.42" height="1.2" style="fill:url(#linear-gradient-34)"/><rect x="340.79" y="252.12" width="43.42" height="1.2" style="fill:url(#linear-gradient-35)"/><rect x="340.79" y="255.72" width="43.42" height="1.2" style="fill:url(#linear-gradient-36)"/><rect x="340.79" y="259.32" width="43.42" height="1.2" style="fill:url(#linear-gradient-37)"/><rect x="340.79" y="262.92" width="43.42" height="1.2" style="fill:url(#linear-gradient-38)"/><rect x="340.79" y="266.52" width="43.42" height="1.2" style="fill:url(#linear-gradient-39)"/><rect x="340.79" y="270.12" width="43.42" height="1.2" style="fill:url(#linear-gradient-40)"/><rect x="340.79" y="273.72" width="43.42" height="1.2" style="fill:url(#linear-gradient-41)"/><rect x="340.79" y="255.72" width="43.42" height="1.2" style="fill:url(#linear-gradient-36)"/><rect x="340.79" y="259.32" width="43.42" height="1.2" style="fill:url(#linear-gradient-37)"/><rect x="340.79" y="262.92" width="43.42" height="1.2" style="fill:url(#linear-gradient-38)"/><rect x="340.79" y="266.52" width="43.42" height="1.2" style="fill:url(#linear-gradient-39)"/><rect x="340.79" y="270.12" width="43.42" height="1.2" style="fill:url(#linear-gradient-40)"/><rect x="340.79" y="273.72" width="43.42" height="1.2" style="fill:url(#linear-gradient-41)"/><rect x="165.56" y="155.39" width="12" height="3.6" style="fill:url(#New_Gradient_Swatch_3)"/><path d="M376.5,159H351.63v-3.6H376.5Zm-49.73,0H301.9v-3.6h24.87ZM277,159H252.16v-3.6H277Zm-49.73,0H202.43v-3.6H227.3Z" style="fill:url(#New_Gradient_Swatch_3-2)"/><polygon points="415.17 169.19 411.57 169.19 411.57 158.99 401.37 158.99 401.37 155.39 415.17 155.39 415.17 169.19" style="fill:url(#New_Gradient_Swatch_3-3)"/><path d="M415.17,299h-3.6V277.32h3.6Zm0-43.25h-3.6V234.07h3.6Zm0-43.25h-3.6V190.82h3.6Z" style="fill:url(#New_Gradient_Swatch_3-4)"/><rect x="411.57" y="320.57" width="3.6" height="12" style="fill:url(#New_Gradient_Swatch_3-5)"/><rect x="165.56" y="119.39" width="12" height="3.6" style="fill:url(#New_Gradient_Swatch_3-6)"/><path d="M413.75,123H390.13v-3.6h23.62Zm-47.24,0H342.89v-3.6h23.62Zm-47.24,0H295.66v-3.6h23.61ZM272,123H248.42v-3.6H272Zm-47.24,0H201.18v-3.6H224.8Z" style="fill:url(#New_Gradient_Swatch_3-7)"/><polygon points="451.17 133.19 447.57 133.19 447.57 122.99 437.37 122.99 437.37 119.39 451.17 119.39 451.17 133.19" style="fill:url(#New_Gradient_Swatch_3-8)"/><path d="M451.17,293.8h-3.6V267h3.6Zm0-53.53h-3.6V213.5h3.6Zm0-53.54h-3.6V160h3.6Z" style="fill:url(#New_Gradient_Swatch_3-9)"/><rect x="447.57" y="320.57" width="3.6" height="12" style="fill:url(#New_Gradient_Swatch_3-10)"/><polygon points="111.17 170.61 107.57 170.61 107.57 119.55 158.63 119.55 158.63 123.15 111.17 123.15 111.17 170.61" style="fill:url(#New_Gradient_Swatch_3-11)"/><polygon points="451.43 392.61 400.37 392.61 400.37 389.01 447.83 389.01 447.83 341.55 451.43 341.55 451.43 392.61" style="fill:url(#New_Gradient_Swatch_3-12)"/><polygon points="439.43 380.61 412.37 380.61 412.37 377.01 435.83 377.01 435.83 353.55 439.43 353.55 439.43 380.61" style="fill:url(#New_Gradient_Swatch_3-13)"/><polygon points="123.17 158.61 119.57 158.61 119.57 131.55 146.63 131.55 146.63 135.15 123.17 135.15 123.17 158.61" style="fill:url(#New_Gradient_Swatch_3-14)"/><rect x="132.18" y="128.71" width="3.6" height="34.37" transform="translate(-63.9 136.91) rotate(-44.84)" style="fill:url(#New_Gradient_Swatch_3-15)"/><rect x="423.66" y="349.23" width="3.6" height="34.37" transform="translate(-134.6 406.58) rotate(-44.84)" style="fill:url(#New_Gradient_Swatch_3-16)"/></g></svg>