<svg xmlns="http://www.w3.org/2000/svg" xmlns:xlink="http://www.w3.org/1999/xlink" viewBox="0 0 512 512"><defs><linearGradient id="linear-gradient" x1="53.79" y1="218.2" x2="325.89" y2="218.2" gradientUnits="userSpaceOnUse"><stop offset="0" stop-color="#fff"/><stop offset="0.14" stop-color="#fff"/><stop offset="1" stop-color="#fff"/></linearGradient><linearGradient id="linear-gradient-2" x1="464.45" y1="218.05" x2="34.7" y2="218.05" gradientUnits="userSpaceOnUse"><stop offset="0" stop-color="#fd72b7"/><stop offset="0.16" stop-color="#fd78bb"/><stop offset="0.37" stop-color="#fd8ac6"/><stop offset="0.62" stop-color="#fda6d9"/><stop offset="0.89" stop-color="#fdcef3"/><stop offset="1" stop-color="#fde1ff"/></linearGradient><linearGradient id="linear-gradient-3" x1="212.92" y1="290.4" x2="316.08" y2="290.4" gradientUnits="userSpaceOnUse"><stop offset="0" stop-color="#7b56ab"/><stop offset="0.42" stop-color="#5e4577"/><stop offset="0.8" stop-color="#48374e"/><stop offset="1" stop-color="#3f323e"/></linearGradient><linearGradient id="linear-gradient-4" x1="279.43" y1="218.8" x2="477.3" y2="218.8" gradientUnits="userSpaceOnUse"><stop offset="0" stop-color="#006e76"/><stop offset="0.28" stop-color="#007376"/><stop offset="0.62" stop-color="#008276"/><stop offset="0.98" stop-color="#009a76"/><stop offset="1" stop-color="#009b76"/></linearGradient><linearGradient id="linear-gradient-5" x1="290.43" y1="261.89" x2="465.87" y2="261.89" gradientUnits="userSpaceOnUse"><stop offset="0" stop-color="#9de7db"/><stop offset="1" stop-color="#339ab2"/></linearGradient><linearGradient id="New_Gradient_Swatch_3" x1="375.42" y1="326.7" x2="285.65" y2="326.7" gradientUnits="userSpaceOnUse"><stop offset="0" stop-color="#9de7db"/><stop offset="1" stop-color="#33f2b2"/></linearGradient></defs><title>SEO</title><g id="SEO"><path d="M122.89,283.7a65.5,65.5,0,0,1,0-131h203v-3.6h-203a69.1,69.1,0,0,0,0,138.2H229.11v-3.6Z" style="fill:url(#linear-gradient)"/><path d="M376.25,129.85H122.9a88.2,88.2,0,1,0,0,176.39H229.11v-3.82H122.9a84.38,84.38,0,1,1,0-168.75H376.25a84.38,84.38,0,1,1,0,168.75H307.71v3.82h68.54a88.2,88.2,0,1,0,0-176.39Z" style="fill:url(#linear-gradient-2)"/><path d="M314.55,278a9.45,9.45,0,0,1-7.83-17.17,51.25,51.25,0,0,0-15.34-14.39A9.45,9.45,0,0,1,274,239.72a51.18,51.18,0,0,0-20.65.33,9.46,9.46,0,0,1-17,7.16,51.17,51.17,0,0,0-14.68,14.52,9.45,9.45,0,0,1-7.39,17.09,51.31,51.31,0,0,0-.45,21,9.45,9.45,0,0,1,6.79,17.61,51.39,51.39,0,0,0,15.09,15.71c0-.09.06-.19.1-.28A9.46,9.46,0,0,1,253.3,340c-.09.22-.19.42-.3.63a51.14,51.14,0,0,0,22.47.12c-.15-.28-.29-.56-.42-.86a9.47,9.47,0,0,1,17.45-7.34c.12.3.23.6.33.91a51.39,51.39,0,0,0,15.63-16.14c-.22-.07-.44-.14-.66-.23A9.46,9.46,0,0,1,315,299.61l.27.13A51.27,51.27,0,0,0,314.55,278Zm-37.41,42.51a32.64,32.64,0,1,1,17.44-42.73A32.62,32.62,0,0,1,277.14,320.47Z" style="fill:url(#linear-gradient-3)"/><path d="M402,294.36a78.06,78.06,0,1,1,51.1-97.85A78.15,78.15,0,0,1,402,294.36ZM355.66,146.74a76.65,76.65,0,1,0,96.08,50.19A76.75,76.75,0,0,0,355.66,146.74Z" style="fill:#faf7f0"/><path d="M312.4,241a.7.7,0,0,1-.88-.46A71,71,0,0,1,358,151.66a.7.7,0,0,1,.42,1.34,69.59,69.59,0,0,0-45.51,87.13A.7.7,0,0,1,312.4,241Z" style="fill:#faf7f0"/><path d="M408,313.19a98.92,98.92,0,1,1,64.77-124A99,99,0,0,1,408,313.19ZM352.34,135.87a86.92,86.92,0,1,0,109,56.91A87,87,0,0,0,352.34,135.87Z" style="fill:url(#linear-gradient-4)"/><path d="M461.7,192.73a87.69,87.69,0,1,0-61.05,111.39l27.1,85a4.3,4.3,0,0,0,8.2-2.62l-27.1-85A87.7,87.7,0,0,0,461.7,192.73ZM404.33,297.2l-2.49.79a82,82,0,1,1,2.49-.79Z" style="fill:url(#linear-gradient-5)"/><path d="M367.35,325.38a8.33,8.33,0,0,1,7.57-8.29,45.16,45.16,0,0,0-7.54-16.92,8.33,8.33,0,0,1-11.84-11.36A45,45,0,0,0,338.67,282a8.33,8.33,0,0,1-16.27,0,45.08,45.08,0,0,0-16.88,6.78,8.33,8.33,0,0,1-11.84,11.36,45.16,45.16,0,0,0-7.54,16.92,8.32,8.32,0,0,1-.49,16.61,45.2,45.2,0,0,0,6.89,17.91l.17-.19A8.33,8.33,0,1,1,304.5,363.2a5.87,5.87,0,0,1-.46.41,45.05,45.05,0,0,0,18.2,7.77,7.94,7.94,0,0,1,0-.85,8.34,8.34,0,0,1,16.67,0,7.92,7.92,0,0,1-.05.85,45.05,45.05,0,0,0,18.2-7.77,5.74,5.74,0,0,1-.45-.41,8.33,8.33,0,0,1,11.78-11.78l.18.19a45.2,45.2,0,0,0,6.89-17.91A8.33,8.33,0,0,1,367.35,325.38Zm-36.82,22.05a20.07,20.07,0,1,1,20.07-20.07A20.08,20.08,0,0,1,330.53,347.43Z" style="fill:url(#New_Gradient_Swatch_3)"/></g></svg>