<svg xmlns="http://www.w3.org/2000/svg" xmlns:xlink="http://www.w3.org/1999/xlink" viewBox="0 0 512 512"><defs><linearGradient id="linear-gradient" x1="305.03" y1="96.34" x2="305.03" y2="415.66" gradientUnits="userSpaceOnUse"><stop offset="0" stop-color="#7b78ab"/><stop offset="0.01" stop-color="#7975a7"/><stop offset="0.12" stop-color="#676187"/><stop offset="0.25" stop-color="#58506c"/><stop offset="0.38" stop-color="#4d4258"/><stop offset="0.53" stop-color="#453949"/><stop offset="0.71" stop-color="#403441"/><stop offset="1" stop-color="#3f323e"/></linearGradient><linearGradient id="New_Gradient_Swatch_3" x1="84.99" y1="256" x2="322.41" y2="256" gradientUnits="userSpaceOnUse"><stop offset="0" stop-color="#9de7db"/><stop offset="1" stop-color="#33f2b2"/></linearGradient></defs><title>Server</title><g id="Server"><rect x="183.05" y="96.34" width="243.96" height="319.33" style="fill:url(#linear-gradient)"/><rect x="84.99" y="96.34" width="237.43" height="319.33" style="fill:url(#New_Gradient_Swatch_3)"/><rect x="84.98" y="276.9" width="237.44" height="2.61" style="fill:#009b76"/><rect x="84.98" y="322.66" width="237.44" height="2.61" style="fill:#009b76"/><rect x="84.98" y="368.43" width="237.44" height="2.61" style="fill:#009b76"/><rect x="84.98" y="231.14" width="237.44" height="2.61" style="fill:#009b76"/><rect x="84.98" y="185.38" width="237.44" height="2.61" style="fill:#009b76"/><rect x="84.98" y="139.61" width="237.44" height="2.61" style="fill:#009b76"/><rect x="322.83" y="276.9" width="104.19" height="2.61" style="fill:#ff9dea"/><rect x="322.83" y="322.66" width="104.19" height="2.61" style="fill:#ff9dea"/><rect x="322.83" y="368.43" width="104.19" height="2.61" style="fill:#ff9dea"/><rect x="322.83" y="231.14" width="104.19" height="2.61" style="fill:#ff9dea"/><rect x="322.83" y="185.38" width="104.19" height="2.61" style="fill:#ff9dea"/><rect x="322.83" y="139.61" width="104.19" height="2.61" style="fill:#ff9dea"/><circle cx="293.45" cy="119.04" r="5.28" style="fill:#543254"/><path d="M279.12,119a5.29,5.29,0,1,1-5.28-5.28A5.28,5.28,0,0,1,279.12,119Z" style="fill:#543254"/><circle cx="254.22" cy="119.04" r="5.28" style="fill:#543254"/><circle cx="293.45" cy="164.81" r="5.28" style="fill:#543254"/><path d="M279.12,164.81a5.29,5.29,0,1,1-5.28-5.29A5.28,5.28,0,0,1,279.12,164.81Z" style="fill:#543254"/><circle cx="254.22" cy="164.81" r="5.28" style="fill:#543254"/><path d="M298.73,210.57a5.28,5.28,0,1,1-5.28-5.28A5.27,5.27,0,0,1,298.73,210.57Z" style="fill:#543254"/><path d="M279.12,210.57a5.29,5.29,0,1,1-5.28-5.28A5.27,5.27,0,0,1,279.12,210.57Z" style="fill:#543254"/><path d="M259.51,210.57a5.29,5.29,0,1,1-5.29-5.28A5.28,5.28,0,0,1,259.51,210.57Z" style="fill:#543254"/><path d="M298.73,256.33a5.28,5.28,0,1,1-5.28-5.28A5.28,5.28,0,0,1,298.73,256.33Z" style="fill:#543254"/><path d="M279.12,256.33a5.29,5.29,0,1,1-5.28-5.28A5.28,5.28,0,0,1,279.12,256.33Z" style="fill:#543254"/><path d="M259.51,256.33a5.29,5.29,0,1,1-5.29-5.28A5.29,5.29,0,0,1,259.51,256.33Z" style="fill:#543254"/><path d="M298.73,302.09a5.28,5.28,0,1,1-5.28-5.28A5.28,5.28,0,0,1,298.73,302.09Z" style="fill:#543254"/><path d="M279.12,302.09a5.29,5.29,0,1,1-5.28-5.28A5.28,5.28,0,0,1,279.12,302.09Z" style="fill:#543254"/><path d="M259.51,302.09a5.29,5.29,0,1,1-5.29-5.28A5.29,5.29,0,0,1,259.51,302.09Z" style="fill:#543254"/><circle cx="293.45" cy="347.86" r="5.28" style="fill:#543254"/><path d="M279.12,347.86a5.29,5.29,0,1,1-5.28-5.29A5.27,5.27,0,0,1,279.12,347.86Z" style="fill:#543254"/><circle cx="254.22" cy="347.86" r="5.28" style="fill:#543254"/><circle cx="293.45" cy="393.62" r="5.28" style="fill:#543254"/><path d="M279.12,393.62a5.29,5.29,0,1,1-5.28-5.28A5.27,5.27,0,0,1,279.12,393.62Z" style="fill:#543254"/><circle cx="254.22" cy="393.62" r="5.28" style="fill:#543254"/><rect x="183.13" y="118.02" width="44.82" height="1.96" style="fill:#543254"/><rect x="183.13" y="163.79" width="44.82" height="1.96" style="fill:#543254"/><rect x="183.13" y="209.55" width="44.82" height="1.96" style="fill:#543254"/><rect x="183.13" y="255.31" width="44.82" height="1.96" style="fill:#543254"/><rect x="183.13" y="301.07" width="44.82" height="1.96" style="fill:#543254"/><rect x="183.13" y="346.84" width="44.82" height="1.96" style="fill:#543254"/><rect x="183.13" y="392.6" width="44.82" height="1.96" style="fill:#543254"/></g></svg>