<svg xmlns="http://www.w3.org/2000/svg" xmlns:xlink="http://www.w3.org/1999/xlink" viewBox="0 0 512 512"><defs><linearGradient id="linear-gradient" x1="427.63" y1="264.89" x2="118.83" y2="264.89" gradientUnits="userSpaceOnUse"><stop offset="0" stop-color="#c8e7db"/><stop offset="0.1" stop-color="#a0ead0"/><stop offset="0.21" stop-color="#7fecc7"/><stop offset="0.33" stop-color="#63eebf"/><stop offset="0.46" stop-color="#4ef0b9"/><stop offset="0.59" stop-color="#3ff1b5"/><stop offset="0.76" stop-color="#36f2b3"/><stop offset="1" stop-color="#33f2b2"/></linearGradient><linearGradient id="New_Gradient_Swatch_6" x1="455.93" y1="219.81" x2="333.07" y2="148.87" gradientUnits="userSpaceOnUse"><stop offset="0" stop-color="#bf77b7"/><stop offset="0.02" stop-color="#bc75b4"/><stop offset="0.22" stop-color="#975d92"/><stop offset="0.42" stop-color="#794a77"/><stop offset="0.62" stop-color="#653d63"/><stop offset="0.81" stop-color="#583558"/><stop offset="1" stop-color="#543254"/></linearGradient><linearGradient id="linear-gradient-2" x1="399.05" y1="353.58" x2="388.13" y2="353.58" gradientUnits="userSpaceOnUse"><stop offset="0" stop-color="#7b78ab"/><stop offset="0.21" stop-color="#666086"/><stop offset="0.42" stop-color="#554c67"/><stop offset="0.63" stop-color="#493e50"/><stop offset="0.82" stop-color="#423543"/><stop offset="1" stop-color="#3f323e"/></linearGradient><linearGradient id="linear-gradient-3" x1="84.38" y1="365.41" x2="262.31" y2="365.41" gradientUnits="userSpaceOnUse"><stop offset="0" stop-color="#006e76"/><stop offset="1" stop-color="#009b76"/></linearGradient><linearGradient id="linear-gradient-4" x1="165.03" y1="266.21" x2="347.59" y2="266.21" xlink:href="#linear-gradient-2"/><linearGradient id="linear-gradient-5" x1="152.44" y1="254.79" x2="335" y2="254.79" gradientUnits="userSpaceOnUse"><stop offset="0" stop-color="#fda1e8"/><stop offset="1" stop-color="#fde1ff"/></linearGradient><linearGradient id="linear-gradient-6" x1="152.44" y1="144.88" x2="335" y2="144.88" gradientUnits="userSpaceOnUse"><stop offset="0" stop-color="#ff9dea"/><stop offset="1" stop-color="#e46f8b"/></linearGradient><linearGradient id="linear-gradient-7" x1="316.25" y1="239.14" x2="282.03" y2="239.14" gradientUnits="userSpaceOnUse"><stop offset="0" stop-color="#fff" stop-opacity="0"/><stop offset="0.04" stop-color="#fff" stop-opacity="0.13"/><stop offset="0.1" stop-color="#fff" stop-opacity="0.31"/><stop offset="0.16" stop-color="#fff" stop-opacity="0.48"/><stop offset="0.24" stop-color="#fff" stop-opacity="0.62"/><stop offset="0.31" stop-color="#fff" stop-opacity="0.74"/><stop offset="0.39" stop-color="#fff" stop-opacity="0.83"/><stop offset="0.49" stop-color="#fff" stop-opacity="0.91"/><stop offset="0.59" stop-color="#fff" stop-opacity="0.96"/><stop offset="0.73" stop-color="#fff" stop-opacity="0.99"/><stop offset="1" stop-color="#fff"/></linearGradient><linearGradient id="linear-gradient-8" x1="316.25" y1="198.35" x2="282.03" y2="198.35" xlink:href="#linear-gradient-7"/><linearGradient id="linear-gradient-9" x1="318.75" y1="317.13" x2="286.01" y2="317.13" xlink:href="#linear-gradient-7"/><linearGradient id="linear-gradient-10" x1="275.35" y1="211.49" x2="170.25" y2="211.49" xlink:href="#linear-gradient-7"/><linearGradient id="linear-gradient-11" x1="170.25" y1="332.56" x2="275.35" y2="332.56" gradientUnits="userSpaceOnUse"><stop offset="0" stop-color="#fff" stop-opacity="0"/><stop offset="0.04" stop-color="#f4f4f4" stop-opacity="0.16"/><stop offset="0.09" stop-color="#e6e6e6" stop-opacity="0.36"/><stop offset="0.14" stop-color="#dadada" stop-opacity="0.53"/><stop offset="0.2" stop-color="#d0d0d0" stop-opacity="0.68"/><stop offset="0.28" stop-color="#c8c8c8" stop-opacity="0.8"/><stop offset="0.36" stop-color="#c2c2c2" stop-opacity="0.89"/><stop offset="0.46" stop-color="#bdbdbd" stop-opacity="0.95"/><stop offset="0.6" stop-color="#bbb" stop-opacity="0.99"/><stop offset="1" stop-color="#bababa"/></linearGradient><linearGradient id="linear-gradient-12" x1="207.48" y1="212.32" x2="239.51" y2="212.32" xlink:href="#linear-gradient-11"/></defs><title>UIUX_design</title><g id="UIUX_design"><path d="M426.43,194.09a1.2,1.2,0,1,0,0-2.4h-32v-45.6h32a1.2,1.2,0,0,0,0-2.4h-32v-32a1.2,1.2,0,0,0-2.4,0v32h-45.6v-32a1.2,1.2,0,0,0-2.4,0v32h-45.6v-32a1.2,1.2,0,0,0-2.4,0v32h-45.6v-32a1.2,1.2,0,0,0-2.4,0v32h-45.6v-32a1.2,1.2,0,0,0-2.4,0v32h-45.6v-32a1.2,1.2,0,0,0-2.4,0v32H120a1.2,1.2,0,1,0,0,2.4h32v45.6H120a1.2,1.2,0,1,0,0,2.4h32v45.6H120a1.2,1.2,0,1,0,0,2.4h32v45.6H120a1.2,1.2,0,0,0,0,2.4h32v45.6H120a1.2,1.2,0,0,0,0,2.4h32v45.6H120a1.2,1.2,0,0,0,0,2.4h32v32a1.2,1.2,0,0,0,2.4,0v-32H200v32a1.2,1.2,0,0,0,2.4,0v-32H248v32a1.2,1.2,0,0,0,2.4,0v-32H296v32a1.2,1.2,0,1,0,2.4,0v-32H344v32a1.2,1.2,0,1,0,2.4,0v-32H392v32a1.2,1.2,0,1,0,2.4,0v-32h32a1.2,1.2,0,0,0,0-2.4h-32v-45.6h32a1.2,1.2,0,0,0,0-2.4h-32v-45.6h32a1.2,1.2,0,0,0,0-2.4h-32v-45.6h32a1.2,1.2,0,1,0,0-2.4h-32v-45.6Zm-34.4-48v45.6h-45.6v-45.6Zm-48,0v45.6h-45.6v-45.6Zm-93.6,93.6v-45.6H296v45.6Zm45.6,2.4v45.6h-45.6v-45.6Zm-48-2.4h-45.6v-45.6H248Zm0,2.4v45.6h-45.6v-45.6Zm0,48v45.6h-45.6v-45.6Zm2.4,0H296v45.6h-45.6Zm48,0H344v45.6h-45.6Zm0-2.4v-45.6H344v45.6Zm0-48v-45.6H344v45.6Zm-2.4-93.6v45.6h-45.6v-45.6Zm-48,0v45.6h-45.6v-45.6Zm-93.6,0H200v45.6h-45.6Zm0,48H200v45.6h-45.6Zm0,48H200v45.6h-45.6Zm0,48H200v45.6h-45.6Zm0,93.6v-45.6H200v45.6Zm48,0v-45.6H248v45.6Zm48,0v-45.6H296v45.6Zm48,0v-45.6H344v45.6Zm93.6,0h-45.6v-45.6H392Zm0-48h-45.6v-45.6H392Zm0-48h-45.6v-45.6H392Zm0-48h-45.6v-45.6H392Z" style="fill:url(#linear-gradient)"/><path d="M407.16,304.27H380V71.19a13.57,13.57,0,0,1,13.57-13.57h0a13.57,13.57,0,0,1,13.57,13.57Z" style="fill:url(#New_Gradient_Swatch_6)"/><polygon points="407.18 304.33 393.59 365.96 380 304.33 407.18 304.33" style="fill:#fddcff"/><polygon points="388.13 341.21 393.59 365.96 399.05 341.21 388.13 341.21" style="fill:url(#linear-gradient-2)"/><rect x="380.04" y="102.38" width="27.16" height="2.82" style="fill:#fddcff"/><path d="M84.38,276.45V454.38H262.31Zm34.69,80.81,62.6,62.6h-62.6Z" style="fill:url(#linear-gradient-3)"/><rect x="84.39" y="432.79" width="17.19" height="1.74" style="fill:#ff9dea"/><rect x="84.39" y="424.11" width="12.85" height="1.74" style="fill:#ff9dea"/><rect x="84.39" y="415.44" width="17.19" height="1.74" style="fill:#ff9dea"/><rect x="84.39" y="406.76" width="12.85" height="1.74" style="fill:#ff9dea"/><rect x="84.39" y="398.09" width="17.19" height="1.74" style="fill:#ff9dea"/><rect x="84.39" y="389.41" width="12.85" height="1.74" style="fill:#ff9dea"/><rect x="84.39" y="380.74" width="17.19" height="1.74" style="fill:#ff9dea"/><rect x="84.39" y="372.06" width="12.85" height="1.74" style="fill:#ff9dea"/><rect x="84.39" y="363.39" width="17.19" height="1.74" style="fill:#ff9dea"/><rect x="84.39" y="354.71" width="12.85" height="1.74" style="fill:#ff9dea"/><rect x="84.39" y="346.04" width="17.19" height="1.74" style="fill:#ff9dea"/><rect x="84.39" y="337.36" width="12.85" height="1.74" style="fill:#ff9dea"/><rect x="84.39" y="328.69" width="17.19" height="1.74" style="fill:#ff9dea"/><rect x="84.39" y="320.01" width="12.85" height="1.74" style="fill:#ff9dea"/><rect x="84.39" y="311.34" width="17.19" height="1.74" style="fill:#ff9dea"/><path d="M165.83,145.75H343.75a3.84,3.84,0,0,1,3.84,3.84v234a3,3,0,0,1-3,3H168.08a3,3,0,0,1-3-3V146.54A.79.79,0,0,1,165.83,145.75Z" style="fill:url(#linear-gradient-4)"/><path d="M156.28,134.33H331.16a3.84,3.84,0,0,1,3.84,3.84v234a3,3,0,0,1-3,3H155.49a3,3,0,0,1-3-3v-234A3.84,3.84,0,0,1,156.28,134.33Z" style="fill:url(#linear-gradient-5)"/><path d="M156.17,134.33H331.28a3.72,3.72,0,0,1,3.72,3.72v17.38a0,0,0,0,1,0,0H152.44a0,0,0,0,1,0,0V138.05A3.72,3.72,0,0,1,156.17,134.33Z" style="fill:url(#linear-gradient-6)"/><rect x="282.03" y="228.77" width="34.22" height="20.74" style="fill:url(#linear-gradient-7)"/><rect x="282.03" y="174.23" width="34.22" height="48.24" style="fill:url(#linear-gradient-8)"/><rect x="286.01" y="276.3" width="32.74" height="81.66" style="fill:url(#linear-gradient-9)"/><path d="M167.26,144.93a3.64,3.64,0,1,1-3.63-3.63A3.63,3.63,0,0,1,167.26,144.93Z" style="fill:#faf7f0"/><rect x="170.25" y="173.82" width="105.1" height="75.34" style="fill:url(#linear-gradient-10)"/><rect x="170.25" y="307.3" width="105.1" height="50.54" style="fill:url(#linear-gradient-11)"/><path d="M179.66,144.93A3.64,3.64,0,1,1,176,141.3,3.63,3.63,0,0,1,179.66,144.93Z" style="fill:#faf7f0"/><path d="M191.88,144.93a3.64,3.64,0,1,1-3.64-3.63A3.64,3.64,0,0,1,191.88,144.93Z" style="fill:#faf7f0"/><rect x="168.6" y="260.96" width="150.16" height="2.16" style="fill:#543254"/><rect x="168.6" y="268.14" width="150.17" height="2.16" style="fill:#543254"/><rect x="168.6" y="275.32" width="106.64" height="2.16" style="fill:#543254"/><rect x="168.6" y="281.41" width="106.64" height="2.16" style="fill:#543254"/><rect x="168.6" y="288.59" width="106.65" height="2.16" style="fill:#543254"/><rect x="168.6" y="295.77" width="106.64" height="2.16" style="fill:#543254"/><polygon points="207.48 193.79 239.51 212.32 207.48 230.85 207.48 193.79" style="fill:url(#linear-gradient-12)"/></g></svg>