<svg xmlns="http://www.w3.org/2000/svg" xmlns:xlink="http://www.w3.org/1999/xlink" viewBox="0 0 512 512"><defs><linearGradient id="linear-gradient" x1="268.38" y1="432.66" x2="268.38" y2="142.83" gradientUnits="userSpaceOnUse"><stop offset="0" stop-color="#7b56ab"/><stop offset="0.03" stop-color="#7653a2"/><stop offset="0.13" stop-color="#654983"/><stop offset="0.24" stop-color="#57416a"/><stop offset="0.36" stop-color="#4c3a56"/><stop offset="0.51" stop-color="#453548"/><stop offset="0.68" stop-color="#403340"/><stop offset="1" stop-color="#3f323e"/></linearGradient><linearGradient id="linear-gradient-2" x1="280.77" y1="400.69" x2="280.77" y2="142.83" gradientUnits="userSpaceOnUse"><stop offset="0" stop-color="#fda1e8"/><stop offset="0.23" stop-color="#fda6ea"/><stop offset="0.5" stop-color="#fdb3ef"/><stop offset="0.78" stop-color="#fdcaf7"/><stop offset="1" stop-color="#fde1ff"/></linearGradient><linearGradient id="linear-gradient-3" x1="102.32" y1="288.3" x2="459.5" y2="288.3" gradientUnits="userSpaceOnUse"><stop offset="0" stop-color="#fff"/><stop offset="0.14" stop-color="#fff"/><stop offset="1" stop-color="#fff"/></linearGradient><linearGradient id="linear-gradient-4" x1="6.16" y1="416.63" x2="464.57" y2="416.63" gradientUnits="userSpaceOnUse"><stop offset="0" stop-color="#ff9dea"/><stop offset="0.3" stop-color="#fe9ce7"/><stop offset="0.49" stop-color="#fc98df"/><stop offset="0.65" stop-color="#f891d0"/><stop offset="0.79" stop-color="#f287bc"/><stop offset="0.91" stop-color="#ea7aa2"/><stop offset="1" stop-color="#e46f8b"/></linearGradient><linearGradient id="linear-gradient-5" x1="212.82" y1="212.78" x2="134.92" y2="212.78" gradientUnits="userSpaceOnUse"><stop offset="0" stop-color="#fff"/><stop offset="0.29" stop-color="#e7e7e7"/><stop offset="0.75" stop-color="#c6c6c6"/><stop offset="1" stop-color="#bababa"/></linearGradient><linearGradient id="linear-gradient-6" x1="212.82" y1="221.04" x2="134.92" y2="221.04" xlink:href="#linear-gradient-5"/><linearGradient id="linear-gradient-7" x1="212.82" y1="229.29" x2="134.92" y2="229.29" xlink:href="#linear-gradient-5"/><linearGradient id="linear-gradient-8" x1="212.82" y1="237.55" x2="134.92" y2="237.55" xlink:href="#linear-gradient-5"/><linearGradient id="linear-gradient-9" x1="212.82" y1="245.8" x2="134.92" y2="245.8" xlink:href="#linear-gradient-5"/><linearGradient id="linear-gradient-10" x1="212.82" y1="254.06" x2="134.92" y2="254.06" xlink:href="#linear-gradient-5"/><linearGradient id="linear-gradient-11" x1="212.82" y1="262.31" x2="134.92" y2="262.31" xlink:href="#linear-gradient-5"/><linearGradient id="linear-gradient-12" x1="212.82" y1="270.57" x2="134.92" y2="270.57" xlink:href="#linear-gradient-5"/><linearGradient id="linear-gradient-13" x1="212.82" y1="278.83" x2="134.92" y2="278.83" xlink:href="#linear-gradient-5"/><linearGradient id="linear-gradient-14" x1="212.82" y1="287.08" x2="134.92" y2="287.08" xlink:href="#linear-gradient-5"/><linearGradient id="linear-gradient-15" x1="212.82" y1="295.34" x2="134.92" y2="295.34" xlink:href="#linear-gradient-5"/><linearGradient id="linear-gradient-16" x1="212.82" y1="303.59" x2="134.92" y2="303.59" xlink:href="#linear-gradient-5"/><linearGradient id="linear-gradient-17" x1="212.82" y1="311.85" x2="134.92" y2="311.85" xlink:href="#linear-gradient-5"/><linearGradient id="linear-gradient-18" x1="212.82" y1="320.1" x2="134.92" y2="320.1" xlink:href="#linear-gradient-5"/><linearGradient id="linear-gradient-19" x1="212.82" y1="328.36" x2="134.92" y2="328.36" xlink:href="#linear-gradient-5"/><linearGradient id="linear-gradient-20" x1="212.82" y1="336.62" x2="134.92" y2="336.62" xlink:href="#linear-gradient-5"/><linearGradient id="linear-gradient-21" x1="212.82" y1="344.87" x2="134.92" y2="344.87" xlink:href="#linear-gradient-5"/><linearGradient id="linear-gradient-22" x1="212.82" y1="353.13" x2="134.92" y2="353.13" xlink:href="#linear-gradient-5"/><linearGradient id="linear-gradient-23" x1="212.82" y1="361.38" x2="134.92" y2="361.38" xlink:href="#linear-gradient-5"/><linearGradient id="linear-gradient-24" x1="212.82" y1="369.64" x2="134.92" y2="369.64" xlink:href="#linear-gradient-5"/><linearGradient id="linear-gradient-25" x1="428.02" y1="291.47" x2="224.85" y2="291.47" gradientUnits="userSpaceOnUse"><stop offset="0" stop-color="#fff"/><stop offset="0.03" stop-color="#f5f5f5"/><stop offset="0.12" stop-color="#dfdfdf"/><stop offset="0.22" stop-color="#cecece"/><stop offset="0.34" stop-color="#c3c3c3"/><stop offset="0.52" stop-color="#bcbcbc"/><stop offset="1" stop-color="#bababa"/></linearGradient><linearGradient id="linear-gradient-26" x1="427.58" y1="322.62" x2="283.33" y2="322.62" xlink:href="#linear-gradient-25"/><linearGradient id="linear-gradient-27" x1="191.51" y1="227.6" x2="225.35" y2="227.6" gradientUnits="userSpaceOnUse"><stop offset="0" stop-color="#006e76"/><stop offset="1" stop-color="#009b76"/></linearGradient><linearGradient id="linear-gradient-28" x1="176.51" y1="332.09" x2="7.32" y2="332.09" gradientUnits="userSpaceOnUse"><stop offset="0" stop-color="#7b56ab"/><stop offset="0.42" stop-color="#5e4577"/><stop offset="0.8" stop-color="#48374e"/><stop offset="1" stop-color="#3f323e"/></linearGradient><linearGradient id="linear-gradient-29" x1="7.23" y1="235.84" x2="109.46" y2="235.84" gradientUnits="userSpaceOnUse"><stop offset="0" stop-color="#006e76"/><stop offset="0.28" stop-color="#007376"/><stop offset="0.62" stop-color="#008276"/><stop offset="0.98" stop-color="#009a76"/><stop offset="1" stop-color="#009b76"/></linearGradient><linearGradient id="linear-gradient-30" x1="164.46" y1="185.47" x2="417.15" y2="185.47" gradientUnits="userSpaceOnUse"><stop offset="0" stop-color="#006e76"/><stop offset="0.34" stop-color="#007a76"/><stop offset="0.95" stop-color="#009876"/><stop offset="1" stop-color="#009b76"/></linearGradient><linearGradient id="linear-gradient-31" x1="147.03" y1="169.67" x2="399.72" y2="169.67" gradientUnits="userSpaceOnUse"><stop offset="0" stop-color="#fda1e8"/><stop offset="1" stop-color="#fde1ff"/></linearGradient><linearGradient id="linear-gradient-32" x1="147.03" y1="93.94" x2="399.72" y2="93.94" gradientUnits="userSpaceOnUse"><stop offset="0" stop-color="#7b56ab"/><stop offset="0.2" stop-color="#684a88"/><stop offset="0.42" stop-color="#564068"/><stop offset="0.63" stop-color="#493851"/><stop offset="0.83" stop-color="#423443"/><stop offset="1" stop-color="#3f323e"/></linearGradient><linearGradient id="linear-gradient-33" x1="218.3" y1="147.32" x2="170.93" y2="147.32" gradientUnits="userSpaceOnUse"><stop offset="0" stop-color="#fff" stop-opacity="0"/><stop offset="0.04" stop-color="#fff" stop-opacity="0.13"/><stop offset="0.1" stop-color="#fff" stop-opacity="0.31"/><stop offset="0.16" stop-color="#fff" stop-opacity="0.48"/><stop offset="0.24" stop-color="#fff" stop-opacity="0.62"/><stop offset="0.31" stop-color="#fff" stop-opacity="0.74"/><stop offset="0.39" stop-color="#fff" stop-opacity="0.83"/><stop offset="0.49" stop-color="#fff" stop-opacity="0.91"/><stop offset="0.59" stop-color="#fff" stop-opacity="0.96"/><stop offset="0.73" stop-color="#fff" stop-opacity="0.99"/><stop offset="1" stop-color="#fff"/></linearGradient><linearGradient id="linear-gradient-34" x1="218.19" y1="203.83" x2="170.82" y2="203.83" xlink:href="#linear-gradient-33"/><linearGradient id="linear-gradient-35" x1="373.89" y1="183.28" x2="228.42" y2="183.28" xlink:href="#linear-gradient-33"/><linearGradient id="New_Gradient_Swatch_3" x1="190.47" y1="267.7" x2="368.92" y2="267.7" gradientTransform="translate(69.48 -57.42) rotate(13.37)" gradientUnits="userSpaceOnUse"><stop offset="0" stop-color="#9de7db"/><stop offset="1" stop-color="#33f2b2"/></linearGradient><linearGradient id="linear-gradient-36" x1="241.48" y1="251.54" x2="368.89" y2="251.54" xlink:href="#linear-gradient-27"/><linearGradient id="linear-gradient-37" x1="190.53" y1="301.35" x2="237.26" y2="301.35" xlink:href="#linear-gradient-27"/></defs><title>Web_browser</title><g id="Web_browser"><path d="M505.84,398.07h0V163.35a20.52,20.52,0,0,0-20.52-20.52H109.25a20.52,20.52,0,0,0-20.52,20.52V398.07H30.92v1.77a32.82,32.82,0,0,0,32.82,32.82H473a32.81,32.81,0,0,0,32.79-32h0v-.27c0-.19,0-.38,0-.58Z" style="fill:url(#linear-gradient)"/><path d="M92.74,142.83H468.8a20.52,20.52,0,0,1,20.52,20.52V400.69a0,0,0,0,1,0,0H72.21a0,0,0,0,1,0,0V163.35A20.52,20.52,0,0,1,92.74,142.83Z" style="fill:url(#linear-gradient-2)"/><rect x="102.32" y="175.65" width="357.18" height="225.31" style="fill:url(#linear-gradient-3)"/><path d="M6.16,400.59H464.57a0,0,0,0,1,0,0v.47a31.6,31.6,0,0,1-31.6,31.6H37.75a31.6,31.6,0,0,1-31.6-31.6v-.47a0,0,0,0,1,0,0Z" style="fill:url(#linear-gradient-4)"/><rect x="134.92" y="211.13" width="77.9" height="3.3" style="fill:url(#linear-gradient-5)"/><rect x="134.92" y="219.38" width="77.9" height="3.3" style="fill:url(#linear-gradient-6)"/><rect x="134.92" y="227.64" width="77.9" height="3.3" style="fill:url(#linear-gradient-7)"/><rect x="134.92" y="235.9" width="77.9" height="3.3" style="fill:url(#linear-gradient-8)"/><rect x="134.92" y="244.15" width="77.9" height="3.3" style="fill:url(#linear-gradient-9)"/><rect x="134.92" y="252.41" width="77.9" height="3.3" style="fill:url(#linear-gradient-10)"/><rect x="134.92" y="260.66" width="77.9" height="3.3" style="fill:url(#linear-gradient-11)"/><rect x="134.92" y="268.92" width="77.9" height="3.3" style="fill:url(#linear-gradient-12)"/><rect x="134.92" y="277.17" width="77.9" height="3.3" style="fill:url(#linear-gradient-13)"/><rect x="134.92" y="285.43" width="77.9" height="3.3" style="fill:url(#linear-gradient-14)"/><rect x="134.92" y="293.69" width="77.9" height="3.3" style="fill:url(#linear-gradient-15)"/><rect x="134.92" y="301.94" width="77.9" height="3.3" style="fill:url(#linear-gradient-16)"/><rect x="134.92" y="310.2" width="77.9" height="3.3" style="fill:url(#linear-gradient-17)"/><rect x="134.92" y="318.45" width="77.9" height="3.3" style="fill:url(#linear-gradient-18)"/><rect x="134.92" y="326.71" width="77.9" height="3.3" style="fill:url(#linear-gradient-19)"/><rect x="134.92" y="334.96" width="77.9" height="3.3" style="fill:url(#linear-gradient-20)"/><rect x="134.92" y="343.22" width="77.9" height="3.3" style="fill:url(#linear-gradient-21)"/><rect x="134.92" y="351.48" width="77.9" height="3.3" style="fill:url(#linear-gradient-22)"/><rect x="134.92" y="359.73" width="77.9" height="3.3" style="fill:url(#linear-gradient-23)"/><rect x="134.92" y="367.99" width="77.9" height="3.3" style="fill:url(#linear-gradient-24)"/><rect x="224.85" y="210.49" width="203.17" height="161.97" style="fill:url(#linear-gradient-25)"/><rect x="269.15" y="255.67" width="162.6" height="121.16" style="fill:#fff"/><rect x="283.33" y="272.59" width="144.26" height="100.06" style="fill:url(#linear-gradient-26)"/><path d="M224.66,219.76h0a21.81,21.81,0,0,0-4-18.91h0a89,89,0,0,0-29.17,53.5l16.87-5.7,3.14-3.66A62.86,62.86,0,0,0,224.66,219.76Z" style="fill:url(#linear-gradient-27)"/><path d="M176.51,380.09l-.16-.12L149,358.72V291a7,7,0,0,0-6.95-7H14.26a7,7,0,0,0-6.94,7v75a14,14,0,0,0,14,14Z" style="fill:url(#linear-gradient-28)"/><rect x="48.12" y="305.55" width="81.83" height="3.85" style="fill:#fff"/><rect x="24.12" y="305.55" width="19.43" height="3.85" style="fill:#fff"/><rect x="24.12" y="313.8" width="105.83" height="3.85" style="fill:#fff"/><rect x="24.12" y="322.06" width="105.83" height="3.85" style="fill:#fff"/><rect x="24.12" y="330.31" width="105.83" height="3.85" style="fill:#fff"/><rect x="24.12" y="338.57" width="105.83" height="3.85" style="fill:#fff"/><rect x="24.12" y="346.83" width="105.83" height="3.85" style="fill:#fff"/><rect x="94.92" y="355.08" width="35.03" height="3.85" style="fill:#fff"/><rect x="24.12" y="355.08" width="66.23" height="3.85" style="fill:#fff"/><rect x="7.23" y="198.21" width="102.23" height="75.27" rx="15.79" style="fill:url(#linear-gradient-29)"/><polygon points="43.84 218.4 76.94 236.6 43.84 254.81 43.84 218.4" style="fill:#faf7f0"/><path d="M165.56,95.14H411.83a5.31,5.31,0,0,1,5.31,5.31V271.59a4.21,4.21,0,0,1-4.21,4.21H168.68a4.21,4.21,0,0,1-4.21-4.21V96.24A1.1,1.1,0,0,1,165.56,95.14Z" style="fill:url(#linear-gradient-30)"/><path d="M152.35,79.34H394.4a5.31,5.31,0,0,1,5.31,5.31V255.79A4.21,4.21,0,0,1,395.5,260H151.25a4.21,4.21,0,0,1-4.21-4.21V84.65A5.31,5.31,0,0,1,152.35,79.34Z" style="fill:url(#linear-gradient-31)"/><path d="M152.19,79.34H394.56a5.15,5.15,0,0,1,5.15,5.15v24.05a0,0,0,0,1,0,0H147a0,0,0,0,1,0,0V84.49A5.15,5.15,0,0,1,152.19,79.34Z" style="fill:url(#linear-gradient-32)"/><rect x="170.93" y="132.97" width="47.37" height="28.7" style="fill:url(#linear-gradient-33)"/><rect x="170.82" y="170.44" width="47.37" height="66.77" style="fill:url(#linear-gradient-34)"/><rect x="228.42" y="131.14" width="145.47" height="104.28" style="fill:url(#linear-gradient-35)"/><path d="M167.55,95.67a5,5,0,1,1-5-5A5,5,0,0,1,167.55,95.67Z" style="fill:#fff"/><path d="M184.71,95.67a5,5,0,1,1-5-5A5,5,0,0,1,184.71,95.67Z" style="fill:#fff"/><path d="M201.62,95.67a5,5,0,1,1-5-5A5,5,0,0,1,201.62,95.67Z" style="fill:#fff"/><circle cx="279.7" cy="267.7" r="89.23" transform="translate(-54.32 71.93) rotate(-13.37)" style="fill:url(#New_Gradient_Swatch_3)"/><path d="M281.21,178.59l-11.49,13.88L249,201.6l-6.6,13.67A9.28,9.28,0,0,0,245,226.58h0a11.3,11.3,0,0,1,3.72,12.3l-1.56,4.8A24.92,24.92,0,0,0,262,274.63h0a41.88,41.88,0,0,1,12.24,28.82l.05,2.43,9.48,18.61,19.54-18A43.74,43.74,0,0,0,317,280.8l1.29-8.59a13.86,13.86,0,0,1,9.9-11.26h0a9.51,9.51,0,0,1,10.12,3.3l25.6,32.92a89.11,89.11,0,0,0-82.66-118.58Z" style="fill:url(#linear-gradient-36)"/><path d="M236.8,313.85h0A47,47,0,0,1,235.7,297l1.12-9.74-8.77-4.56-37.5-16.89h0a88.85,88.85,0,0,0,33,71.06l1-.1,8.17-8.17A15.55,15.55,0,0,0,236.8,313.85Z" style="fill:url(#linear-gradient-37)"/></g></svg>