<svg xmlns="http://www.w3.org/2000/svg" xmlns:xlink="http://www.w3.org/1999/xlink" viewBox="0 0 512 512"><defs><linearGradient id="linear-gradient" x1="272.8" y1="468.39" x2="272.8" y2="383.79" gradientUnits="userSpaceOnUse"><stop offset="0" stop-color="#fd72b7"/><stop offset="0.16" stop-color="#fd78bb"/><stop offset="0.37" stop-color="#fd8ac6"/><stop offset="0.62" stop-color="#fda6d9"/><stop offset="0.89" stop-color="#fdcef3"/><stop offset="1" stop-color="#fde1ff"/></linearGradient><linearGradient id="linear-gradient-2" x1="289.73" y1="409.71" x2="289.73" y2="93.63" xlink:href="#linear-gradient"/><linearGradient id="linear-gradient-3" x1="47.89" y1="251.67" x2="483.57" y2="251.67" gradientUnits="userSpaceOnUse"><stop offset="0" stop-color="#fda1e8"/><stop offset="0.63" stop-color="#fdccf8"/><stop offset="1" stop-color="#fde1ff"/></linearGradient><linearGradient id="linear-gradient-4" x1="47.89" y1="227.58" x2="483.57" y2="227.58" gradientUnits="userSpaceOnUse"><stop offset="0" stop-color="#7b78ab"/><stop offset="0.21" stop-color="#666086"/><stop offset="0.42" stop-color="#554c67"/><stop offset="0.63" stop-color="#493e50"/><stop offset="0.82" stop-color="#423543"/><stop offset="1" stop-color="#3f323e"/></linearGradient><linearGradient id="linear-gradient-5" x1="264.26" y1="227.49" x2="122.32" y2="227.49" gradientUnits="userSpaceOnUse"><stop offset="0" stop-color="#fff" stop-opacity="0"/><stop offset="0.1" stop-color="#fff" stop-opacity="0.07"/><stop offset="0.31" stop-color="#fff" stop-opacity="0.25"/><stop offset="0.6" stop-color="#fff" stop-opacity="0.55"/><stop offset="0.96" stop-color="#fff" stop-opacity="0.95"/><stop offset="1" stop-color="#fff"/></linearGradient><linearGradient id="linear-gradient-6" x1="332.08" y1="227.49" x2="190.14" y2="227.49" xlink:href="#linear-gradient-5"/><linearGradient id="linear-gradient-7" x1="4.43" y1="170.47" x2="290.58" y2="170.47" gradientUnits="userSpaceOnUse"><stop offset="0" stop-color="#c8e7db"/><stop offset="0.1" stop-color="#a0ead0"/><stop offset="0.21" stop-color="#7fecc7"/><stop offset="0.33" stop-color="#63eebf"/><stop offset="0.46" stop-color="#4ef0b9"/><stop offset="0.59" stop-color="#3ff1b5"/><stop offset="0.76" stop-color="#36f2b3"/><stop offset="1" stop-color="#33f2b2"/></linearGradient><linearGradient id="linear-gradient-8" x1="240.91" y1="255.14" x2="449.6" y2="255.14" gradientUnits="userSpaceOnUse"><stop offset="0" stop-color="#006e76"/><stop offset="1" stop-color="#009b76"/></linearGradient><linearGradient id="linear-gradient-9" x1="226.52" y1="242.09" x2="435.2" y2="242.09" xlink:href="#linear-gradient-3"/><linearGradient id="linear-gradient-10" x1="226.52" y1="179.55" x2="435.2" y2="179.55" gradientUnits="userSpaceOnUse"><stop offset="0" stop-color="#ff9dea"/><stop offset="1" stop-color="#e46f8b"/></linearGradient><linearGradient id="linear-gradient-11" x1="285.38" y1="223.63" x2="246.25" y2="223.63" gradientUnits="userSpaceOnUse"><stop offset="0" stop-color="#fff" stop-opacity="0"/><stop offset="0.04" stop-color="#fff" stop-opacity="0.13"/><stop offset="0.1" stop-color="#fff" stop-opacity="0.31"/><stop offset="0.16" stop-color="#fff" stop-opacity="0.48"/><stop offset="0.24" stop-color="#fff" stop-opacity="0.62"/><stop offset="0.31" stop-color="#fff" stop-opacity="0.74"/><stop offset="0.39" stop-color="#fff" stop-opacity="0.83"/><stop offset="0.49" stop-color="#fff" stop-opacity="0.91"/><stop offset="0.59" stop-color="#fff" stop-opacity="0.96"/><stop offset="0.73" stop-color="#fff" stop-opacity="0.99"/><stop offset="1" stop-color="#fff"/></linearGradient><linearGradient id="linear-gradient-12" x1="285.28" y1="270.3" x2="246.16" y2="270.3" xlink:href="#linear-gradient-11"/><linearGradient id="linear-gradient-13" x1="413.87" y1="253.33" x2="293.73" y2="253.33" xlink:href="#linear-gradient-11"/><linearGradient id="linear-gradient-14" x1="279.92" y1="250.07" x2="252.33" y2="250.07" gradientUnits="userSpaceOnUse"><stop offset="0" stop-color="#fff" stop-opacity="0"/><stop offset="0.09" stop-color="#f1efef" stop-opacity="0.23"/><stop offset="0.18" stop-color="#e5e1e1" stop-opacity="0.44"/><stop offset="0.28" stop-color="#dad5d5" stop-opacity="0.61"/><stop offset="0.39" stop-color="#d2cbcb" stop-opacity="0.75"/><stop offset="0.5" stop-color="#cbc3c3" stop-opacity="0.86"/><stop offset="0.63" stop-color="#c7bebe" stop-opacity="0.94"/><stop offset="0.78" stop-color="#c4bbbb" stop-opacity="0.99"/><stop offset="1" stop-color="#c3baba"/></linearGradient><linearGradient id="linear-gradient-15" x1="279.92" y1="254.18" x2="252.33" y2="254.18" xlink:href="#linear-gradient-14"/><linearGradient id="linear-gradient-16" x1="279.92" y1="258.3" x2="252.33" y2="258.3" xlink:href="#linear-gradient-14"/><linearGradient id="linear-gradient-17" x1="279.92" y1="262.41" x2="252.33" y2="262.41" xlink:href="#linear-gradient-14"/><linearGradient id="linear-gradient-18" x1="279.92" y1="266.53" x2="252.33" y2="266.53" xlink:href="#linear-gradient-14"/><linearGradient id="linear-gradient-19" x1="279.92" y1="270.64" x2="252.33" y2="270.64" xlink:href="#linear-gradient-14"/><linearGradient id="linear-gradient-20" x1="279.92" y1="274.76" x2="252.33" y2="274.76" xlink:href="#linear-gradient-14"/><linearGradient id="linear-gradient-21" x1="279.92" y1="278.87" x2="252.33" y2="278.87" xlink:href="#linear-gradient-14"/><linearGradient id="linear-gradient-22" x1="279.92" y1="282.99" x2="252.33" y2="282.99" xlink:href="#linear-gradient-14"/><linearGradient id="linear-gradient-23" x1="279.92" y1="287.1" x2="252.33" y2="287.1" xlink:href="#linear-gradient-14"/><linearGradient id="linear-gradient-24" x1="279.92" y1="291.22" x2="252.33" y2="291.22" xlink:href="#linear-gradient-14"/><linearGradient id="linear-gradient-25" x1="341.45" y1="93.26" x2="460.65" y2="93.26" xlink:href="#linear-gradient-7"/><linearGradient id="linear-gradient-26" x1="356.81" y1="126.17" x2="300.05" y2="126.17" xlink:href="#linear-gradient-8"/><linearGradient id="linear-gradient-27" x1="109.46" y1="322.05" x2="136.61" y2="322.05" xlink:href="#linear-gradient-8"/><linearGradient id="linear-gradient-28" x1="117.58" y1="160.81" x2="128.5" y2="160.81" xlink:href="#linear-gradient-8"/><linearGradient id="linear-gradient-29" x1="109.43" y1="387.8" x2="136.59" y2="387.8" xlink:href="#linear-gradient-10"/></defs><title>Web_development</title><g id="Web_development"><path d="M231.21,383.79v71.84a22.83,22.83,0,0,1-3.42,11.89H186.35V478h25.38c-.46,0-.93.09-1.4.1v0H323.9c11.73,0,19.7-10.71,19.7-22.44V383.79Z" style="fill:#fde1ff"/><path d="M229.68,383.79v65.3a19.47,19.47,0,0,1-19.35,19.28v0H315.58a19.5,19.5,0,0,0,19.69-19.3v-65.3Z" style="fill:url(#linear-gradient)"/><rect x="71.89" y="93.63" width="435.68" height="316.07" rx="20.58" style="fill:url(#linear-gradient-2)"/><rect x="47.89" y="93.63" width="435.68" height="316.07" rx="20.58" style="fill:url(#linear-gradient-3)"/><path d="M47.89,361.53V114.22A20.58,20.58,0,0,1,68.47,93.63H463a20.59,20.59,0,0,1,20.58,20.59V361.53" style="fill:url(#linear-gradient-4)"/><polygon points="264.26 361.52 212.32 361.52 122.32 93.45 174.26 93.45 264.26 361.52" style="fill:url(#linear-gradient-5)"/><polygon points="332.08 361.52 280.14 361.52 190.15 93.45 242.08 93.45 332.08 361.52" style="fill:url(#linear-gradient-6)"/><path d="M289.46,126.59a1.13,1.13,0,0,0,0-2.25h-30V81.59h30a1.13,1.13,0,0,0,0-2.25h-30v-30a1.13,1.13,0,1,0-2.25,0v30H214.45v-30a1.13,1.13,0,1,0-2.25,0v30H169.45v-30a1.13,1.13,0,1,0-2.25,0v30H124.44v-30a1.13,1.13,0,1,0-2.25,0v30H79.44v-30a1.13,1.13,0,1,0-2.25,0v30H34.43v-30a1.13,1.13,0,1,0-2.25,0v30H5.56a1.13,1.13,0,1,0,0,2.25H32.18v42.75H5.56a1.13,1.13,0,1,0,0,2.25H32.18v42.76H5.56a1.13,1.13,0,1,0,0,2.25H32.18v42.75H5.56a1.13,1.13,0,1,0,0,2.25H32.18v42.76H5.56a1.13,1.13,0,1,0,0,2.25H32.18v30a1.13,1.13,0,0,0,2.25,0v-30H77.19v30a1.13,1.13,0,0,0,2.25,0v-30h42.75v30a1.13,1.13,0,0,0,2.25,0v-30H167.2v30a1.13,1.13,0,0,0,2.25,0v-30H212.2v30a1.13,1.13,0,0,0,2.25,0v-30h42.76v30a1.13,1.13,0,0,0,2.25,0v-30h30a1.13,1.13,0,0,0,0-2.25h-30V216.6h30a1.13,1.13,0,0,0,0-2.25h-30V171.6h30a1.13,1.13,0,0,0,0-2.25h-30V126.59Zm-32.25-45v42.75H214.45V81.59Zm-45,0v42.75H169.45V81.59Zm-90,87.76H79.44V126.59h42.75Zm2.25-42.76H167.2v42.76H124.44Zm-2.25,45v42.75H79.44V171.6Zm2.25,0H167.2v42.75H124.44Zm45,0H212.2v42.75H169.45Zm0-2.25V126.59H212.2v42.76ZM167.2,81.59v42.75H124.44V81.59Zm-45,0v42.75H79.44V81.59Zm-87.76,0H77.19v42.75H34.43Zm0,45H77.19v42.76H34.43Zm0,45H77.19v42.75H34.43Zm0,87.76V216.6H77.19v42.76Zm45,0V216.6h42.75v42.76Zm45,0V216.6H167.2v42.76Zm45,0V216.6H212.2v42.76Zm87.76,0H214.45V216.6h42.76Zm0-45H214.45V171.6h42.76Zm0-45H214.45V126.59h42.76Z" style="fill:url(#linear-gradient-7)"/><path d="M241.82,180.54H445.21a4.39,4.39,0,0,1,4.39,4.39V326.27a3.48,3.48,0,0,1-3.48,3.48H244.39a3.48,3.48,0,0,1-3.48-3.48V181.45A.91.91,0,0,1,241.82,180.54Z" style="fill:url(#linear-gradient-8)"/><path d="M230.91,167.49H430.81a4.39,4.39,0,0,1,4.39,4.39V313.22a3.48,3.48,0,0,1-3.48,3.48H230a3.48,3.48,0,0,1-3.48-3.48V171.88A4.39,4.39,0,0,1,230.91,167.49Z" style="fill:url(#linear-gradient-9)"/><path d="M230.77,167.49H430.95a4.26,4.26,0,0,1,4.26,4.26v19.87a0,0,0,0,1,0,0H226.52a0,0,0,0,1,0,0V171.75A4.26,4.26,0,0,1,230.77,167.49Z" style="fill:url(#linear-gradient-10)"/><rect x="246.25" y="211.78" width="39.12" height="23.7" style="fill:url(#linear-gradient-11)"/><rect x="246.16" y="242.73" width="39.12" height="55.15" style="fill:url(#linear-gradient-12)"/><rect x="293.73" y="210.27" width="120.14" height="86.12" style="fill:url(#linear-gradient-13)"/><path d="M243.46,181a4.16,4.16,0,1,1-4.16-4.15A4.16,4.16,0,0,1,243.46,181Z" style="fill:#fff"/><path d="M257.63,181a4.16,4.16,0,1,1-4.15-4.15A4.15,4.15,0,0,1,257.63,181Z" style="fill:#fff"/><path d="M271.59,181a4.16,4.16,0,1,1-4.15-4.15A4.15,4.15,0,0,1,271.59,181Z" style="fill:#fff"/><polygon points="373.11 274.73 372.14 273.76 391.88 254.01 372.14 234.27 373.11 233.3 393.82 254.01 373.11 274.73" style="fill:#543254"/><polygon points="334.38 274.73 313.67 254.01 334.38 233.3 335.35 234.27 315.61 254.01 335.35 273.76 334.38 274.73" style="fill:#543254"/><rect x="327.36" y="253.02" width="44.16" height="1.37" transform="translate(-21.29 475.13) rotate(-66.83)" style="fill:#543254"/><rect x="252.33" y="249.38" width="27.59" height="1.37" style="fill:url(#linear-gradient-14)"/><rect x="252.33" y="253.5" width="27.59" height="1.37" style="fill:url(#linear-gradient-15)"/><rect x="252.33" y="257.61" width="27.59" height="1.37" style="fill:url(#linear-gradient-16)"/><rect x="252.33" y="261.73" width="27.59" height="1.37" style="fill:url(#linear-gradient-17)"/><rect x="252.33" y="265.84" width="27.59" height="1.37" style="fill:url(#linear-gradient-18)"/><rect x="252.33" y="269.96" width="27.59" height="1.37" style="fill:url(#linear-gradient-19)"/><rect x="252.33" y="274.07" width="27.59" height="1.37" style="fill:url(#linear-gradient-20)"/><rect x="252.33" y="278.19" width="27.59" height="1.37" style="fill:url(#linear-gradient-21)"/><rect x="252.33" y="282.3" width="27.59" height="1.37" style="fill:url(#linear-gradient-22)"/><rect x="252.33" y="286.42" width="27.59" height="1.37" style="fill:url(#linear-gradient-23)"/><rect x="252.33" y="290.53" width="27.59" height="1.37" style="fill:url(#linear-gradient-24)"/><path d="M449.94,91.5a11.06,11.06,0,0,1,10.05-11A60,60,0,0,0,450,58a11.06,11.06,0,0,1-15.72-15.09,60.08,60.08,0,0,0-22.41-9,11.06,11.06,0,0,1-21.6,0,60.2,60.2,0,0,0-22.42,9A11.05,11.05,0,0,1,352.12,58a60,60,0,0,0-10,22.47,11.06,11.06,0,0,1-.65,22.06,60,60,0,0,0,9.15,23.78c.08-.09.15-.18.23-.26a11.07,11.07,0,0,1,15.65,15.65l-.61.55A60.07,60.07,0,0,0,390,152.58a10.37,10.37,0,0,1-.06-1.12,11.07,11.07,0,1,1,22.13,0c0,.38,0,.75-.05,1.12a60,60,0,0,0,24.16-10.31c-.2-.18-.41-.36-.6-.55a11.07,11.07,0,1,1,15.65-15.65c.08.08.15.17.23.26a60,60,0,0,0,9.15-23.78A11.06,11.06,0,0,1,449.94,91.5Zm-48.89,29.27A26.65,26.65,0,1,1,427.7,94.12,26.65,26.65,0,0,1,401.05,120.77Z" style="fill:url(#linear-gradient-25)"/><path d="M344.32,109.09A5.27,5.27,0,0,1,344,102,28.52,28.52,0,0,0,333,97.79a5.27,5.27,0,0,1-10.38.21,28.5,28.5,0,0,0-10.59,4.53,5.27,5.27,0,0,1-7.28,7.28,28.48,28.48,0,0,0-4.52,10.59,5.27,5.27,0,0,1-.22,10.38,28.58,28.58,0,0,0,4.2,10.95,5.27,5.27,0,0,1,7.22,7.66,28.51,28.51,0,0,0,11.1,4.93s0-.11,0-.16a5.28,5.28,0,1,1,10.55,0c0,.13,0,.26,0,.39a28.68,28.68,0,0,0,11.63-4.67c-.14-.12-.27-.23-.4-.36a5.28,5.28,0,1,1,7.46-7.46,3.42,3.42,0,0,1,.36.4,28.74,28.74,0,0,0,4.67-11.63l-.39,0a5.28,5.28,0,0,1,0-10.55h.16a28.37,28.37,0,0,0-4.93-11.1A5.27,5.27,0,0,1,344.32,109.09Zm-6.62,26.35a12.7,12.7,0,1,1,0-18A12.7,12.7,0,0,1,337.7,135.44Z" style="fill:url(#linear-gradient-26)"/><path d="M109.46,210.12h27.15V420.4A13.56,13.56,0,0,1,123,434h0a13.57,13.57,0,0,1-13.58-13.57Z" style="fill:url(#linear-gradient-27)"/><polygon points="109.45 210.07 123.04 148.44 136.63 210.07 109.45 210.07" style="fill:#fddcff"/><polygon points="128.5 173.19 123.04 148.44 117.58 173.19 128.5 173.19" style="fill:url(#linear-gradient-28)"/><rect x="109.43" y="386.39" width="27.16" height="2.82" style="fill:url(#linear-gradient-29)"/></g></svg>