<svg xmlns="http://www.w3.org/2000/svg" xmlns:xlink="http://www.w3.org/1999/xlink" viewBox="0 0 512 512"><defs><linearGradient id="linear-gradient" x1="482.45" y1="343.34" x2="226.18" y2="343.34" gradientUnits="userSpaceOnUse"><stop offset="0" stop-color="#c8e7db"/><stop offset="0.3" stop-color="#9fead0"/><stop offset="0.97" stop-color="#38f2b3"/><stop offset="1" stop-color="#33f2b2"/></linearGradient><linearGradient id="linear-gradient-2" x1="452.1" y1="342.74" x2="331.68" y2="342.74" gradientUnits="userSpaceOnUse"><stop offset="0" stop-color="#fff"/><stop offset="0.34" stop-color="#e3e3e3"/><stop offset="0.76" stop-color="#c5c5c5"/><stop offset="1" stop-color="#bababa"/></linearGradient><linearGradient id="linear-gradient-3" x1="396.63" y1="395.41" x2="331.62" y2="395.41" xlink:href="#linear-gradient-2"/><linearGradient id="linear-gradient-4" x1="226.18" y1="244.57" x2="482.45" y2="244.57" gradientUnits="userSpaceOnUse"><stop offset="0" stop-color="#006e76"/><stop offset="0.42" stop-color="#007076"/><stop offset="0.65" stop-color="#007876"/><stop offset="0.83" stop-color="#008676"/><stop offset="0.99" stop-color="#009976"/><stop offset="1" stop-color="#009b76"/></linearGradient><linearGradient id="linear-gradient-5" x1="305.64" y1="390.52" x2="249.03" y2="390.52" gradientUnits="userSpaceOnUse"><stop offset="0" stop-color="#babad3"/><stop offset="1" stop-color="#bababa"/></linearGradient><linearGradient id="linear-gradient-6" x1="305.64" y1="396.52" x2="249.03" y2="396.52" xlink:href="#linear-gradient-5"/><linearGradient id="linear-gradient-7" x1="305.64" y1="402.52" x2="249.03" y2="402.52" xlink:href="#linear-gradient-5"/><linearGradient id="linear-gradient-8" x1="305.64" y1="408.52" x2="249.03" y2="408.52" xlink:href="#linear-gradient-5"/><linearGradient id="linear-gradient-9" x1="305.64" y1="414.52" x2="249.03" y2="414.52" xlink:href="#linear-gradient-5"/><linearGradient id="linear-gradient-10" x1="305.64" y1="420.52" x2="249.03" y2="420.52" xlink:href="#linear-gradient-5"/><linearGradient id="linear-gradient-11" x1="305.64" y1="426.52" x2="249.03" y2="426.52" xlink:href="#linear-gradient-5"/><linearGradient id="linear-gradient-12" x1="305.64" y1="432.52" x2="249.03" y2="432.52" xlink:href="#linear-gradient-5"/><linearGradient id="linear-gradient-13" x1="450.96" y1="383.88" x2="402.74" y2="383.88" gradientUnits="userSpaceOnUse"><stop offset="0" stop-color="#fff"/><stop offset="0.61" stop-color="#d6d6d6"/><stop offset="1" stop-color="#bababa"/></linearGradient><linearGradient id="linear-gradient-14" x1="450.96" y1="389.88" x2="402.74" y2="389.88" xlink:href="#linear-gradient-13"/><linearGradient id="linear-gradient-15" x1="450.96" y1="395.88" x2="402.74" y2="395.88" xlink:href="#linear-gradient-13"/><linearGradient id="linear-gradient-16" x1="450.96" y1="401.88" x2="402.74" y2="401.88" xlink:href="#linear-gradient-13"/><linearGradient id="linear-gradient-17" x1="450.96" y1="407.88" x2="402.74" y2="407.88" xlink:href="#linear-gradient-13"/><linearGradient id="linear-gradient-18" x1="450.96" y1="413.88" x2="402.74" y2="413.88" xlink:href="#linear-gradient-13"/><linearGradient id="linear-gradient-19" x1="450.96" y1="419.88" x2="402.74" y2="419.88" xlink:href="#linear-gradient-13"/><linearGradient id="linear-gradient-20" x1="450.96" y1="425.88" x2="402.74" y2="425.88" xlink:href="#linear-gradient-13"/><linearGradient id="linear-gradient-21" x1="359.02" y1="281.07" x2="151.72" y2="281.07" xlink:href="#linear-gradient"/><linearGradient id="linear-gradient-22" x1="359.02" y1="252.41" x2="151.72" y2="252.41" gradientUnits="userSpaceOnUse"><stop offset="0" stop-color="#006e76"/><stop offset="0.6" stop-color="#008c76"/><stop offset="1" stop-color="#009b76"/></linearGradient><linearGradient id="linear-gradient-23" x1="29.55" y1="228.38" x2="376.53" y2="228.38" gradientUnits="userSpaceOnUse"><stop offset="0" stop-color="#543254"/><stop offset="0.53" stop-color="#3e2754"/><stop offset="1" stop-color="#2e2054"/></linearGradient><linearGradient id="linear-gradient-24" x1="47.05" y1="228.38" x2="359.02" y2="228.38" gradientUnits="userSpaceOnUse"><stop offset="0" stop-color="#7b56ab"/><stop offset="0.03" stop-color="#7653a2"/><stop offset="0.13" stop-color="#654983"/><stop offset="0.24" stop-color="#57416a"/><stop offset="0.36" stop-color="#4c3a56"/><stop offset="0.51" stop-color="#453548"/><stop offset="0.68" stop-color="#403340"/><stop offset="1" stop-color="#3f323e"/></linearGradient></defs><title>WWW</title><g id="WWW"><path d="M226.18,229.58H466a16.48,16.48,0,0,1,16.48,16.48V457.11a0,0,0,0,1,0,0H226.18a0,0,0,0,1,0,0V229.58A0,0,0,0,1,226.18,229.58Z" style="fill:url(#linear-gradient)"/><rect x="321.8" y="318.18" width="138.91" height="117.15" style="fill:#fff"/><rect x="331.68" y="326.78" width="120.42" height="31.91" style="fill:url(#linear-gradient-2)"/><rect x="331.62" y="363.31" width="65" height="64.19" style="fill:url(#linear-gradient-3)"/><path d="M226.18,229.58H466a16.48,16.48,0,0,1,16.48,16.48v13.51a0,0,0,0,1,0,0H226.18a0,0,0,0,1,0,0v-30A0,0,0,0,1,226.18,229.58Z" style="fill:url(#linear-gradient-4)"/><rect x="249.03" y="389.32" width="56.61" height="2.4" style="fill:url(#linear-gradient-5)"/><rect x="249.03" y="395.32" width="56.61" height="2.4" style="fill:url(#linear-gradient-6)"/><rect x="249.03" y="401.32" width="56.61" height="2.4" style="fill:url(#linear-gradient-7)"/><rect x="249.03" y="407.32" width="56.61" height="2.4" style="fill:url(#linear-gradient-8)"/><rect x="249.03" y="413.32" width="56.61" height="2.4" style="fill:url(#linear-gradient-9)"/><rect x="249.03" y="419.32" width="56.61" height="2.4" style="fill:url(#linear-gradient-10)"/><rect x="249.03" y="425.32" width="56.61" height="2.4" style="fill:url(#linear-gradient-11)"/><rect x="249.03" y="431.32" width="56.61" height="2.4" style="fill:url(#linear-gradient-12)"/><rect x="348.36" y="275.7" width="113.01" height="2.4" style="fill:#dedad5"/><rect x="348.36" y="281.7" width="113.01" height="2.4" style="fill:#dedad5"/><rect x="348.36" y="287.7" width="113.01" height="2.4" style="fill:#dedad5"/><rect x="348.36" y="293.7" width="113.01" height="2.4" style="fill:#dedad5"/><rect x="348.36" y="299.7" width="113.01" height="2.4" style="fill:#dedad5"/><rect x="348.36" y="305.7" width="113.01" height="2.4" style="fill:#dedad5"/><rect x="402.74" y="382.68" width="48.21" height="2.4" style="fill:url(#linear-gradient-13)"/><rect x="402.74" y="388.68" width="48.21" height="2.4" style="fill:url(#linear-gradient-14)"/><rect x="402.74" y="394.68" width="48.21" height="2.4" style="fill:url(#linear-gradient-15)"/><rect x="402.74" y="400.68" width="48.21" height="2.4" style="fill:url(#linear-gradient-16)"/><rect x="402.74" y="406.68" width="48.21" height="2.4" style="fill:url(#linear-gradient-17)"/><rect x="402.74" y="412.68" width="48.21" height="2.4" style="fill:url(#linear-gradient-18)"/><rect x="402.74" y="418.68" width="48.21" height="2.4" style="fill:url(#linear-gradient-19)"/><rect x="402.74" y="424.68" width="48.21" height="2.4" style="fill:url(#linear-gradient-20)"/><path d="M359,229.36a155.9,155.9,0,0,0-8.4-51.59H191.86a40.14,40.14,0,0,0-40.14,40.14V375.72a155.77,155.77,0,0,0,51.88,8.64C288.78,384.06,358.49,314.54,359,229.36Z" style="fill:url(#linear-gradient-21)"/><path d="M323.62,327a155.62,155.62,0,0,0,27-149.27H191.86a40.14,40.14,0,0,0-40.14,40.14V327Z" style="fill:url(#linear-gradient-22)"/><path d="M216.2,284.63l10.33-46.77h.37l-10.55,47.8h-.3l-10.33-46.84L195.4,285.66h-.23l-10.54-47.8H185l10.26,46.77,10.33-46.77h.29Z" style="fill:none;stroke:#543254;stroke-miterlimit:10"/><path d="M263.34,284.63l10.32-46.77H274l-10.55,47.8h-.29l-10.33-46.84-10.33,46.84h-.22l-10.55-47.8h.37l10.25,46.77,10.33-46.77h.3Z" style="fill:none;stroke:#543254;stroke-miterlimit:10"/><path d="M310.47,284.63l10.33-46.77h.37l-10.55,47.8h-.3L300,238.82l-10.32,46.84h-.22l-10.55-47.8h.36l10.26,46.77,10.33-46.77h.29Z" style="fill:none;stroke:#543254;stroke-miterlimit:10"/><path d="M203,401.87c-95.67,0-173.49-77.83-173.49-173.49S107.37,54.89,203,54.89s173.49,77.83,173.49,173.49S298.7,401.87,203,401.87Zm0-312C126.68,89.9,64.55,152,64.55,228.38S126.68,366.86,203,366.86s138.48-62.12,138.48-138.48S279.4,89.9,203,89.9Z" style="fill:url(#linear-gradient-23)"/><path d="M203,90.39a138,138,0,1,1-97.57,40.42A137.12,137.12,0,0,1,203,90.39m0-18a156,156,0,1,0,156,156,156,156,0,0,0-156-156Z" style="fill:url(#linear-gradient-24)"/><path d="M203.44,361.55c-72.33,0-131.17-58.85-131.17-131.17A131.32,131.32,0,0,1,203.44,99.21c72.32,0,131.17,58.84,131.17,131.17S275.76,361.55,203.44,361.55Zm0-260a128.81,128.81,0,1,0,128.8,128.81A129,129,0,0,0,203.44,101.57Z" style="fill:#faf7f0"/><path d="M85.45,231.56a1.18,1.18,0,0,1-1.18-1.18A119.31,119.31,0,0,1,203.44,111.21a1.18,1.18,0,0,1,0,2.36A116.94,116.94,0,0,0,86.63,230.38,1.18,1.18,0,0,1,85.45,231.56Z" style="fill:#faf7f0"/></g></svg>