<svg id="_1-Coding" data-name="1-Coding" xmlns="http://www.w3.org/2000/svg" viewBox="0 0 48 48"><title>1-Coding</title><g id="_Group_" data-name="&lt;Group&gt;"><path d="M47,11V42a3,3,0,0,1-3,3H4a3,3,0,0,1-3-3V11Z" style="fill:#f1f2f2"/><path d="M47,6v5H1V6A3,3,0,0,1,4,3H44A3,3,0,0,1,47,6Z" style="fill:#a4b0c0"/></g><path d="M6,8H7A1,1,0,0,0,7,6H6A1,1,0,0,0,6,8Z" style="fill:#768ba0"/><path d="M11,8h1a1,1,0,0,0,0-2H11a1,1,0,0,0,0,2Z" style="fill:#768ba0"/><path d="M41,8h1a1,1,0,0,0,0-2H41a1,1,0,0,0,0,2Z" style="fill:#768ba0"/><path d="M13,15a1,1,0,0,0-1,1V40a1,1,0,0,0,2,0V16A1,1,0,0,0,13,15Z" style="fill:#a4b0c0"/><path d="M8,18H6a1,1,0,0,0,0,2H8a1,1,0,0,0,0-2Z" style="fill:#d0d7df"/><path d="M8,24H6a1,1,0,0,0,0,2H8a1,1,0,0,0,0-2Z" style="fill:#d0d7df"/><path d="M8,30H6a1,1,0,0,0,0,2H8a1,1,0,0,0,0-2Z" style="fill:#d0d7df"/><path d="M8,36H6a1,1,0,0,0,0,2H8a1,1,0,0,0,0-2Z" style="fill:#d0d7df"/><path d="M26.707,22.293a1,1,0,0,0-1.414,0l-5,5a1,1,0,0,0,0,1.414l5,5a1,1,0,0,0,1.414-1.414L22.414,28l4.293-4.293A1,1,0,0,0,26.707,22.293Z" style="fill:#d0d7df"/><path d="M34.707,22.293a1,1,0,0,0-1.414,1.414L37.586,28l-4.293,4.293a1,1,0,1,0,1.414,1.414l5-5a1,1,0,0,0,0-1.414Z" style="fill:#d0d7df"/></svg>