<svg xmlns="http://www.w3.org/2000/svg" viewBox="0 0 48 48"><title>10-Code-Api</title><g id="_10-Code-Api" data-name="10-Code-Api"><polygon points="35 43 35 47 13 47 13 43 16 43 32 43 35 43" style="fill:#d0d7df"/><polygon points="30 37 32 43 16 43 18 37 30 37" style="fill:#a4b0c0"/><path d="M47,4V29H1V4A3,3,0,0,1,4,1H44A3,3,0,0,1,47,4Z" style="fill:#65ccd8"/><path d="M47,29v5a3,3,0,0,1-3,3H4a3,3,0,0,1-3-3V29Z" style="fill:#d0d7df"/><path d="M23,21a1,1,0,0,0,1-1V17h2a2.916,2.916,0,0,0,3-3V12a2.916,2.916,0,0,0-3-3H23a1,1,0,0,0-1,1V20A1,1,0,0,0,23,21Zm1-10h1.988A.919.919,0,0,1,27,12v1.988A.918.918,0,0,1,26,15H24Z" style="fill:#f1f2f2"/><path d="M31,19a1,1,0,0,0,0,2h4a1,1,0,0,0,0-2H34V11h1a1,1,0,0,0,0-2H31a1,1,0,0,0,0,2h1v8Z" style="fill:#f1f2f2"/><path d="M13,21a1,1,0,0,0,1-1V17h4v3a1,1,0,0,0,2,0V13a4,4,0,0,0-8,0v7A1,1,0,0,0,13,21Zm3-10a2,2,0,0,1,2,2v2H14V13A2,2,0,0,1,16,11Z" style="fill:#f1f2f2"/><polygon points="30 37 18 37 17.333 39 30.667 39 30 37" style="fill:#97a3b2"/></g></svg>