<svg xmlns="http://www.w3.org/2000/svg" viewBox="0 0 48 48"><title>11-Coding</title><g id="_11-Coding" data-name="11-Coding"><polygon points="35 43 35 47 13 47 13 43 16 43 32 43 35 43" style="fill:#d0d7df"/><polygon points="30 37 32 43 16 43 18 37 30 37" style="fill:#a4b0c0"/><path d="M47,4V29H1V4A3,3,0,0,1,4,1H44A3,3,0,0,1,47,4Z" style="fill:#65ccd8"/><path d="M47,29v5a3,3,0,0,1-3,3H4a3,3,0,0,1-3-3V29Z" style="fill:#d0d7df"/><polygon points="30 37 18 37 17.333 39 30.667 39 30 37" style="fill:#97a3b2"/><rect x="9" y="9" width="30" height="20" style="fill:#f1f2f2"/><path d="M39,3V9H9V3a2.006,2.006,0,0,1,2-2H37A2.006,2.006,0,0,1,39,3Z" style="fill:#fed049"/><path d="M13,6h1a1,1,0,0,0,0-2H13a1,1,0,0,0,0,2Z" style="fill:#f6b445"/><path d="M19,6a1,1,0,0,0,0-2H18a1,1,0,0,0,0,2Z" style="fill:#f6b445"/><path d="M35,4H34a1,1,0,0,0,0,2h1a1,1,0,0,0,0-2Z" style="fill:#f6b445"/><path d="M21.707,15.293a1,1,0,0,0-1.414,0l-3,3a1,1,0,0,0,0,1.414l3,3a1,1,0,0,0,1.414-1.414L19.414,19l2.293-2.293A1,1,0,0,0,21.707,15.293Z" style="fill:#d0d7df"/><path d="M26.293,22.707a1,1,0,0,0,1.414,0l3-3a1,1,0,0,0,0-1.414l-3-3a1,1,0,0,0-1.414,1.414L28.586,19l-2.293,2.293A1,1,0,0,0,26.293,22.707Z" style="fill:#d0d7df"/></g></svg>