<svg xmlns="http://www.w3.org/2000/svg" viewBox="0 0 48 48"><title>12-Mobile app</title><g id="_12-Mobile_app" data-name="12-Mobile app"><path d="M34,41v3a3,3,0,0,1-3,3H7a3,3,0,0,1-3-3V41Z" style="fill:#d0d7df"/><path d="M34,4V7H4V4A3,3,0,0,1,7,1H31A3,3,0,0,1,34,4Z" style="fill:#d0d7df"/><polygon points="34 35 34 41 4 41 4 7 34 7 34 35" style="fill:#65ccd8"/><rect x="22" y="12" width="6" height="6" rx="1" ry="1" style="fill:#65c7d8"/><rect x="22" y="23" width="6" height="6" rx="1" ry="1" style="fill:#65c7d8"/><rect x="10" y="23" width="6" height="6" rx="1" ry="1" style="fill:#65c7d8"/><path d="M44,32v2a1,1,0,0,1-1,1H39V31h4A1,1,0,0,1,44,32Z" style="fill:#d0d7df"/><polygon points="39 31 39 35 17 35 13 33 17 31 39 31" style="fill:#fed049"/><rect x="10" y="12" width="6" height="6" rx="1" ry="1" style="fill:#65c7d8"/><path d="M17,13a2,2,0,0,0-2-2H11a2,2,0,0,0-2,2v4a2,2,0,0,0,2,2h4a2,2,0,0,0,2-2Zm-2,4-4,0V13h4Z" style="fill:#f1f2f2"/><path d="M29,13a2,2,0,0,0-2-2H23a2,2,0,0,0-2,2v4a2,2,0,0,0,2,2h4a2,2,0,0,0,2-2Zm-2,4H23V13h4Z" style="fill:#f1f2f2"/><path d="M16,28a1,1,0,0,0,1-1V24a2,2,0,0,0-2-2H11a2,2,0,0,0-2,2v4a2,2,0,0,0,2,2h1a1,1,0,0,0,0-2H11V24h4v3A1,1,0,0,0,16,28Z" style="fill:#f1f2f2"/><path d="M28,28a1,1,0,0,0,1-1V24a2,2,0,0,0-2-2H23a2,2,0,0,0-2,2v3a1,1,0,0,0,2,0V24h4v3A1,1,0,0,0,28,28Z" style="fill:#f1f2f2"/><rect x="38" y="31" width="2" height="4" style="fill:#a4b0c0"/></g></svg>