<svg xmlns="http://www.w3.org/2000/svg" viewBox="0 0 48 48"><title>13-App-Api</title><g id="_13-App-Api" data-name="13-App-Api"><g id="_Group_" data-name="&lt;Group&gt;"><path d="M47,11V42a3,3,0,0,1-3,3H4a3,3,0,0,1-3-3V11Z" style="fill:#f1f2f2"/><path d="M47,6v5H1V6A3,3,0,0,1,4,3H44A3,3,0,0,1,47,6Z" style="fill:#a4b0c0"/></g><path d="M6,8H7A1,1,0,0,0,7,6H6A1,1,0,0,0,6,8Z" style="fill:#768ba0"/><path d="M11,8h1a1,1,0,0,0,0-2H11a1,1,0,0,0,0,2Z" style="fill:#768ba0"/><path d="M41,8h1a1,1,0,0,0,0-2H41a1,1,0,0,0,0,2Z" style="fill:#768ba0"/><path d="M26,21H23a1,1,0,0,0-1,1V32a1,1,0,0,0,2,0V29h2a2.916,2.916,0,0,0,3-3V24A2.916,2.916,0,0,0,26,21Zm1,4.988A.918.918,0,0,1,26,27H24V23h1.988A.918.918,0,0,1,27,24Z" style="fill:#d0d7df"/><path d="M35,23a1,1,0,0,0,0-2H31a1,1,0,0,0,0,2h1v8H31a1,1,0,0,0,0,2h4a1,1,0,0,0,0-2H34V23Z" style="fill:#d0d7df"/><path d="M16,21a4,4,0,0,0-4,4v7a1,1,0,0,0,2,0V29h4v3a1,1,0,0,0,2,0V25A4,4,0,0,0,16,21Zm-2,6V25a2,2,0,0,1,4,0v2Z" style="fill:#d0d7df"/></g></svg>