<svg xmlns="http://www.w3.org/2000/svg" viewBox="0 0 48 48"><title>15-Development-Coding</title><g id="_15-Development-Coding" data-name="15-Development-Coding"><g id="_Group_" data-name="&lt;Group&gt;"><path d="M47,11V42a3,3,0,0,1-3,3H4a3,3,0,0,1-3-3V11Z" style="fill:#f1f2f2"/><path d="M47,6v5H1V6A3,3,0,0,1,4,3H44A3,3,0,0,1,47,6Z" style="fill:#a4b0c0"/></g><rect x="9" y="24" width="30" height="21" style="fill:#d0d7df"/><path d="M39,18v6H9V18a2.006,2.006,0,0,1,2-2H37A2.006,2.006,0,0,1,39,18Z" style="fill:#fed049"/><path d="M6,8H7A1,1,0,0,0,7,6H6A1,1,0,0,0,6,8Z" style="fill:#768ba0"/><path d="M11,8h1a1,1,0,0,0,0-2H11a1,1,0,0,0,0,2Z" style="fill:#768ba0"/><path d="M41,8h1a1,1,0,0,0,0-2H41a1,1,0,0,0,0,2Z" style="fill:#768ba0"/><path d="M13,21h1a1,1,0,0,0,0-2H13a1,1,0,0,0,0,2Z" style="fill:#f6b445"/><path d="M19,21a1,1,0,0,0,0-2H18a1,1,0,0,0,0,2Z" style="fill:#f6b445"/><path d="M35,19H34a1,1,0,0,0,0,2h1a1,1,0,0,0,0-2Z" style="fill:#f6b445"/><path d="M21.707,30.293a1,1,0,0,0-1.414,0l-3,3a1,1,0,0,0,0,1.414l3,3a1,1,0,0,0,1.414-1.414L19.414,34l2.293-2.293A1,1,0,0,0,21.707,30.293Z" style="fill:#a4b0c0"/><path d="M27.707,30.293a1,1,0,0,0-1.414,1.414L28.586,34l-2.293,2.293a1,1,0,1,0,1.414,1.414l3-3a1,1,0,0,0,0-1.414Z" style="fill:#a4b0c0"/></g></svg>