<svg xmlns="http://www.w3.org/2000/svg" viewBox="0 0 48 48"><title>16-Code</title><g id="_16-Code" data-name="16-Code"><circle cx="24" cy="22" r="19" style="fill:#fed049"/><g id="_Group_" data-name="&lt;Group&gt;"><path d="M47,44v2a1,1,0,0,1-1,1H42V43h4A1,1,0,0,1,47,44Z" style="fill:#a4b0c0"/><polygon points="42 43 42 47 5 47 1 45 5 43 42 43" style="fill:#d0d7df"/><path d="M5,11A4,4,0,0,0,9,7V5A4,4,0,0,0,1,5V7A4,4,0,0,0,5,11ZM3,5A2,2,0,0,1,7,5V7A2,2,0,0,1,3,7Z" style="fill:#768ba0"/><path d="M24,11a4,4,0,0,0,4-4V5a4,4,0,0,0-8,0V7A4,4,0,0,0,24,11ZM22,5a2,2,0,0,1,4,0V7a2,2,0,0,1-4,0Z" style="fill:#768ba0"/><path d="M24,25a4,4,0,0,0,4-4V19a4,4,0,0,0-8,0v2A4,4,0,0,0,24,25Zm-2-6a2,2,0,0,1,4,0v2a2,2,0,0,1-4,0Z" style="fill:#768ba0"/><path d="M43,25a4,4,0,0,0,4-4V19a4,4,0,0,0-8,0v2A4,4,0,0,0,43,25Zm-2-6a2,2,0,0,1,4,0v2a2,2,0,0,1-4,0Z" style="fill:#768ba0"/><path d="M12,9a1,1,0,0,0,0,2h4a1,1,0,0,0,0-2H15V2a1,1,0,0,0-1-1H12a1,1,0,0,0,0,2h1V9Z" style="fill:#768ba0"/><path d="M41,9a1,1,0,0,0,0,2h4a1,1,0,0,0,0-2H44V2a1,1,0,0,0-1-1H41a1,1,0,0,0,0,2h1V9Z" style="fill:#768ba0"/><path d="M3,23a1,1,0,0,0,0,2H7a1,1,0,0,0,0-2H6V16a1,1,0,0,0-1-1H3a1,1,0,0,0,0,2H4v6Z" style="fill:#768ba0"/><path d="M12,23a1,1,0,0,0,0,2h4a1,1,0,0,0,0-2H15V16a1,1,0,0,0-1-1H12a1,1,0,0,0,0,2h1v6Z" style="fill:#768ba0"/><path d="M32,23a1,1,0,0,0,0,2h4a1,1,0,0,0,0-2H35V16a1,1,0,0,0-1-1H32a1,1,0,0,0,0,2h1v6Z" style="fill:#768ba0"/><path d="M32,9a1,1,0,0,0,0,2h4a1,1,0,0,0,0-2H35V2a1,1,0,0,0-1-1H32a1,1,0,0,0,0,2h1V9Z" style="fill:#768ba0"/><path d="M5,39a4,4,0,0,0,4-4V33a4,4,0,0,0-8,0v2A4,4,0,0,0,5,39ZM3,33a2,2,0,0,1,4,0v2a2,2,0,0,1-4,0Z" style="fill:#768ba0"/><path d="M24,39a4,4,0,0,0,4-4V33a4,4,0,0,0-8,0v2A4,4,0,0,0,24,39Zm-2-6a2,2,0,0,1,4,0v2a2,2,0,0,1-4,0Z" style="fill:#768ba0"/><path d="M12,37a1,1,0,0,0,0,2h4a1,1,0,0,0,0-2H15V30a1,1,0,0,0-1-1H12a1,1,0,0,0,0,2h1v6Z" style="fill:#768ba0"/><path d="M41,37a1,1,0,0,0,0,2h4a1,1,0,0,0,0-2H44V30a1,1,0,0,0-1-1H41a1,1,0,0,0,0,2h1v6Z" style="fill:#768ba0"/><path d="M32,37a1,1,0,0,0,0,2h4a1,1,0,0,0,0-2H35V30a1,1,0,0,0-1-1H32a1,1,0,0,0,0,2h1v6Z" style="fill:#768ba0"/></g><rect x="41" y="43" width="2" height="4" style="fill:#768ba0"/></g></svg>