<svg xmlns="http://www.w3.org/2000/svg" viewBox="0 0 48 48"><title>17-Mobile-App</title><g id="_17-Mobile-App" data-name="17-Mobile-App"><path d="M47,41v3a3,3,0,0,1-3,3H20a3,3,0,0,1-3-3V41Z" style="fill:#d0d7df"/><path d="M47,4V7H17V4a3,3,0,0,1,3-3H44A3,3,0,0,1,47,4Z" style="fill:#d0d7df"/><rect x="17" y="7" width="30" height="34" style="fill:#43c0d0"/><path d="M31,41v3a3,3,0,0,1-3,3H4a3,3,0,0,1-3-3V41Z" style="fill:#f1f2f2"/><path d="M31,4V7H1V4A3,3,0,0,1,4,1H28A3,3,0,0,1,31,4Z" style="fill:#f1f2f2"/><rect x="1" y="7" width="30" height="34" style="fill:#65ccd8"/><path d="M17.707,18.293a1,1,0,0,0-1.414,0l-5,5a1,1,0,0,0,0,1.414l5,5a1,1,0,0,0,1.414-1.414L13.414,24l4.293-4.293A1,1,0,0,0,17.707,18.293Z" style="fill:#f1f2f2"/><path d="M30.293,18.293a1,1,0,0,0,0,1.414L34.586,24l-4.293,4.293a1,1,0,1,0,1.414,1.414l5-5a1,1,0,0,0,0-1.414l-5-5A1,1,0,0,0,30.293,18.293Z" style="fill:#f1f2f2"/><path d="M21,30a1,1,0,0,0,.9-.553l5-10a1,1,0,1,0-1.79-.894l-5,10A1,1,0,0,0,21,30Z" style="fill:#f1f2f2"/></g></svg>