<svg xmlns="http://www.w3.org/2000/svg" viewBox="0 0 48 48"><title>18-File-Code</title><g id="_18-File-Code" data-name="18-File-Code"><path d="M44,14H35a4,4,0,0,1-4-4V1Z" style="fill:#f6b445"/><path d="M44,14V43a4,4,0,0,1-4,4H10s-4,0-4-4V5a4,4,0,0,1,4-4H31v9a4,4,0,0,0,4,4Z" style="fill:#fed049"/><path d="M8,42v4a1,1,0,0,1-1,1H5a1,1,0,0,1-1-1V42Z" style="fill:#a4b0c0"/><polygon points="8 5 8 42 4 42 4 5 6 1 8 5" style="fill:#f1f2f2"/><path d="M18.707,22.293a1,1,0,0,0-1.414,0l-5,5a1,1,0,0,0,0,1.414l5,5a1,1,0,0,0,1.414-1.414L14.414,28l4.293-4.293A1,1,0,0,0,18.707,22.293Z" style="fill:#f1f2f2"/><path d="M31.293,33.707a1,1,0,0,0,1.414,0l5-5a1,1,0,0,0,0-1.414l-5-5a1,1,0,0,0-1.414,1.414L35.586,28l-4.293,4.293A1,1,0,0,0,31.293,33.707Z" style="fill:#f1f2f2"/><path d="M22,34a1,1,0,0,0,.9-.553l5-10a1,1,0,1,0-1.79-.894l-5,10A1,1,0,0,0,22,34Z" style="fill:#f1f2f2"/><rect x="4" y="41" width="4" height="2" style="fill:#768ba0"/></g></svg>