<svg xmlns="http://www.w3.org/2000/svg" viewBox="0 0 48 48"><title>19-Development</title><g id="_19-Development" data-name="19-Development"><path d="M7,44H4a3,3,0,0,1-3-3V17a3,3,0,0,1,3-3H7Z" style="fill:#d0d7df"/><path d="M44,44H41V14h3a3,3,0,0,1,3,3V41A3,3,0,0,1,44,44Z" style="fill:#d0d7df"/><rect x="7" y="14" width="34" height="30" style="fill:#65ccd8"/><rect x="12" y="9" width="24" height="35" style="fill:#f1f2f2"/><path d="M36,6V9H12V6a2.006,2.006,0,0,1,2-2H34A2.006,2.006,0,0,1,36,6Z" style="fill:#fed049"/><path d="M21.707,16.293l-3-3a1,1,0,0,0-1.414,1.414L19.586,17l-2.293,2.293a1,1,0,1,0,1.414,1.414l3-3A1,1,0,0,0,21.707,16.293Z" style="fill:#d0d7df"/><path d="M28,21a1,1,0,0,0,0-2H24a1,1,0,0,0,0,2Z" style="fill:#d0d7df"/><path d="M20,25V39a1,1,0,0,0,2,0V25a1,1,0,0,0-2,0Z" style="fill:#d0d7df"/><path d="M17,25H16a1,1,0,0,0,0,2h1a1,1,0,0,0,0-2Z" style="fill:#d0d7df"/><path d="M17,29H16a1,1,0,0,0,0,2h1a1,1,0,0,0,0-2Z" style="fill:#d0d7df"/><path d="M17,33H16a1,1,0,0,0,0,2h1a1,1,0,0,0,0-2Z" style="fill:#d0d7df"/><path d="M17,37H16a1,1,0,0,0,0,2h1a1,1,0,0,0,0-2Z" style="fill:#d0d7df"/><path d="M31,25H25a1,1,0,0,0,0,2h6a1,1,0,0,0,0-2Z" style="fill:#d0d7df"/><path d="M25,31h3a1,1,0,0,0,0-2H25a1,1,0,0,0,0,2Z" style="fill:#d0d7df"/><path d="M32,34a1,1,0,0,0-1-1H25a1,1,0,0,0,0,2h6A1,1,0,0,0,32,34Z" style="fill:#d0d7df"/><path d="M25,37a1,1,0,0,0,0,2h3a1,1,0,0,0,0-2Z" style="fill:#d0d7df"/></g></svg>