<svg xmlns="http://www.w3.org/2000/svg" viewBox="0 0 48 48"><title>2-Process</title><g id="_2-Process" data-name="2-Process"><g id="_Group_" data-name="&lt;Group&gt;"><path d="M47,9V40a3,3,0,0,1-3,3H4a3,3,0,0,1-3-3V9Z" style="fill:#f1f2f2"/><path d="M47,4V9H1V4A3,3,0,0,1,4,1H44A3,3,0,0,1,47,4Z" style="fill:#a4b0c0"/></g><g id="_Group_2" data-name="&lt;Group&gt;"><circle cx="24" cy="32" r="4" style="fill:#f1f2f2"/><path d="M39,31v2a2.006,2.006,0,0,1-2,2H33.54a10.468,10.468,0,0,1-.68,1.62l2.45,2.45a2,2,0,0,1,0,2.83L33.9,43.31a2,2,0,0,1-2.83,0l-2.45-2.45a10.468,10.468,0,0,1-1.62.68V45a2.006,2.006,0,0,1-2,2H23a2.006,2.006,0,0,1-2-2V41.54a10.468,10.468,0,0,1-1.62-.68l-2.45,2.45a2,2,0,0,1-2.83,0L12.69,41.9a2,2,0,0,1,0-2.83l2.45-2.45A10.468,10.468,0,0,1,14.46,35H11a2.006,2.006,0,0,1-2-2V31a2.006,2.006,0,0,1,2-2h3.46a10.468,10.468,0,0,1,.68-1.62l-2.45-2.45a2,2,0,0,1,0-2.83l1.41-1.41a2,2,0,0,1,2.83,0l2.45,2.45A10.468,10.468,0,0,1,21,22.46V19a2.006,2.006,0,0,1,2-2h2a2.006,2.006,0,0,1,2,2v3.46a10.468,10.468,0,0,1,1.62.68l2.45-2.45a2,2,0,0,1,2.83,0l1.41,1.41a2,2,0,0,1,0,2.83l-2.45,2.45A10.468,10.468,0,0,1,33.54,29H37A2.006,2.006,0,0,1,39,31ZM28,32a4,4,0,1,0-4,4A4,4,0,0,0,28,32Z" style="fill:#fed049"/><path d="M7,6A1,1,0,0,0,7,4H6A1,1,0,0,0,6,6Z" style="fill:#768ba0"/><path d="M12,6a1,1,0,0,0,0-2H11a1,1,0,0,0,0,2Z" style="fill:#768ba0"/><path d="M42,6a1,1,0,0,0,0-2H41a1,1,0,0,0,0,2Z" style="fill:#768ba0"/></g></g></svg>