<svg xmlns="http://www.w3.org/2000/svg" viewBox="0 0 48 48"><title>20-Workflow</title><g id="_20-Workflow" data-name="20-Workflow"><rect x="16" y="19" width="16" height="10" rx="2" ry="2" style="fill:#a4b0c0"/><rect x="16" y="1" width="16" height="10" rx="2" ry="2" style="fill:#fed049"/><rect x="16" y="37" width="16" height="10" rx="2" ry="2" style="fill:#d0d7df"/><path d="M43,5H16a1,1,0,0,0,0,2H42.988A.918.918,0,0,1,44,8V21.988A.918.918,0,0,1,43,23H39.414l1.293-1.293a1,1,0,0,0-1.414-1.414l-3,3a.99.99,0,0,0-.217.326,1,1,0,0,0,0,.764.99.99,0,0,0,.217.326l3,3a1,1,0,0,0,1.414-1.414L39.414,25H43a2.916,2.916,0,0,0,3-3V8A2.916,2.916,0,0,0,43,5Z" style="fill:#768ba0"/><path d="M32,23H5a2.916,2.916,0,0,0-3,3V40a2.916,2.916,0,0,0,3,3H8.586L7.293,44.293a1,1,0,1,0,1.414,1.414l3-3a.99.99,0,0,0,.217-.326,1,1,0,0,0,0-.764.99.99,0,0,0-.217-.326l-3-3a1,1,0,1,0-1.414,1.414L8.586,41H5a.915.915,0,0,1-1-1V26a.915.915,0,0,1,1-1H32a1,1,0,0,0,0-2Z" style="fill:#768ba0"/><path d="M22,41H21a1,1,0,0,0,0,2h1a1,1,0,0,0,0-2Z" style="fill:#a4b0c0"/><path d="M26,43h1a1,1,0,0,0,0-2H26a1,1,0,0,0,0,2Z" style="fill:#a4b0c0"/><rect x="23" y="11" width="2" height="8" style="fill:#768ba0"/><rect x="23" y="29" width="2" height="8" style="fill:#768ba0"/></g></svg>