<svg xmlns="http://www.w3.org/2000/svg" viewBox="0 0 48 48"><title>3-Coding</title><g id="_3-Coding" data-name="3-Coding"><polygon points="35 43 35 47 13 47 13 43 16 43 32 43 35 43" style="fill:#d0d7df"/><polygon points="30 37 32 43 16 43 18 37 30 37" style="fill:#a4b0c0"/><path d="M47,4V29H1V4A3,3,0,0,1,4,1H44A3,3,0,0,1,47,4Z" style="fill:#65ccd8"/><path d="M47,29v5a3,3,0,0,1-3,3H4a3,3,0,0,1-3-3V29Z" style="fill:#d0d7df"/><path d="M6.293,13.707a1,1,0,0,0,1.414,0l3-3a1,1,0,0,0,0-1.414l-3-3A1,1,0,0,0,6.293,7.707L8.586,10,6.293,12.293A1,1,0,0,0,6.293,13.707Z" style="fill:#f1f2f2"/><path d="M13,14h4a1,1,0,0,0,0-2H13a1,1,0,0,0,0,2Z" style="fill:#f1f2f2"/><polygon points="30 37 18 37 17.333 39 30.667 39 30 37" style="fill:#97a3b2"/></g></svg>