<svg xmlns="http://www.w3.org/2000/svg" viewBox="0 0 48 48"><title>4-Coding</title><g id="_4-Coding" data-name="4-Coding"><g id="_Group_" data-name="&lt;Group&gt;"><path d="M47,11V42a3,3,0,0,1-3,3H4a3,3,0,0,1-3-3V11Z" style="fill:#f1f2f2"/><path d="M47,6v5H1V6A3,3,0,0,1,4,3H44A3,3,0,0,1,47,6Z" style="fill:#a4b0c0"/></g><path d="M6,8H7A1,1,0,0,0,7,6H6A1,1,0,0,0,6,8Z" style="fill:#768ba0"/><path d="M11,8h1a1,1,0,0,0,0-2H11a1,1,0,0,0,0,2Z" style="fill:#768ba0"/><path d="M41,8h1a1,1,0,0,0,0-2H41a1,1,0,0,0,0,2Z" style="fill:#768ba0"/><path d="M20,21a4,4,0,0,0-4,4v4a4,4,0,0,0,8,0V25A4,4,0,0,0,20,21Zm2,8a2,2,0,0,1-4,0V25a2,2,0,0,1,4,0Z" style="fill:#d0d7df"/><path d="M10,23a2,2,0,0,1,2,2,1,1,0,0,0,2,0,4,4,0,0,0-8,0v4a4,4,0,0,0,8,0,1,1,0,0,0-2,0,2,2,0,0,1-4,0V25A2,2,0,0,1,10,23Z" style="fill:#d0d7df"/><path d="M29,21H27a1,1,0,0,0-1,1V32a1,1,0,0,0,1,1h2a4,4,0,0,0,4-4V25A4,4,0,0,0,29,21Zm2,8a2,2,0,0,1-2,2H28V23h1a2,2,0,0,1,2,2Z" style="fill:#d0d7df"/><path d="M41,23a1,1,0,0,0,0-2H36a1,1,0,0,0-1,1V32a1,1,0,0,0,1,1h5a1,1,0,0,0,0-2H37V28h4a1,1,0,0,0,0-2H37V23Z" style="fill:#d0d7df"/></g></svg>