<svg xmlns="http://www.w3.org/2000/svg" viewBox="0 0 48 48"><title>5-Coding</title><g id="_5-Coding" data-name="5-Coding"><g id="_Group_" data-name="&lt;Group&gt;"><path d="M47,11V42a3,3,0,0,1-3,3H4a3,3,0,0,1-3-3V11Z" style="fill:#f1f2f2"/><path d="M47,6v5H1V6A3,3,0,0,1,4,3H44A3,3,0,0,1,47,6Z" style="fill:#a4b0c0"/></g><path d="M6,8H7A1,1,0,0,0,7,6H6A1,1,0,0,0,6,8Z" style="fill:#768ba0"/><path d="M11,8h1a1,1,0,0,0,0-2H11a1,1,0,0,0,0,2Z" style="fill:#768ba0"/><path d="M41,8h1a1,1,0,0,0,0-2H41a1,1,0,0,0,0,2Z" style="fill:#768ba0"/><path d="M7.707,16.293a1,1,0,0,0-1.414,1.414L8.586,20,6.293,22.293a1,1,0,1,0,1.414,1.414l3-3a1,1,0,0,0,0-1.414Z" style="fill:#d0d7df"/><path d="M17,22H13a1,1,0,0,0,0,2h4a1,1,0,0,0,0-2Z" style="fill:#d0d7df"/></g></svg>