<svg xmlns="http://www.w3.org/2000/svg" viewBox="0 0 48 48"><title>6-File-Code</title><g id="_6-File-Code" data-name="6-File-Code"><g id="_Group_" data-name="&lt;Group&gt;"><path d="M43,14H34a4,4,0,0,1-4-4V1Z" style="fill:#f6b445"/><path d="M43,14V43a4,4,0,0,1-4,4H9s-4,0-4-4V5A4,4,0,0,1,9,1H30v9a4,4,0,0,0,4,4Z" style="fill:#fed049"/><path d="M11.707,19.293a1,1,0,0,0-1.414,1.414L12.586,23l-2.293,2.293a1,1,0,1,0,1.414,1.414l3-3a1,1,0,0,0,0-1.414Z" style="fill:#f1f2f2"/><path d="M21,25H17a1,1,0,0,0,0,2h4a1,1,0,0,0,0-2Z" style="fill:#f1f2f2"/></g></g></svg>