<svg xmlns="http://www.w3.org/2000/svg" viewBox="0 0 48 48"><title>7-Coding</title><g id="_7-Coding" data-name="7-Coding"><g id="_Group_" data-name="&lt;Group&gt;"><path d="M47,11V42a3,3,0,0,1-3,3H4a3,3,0,0,1-3-3V11Z" style="fill:#f1f2f2"/><path d="M47,6v5H1V6A3,3,0,0,1,4,3H44A3,3,0,0,1,47,6Z" style="fill:#a4b0c0"/></g><path d="M6,8H7A1,1,0,0,0,7,6H6A1,1,0,0,0,6,8Z" style="fill:#768ba0"/><path d="M11,8h1a1,1,0,0,0,0-2H11a1,1,0,0,0,0,2Z" style="fill:#768ba0"/><path d="M41,8h1a1,1,0,0,0,0-2H41a1,1,0,0,0,0,2Z" style="fill:#768ba0"/><path d="M11,16a4,4,0,0,0-4,4v2a4,4,0,0,0,8,0V20A4,4,0,0,0,11,16Zm2,6a2,2,0,0,1-4,0V20a2,2,0,0,1,4,0Z" style="fill:#d0d7df"/><path d="M29,16a4,4,0,0,0-4,4v2a4,4,0,0,0,8,0V20A4,4,0,0,0,29,16Zm2,6a2,2,0,0,1-4,0V20a2,2,0,0,1,4,0Z" style="fill:#d0d7df"/><path d="M29,30a4,4,0,0,0-4,4v2a4,4,0,0,0,8,0V34A4,4,0,0,0,29,30Zm2,6a2,2,0,0,1-4,0V34a2,2,0,0,1,4,0Z" style="fill:#d0d7df"/><path d="M22,24H21V17a1,1,0,0,0-1-1H18a1,1,0,0,0,0,2h1v6H18a1,1,0,0,0,0,2h4a1,1,0,0,0,0-2Z" style="fill:#d0d7df"/><path d="M13,38H12V31a1,1,0,0,0-1-1H9a1,1,0,0,0,0,2h1v6H9a1,1,0,0,0,0,2h4a1,1,0,0,0,0-2Z" style="fill:#d0d7df"/><path d="M22,38H21V31a1,1,0,0,0-1-1H18a1,1,0,0,0,0,2h1v6H18a1,1,0,0,0,0,2h4a1,1,0,0,0,0-2Z" style="fill:#d0d7df"/><path d="M40,38H39V31a1,1,0,0,0-1-1H36a1,1,0,0,0,0,2h1v6H36a1,1,0,0,0,0,2h4a1,1,0,0,0,0-2Z" style="fill:#d0d7df"/><path d="M40,24H39V17a1,1,0,0,0-1-1H36a1,1,0,0,0,0,2h1v6H36a1,1,0,0,0,0,2h4a1,1,0,0,0,0-2Z" style="fill:#d0d7df"/></g></svg>