<svg xmlns="http://www.w3.org/2000/svg" viewBox="0 0 48 48"><title>8-Development</title><g id="_8-Development" data-name="8-Development"><g id="_Group_" data-name="&lt;Group&gt;"><path d="M47,9V40a3,3,0,0,1-3,3H4a3,3,0,0,1-3-3V9Z" style="fill:#f1f2f2"/><path d="M47,4V9H1V4A3,3,0,0,1,4,1H44A3,3,0,0,1,47,4Z" style="fill:#a4b0c0"/></g><g id="_Group_2" data-name="&lt;Group&gt;"><rect x="8" y="27" width="32" height="20" rx="2" ry="2" style="fill:#d0d7df"/><path d="M7,6A1,1,0,0,0,7,4H6A1,1,0,0,0,6,6Z" style="fill:#768ba0"/><path d="M12,6a1,1,0,0,0,0-2H11a1,1,0,0,0,0,2Z" style="fill:#768ba0"/><path d="M42,6a1,1,0,0,0,0-2H41a1,1,0,0,0,0,2Z" style="fill:#768ba0"/><path d="M7.707,21.707l3-3a1,1,0,0,0,0-1.414l-3-3a1,1,0,0,0-1.414,1.414L8.586,18,6.293,20.293a1,1,0,1,0,1.414,1.414Z" style="fill:#d0d7df"/><path d="M13,20a1,1,0,0,0,0,2h4a1,1,0,0,0,0-2Z" style="fill:#d0d7df"/><path d="M12,41a1,1,0,0,0,0,2h2a1,1,0,0,0,0-2Z" style="fill:#a4b0c0"/><path d="M17,37a1,1,0,0,0-1-1H14a1,1,0,0,0,0,2h2A1,1,0,0,0,17,37Z" style="fill:#a4b0c0"/><path d="M20,38h2a1,1,0,0,0,0-2H20a1,1,0,0,0,0,2Z" style="fill:#a4b0c0"/><path d="M28,38a1,1,0,0,0,0-2H26a1,1,0,0,0,0,2Z" style="fill:#a4b0c0"/><path d="M32,38h2a1,1,0,0,0,0-2H32a1,1,0,0,0,0,2Z" style="fill:#a4b0c0"/><path d="M14,33h2a1,1,0,0,0,0-2H14a1,1,0,0,0,0,2Z" style="fill:#a4b0c0"/><path d="M20,33h2a1,1,0,0,0,0-2H20a1,1,0,0,0,0,2Z" style="fill:#a4b0c0"/><path d="M28,31H26a1,1,0,0,0,0,2h2a1,1,0,0,0,0-2Z" style="fill:#a4b0c0"/><path d="M32,33h2a1,1,0,0,0,0-2H32a1,1,0,0,0,0,2Z" style="fill:#a4b0c0"/><path d="M33,42a1,1,0,0,0,1,1h2a1,1,0,0,0,0-2H34A1,1,0,0,0,33,42Z" style="fill:#a4b0c0"/><path d="M18,43H30a1,1,0,0,0,0-2H18a1,1,0,0,0,0,2Z" style="fill:#a4b0c0"/></g><path d="M25,22a1,1,0,0,0-2,0v5h2Z" style="fill:#768ba0"/></g></svg>