<svg xmlns="http://www.w3.org/2000/svg" viewBox="0 0 48 48"><title>9-Code</title><g id="_9-Code" data-name="9-Code"><g id="_Group_" data-name="&lt;Group&gt;"><path d="M47,9V40a3,3,0,0,1-3,3H4a3,3,0,0,1-3-3V9Z" style="fill:#f1f2f2"/><path d="M47,4V9H1V4A3,3,0,0,1,4,1H44A3,3,0,0,1,47,4Z" style="fill:#fed049"/></g><rect x="13" y="37" width="6" height="10" rx="2" ry="2" style="fill:#a4b0c0"/><circle cx="16" cy="19" r="12" style="fill:#d0d7df"/><path d="M42,6a1,1,0,0,0,0-2H41a1,1,0,0,0,0,2Z" style="fill:#f6b445"/><path d="M37,6a1,1,0,0,0,0-2H36a1,1,0,0,0,0,2Z" style="fill:#f6b445"/><path d="M13.707,15.293a1,1,0,0,0-1.414,0l-3,3a1,1,0,0,0,0,1.414l3,3a1,1,0,0,0,1.414-1.414L11.414,19l2.293-2.293A1,1,0,0,0,13.707,15.293Z" style="fill:#f1f2f2"/><path d="M18.293,22.707a1,1,0,0,0,1.414,0l3-3a1,1,0,0,0,0-1.414l-3-3a1,1,0,0,0-1.414,1.414L20.586,19l-2.293,2.293A1,1,0,0,0,18.293,22.707Z" style="fill:#f1f2f2"/><path d="M29,19A13,13,0,1,0,15,31.949V32h2v-.051A13.008,13.008,0,0,0,29,19ZM5,19A11,11,0,1,1,16,30,11.013,11.013,0,0,1,5,19Z" style="fill:#a4b0c0"/><rect x="15" y="32" width="2" height="5" style="fill:#768ba0"/></g></svg>